<svg width="206" height="203" viewBox="0 0 206 203" fill="none" xmlns="http://www.w3.org/2000/svg">
<g clip-path="url(#clip0_686_7381)">
<path d="M15.939 173.402C15.0332 176.689 20.6032 176.448 24.9477 178.07C26.9015 178.8 26.3777 180.833 26.3777 180.833C26.3777 180.833 15.9483 183.259 8.90827 181.851C5.15635 181.1 3.45909 180.943 2.78752 181.926C2.05647 182.995 6.74858 186.782 13.7993 188.216C25.6959 190.637 32.6476 188.798 42.5157 187.763C52.3832 186.729 63.8295 185.82 63.8295 185.82L58.9775 176.426L38.3901 180.642C38.3901 180.642 36.5748 175.603 32.3363 174.783C22.6858 172.916 16.3089 172.058 15.939 173.402Z" fill="#FAA688"/>
<path d="M15.939 173.402C15.0332 176.689 20.6032 176.448 24.9477 178.07C26.9015 178.8 26.3777 180.833 26.3777 180.833C26.3777 180.833 15.9483 183.259 8.90827 181.851C5.15635 181.1 3.45909 180.943 2.78752 181.926C2.05647 182.995 6.74858 186.782 13.7993 188.216C25.6959 190.637 32.6476 188.798 42.5157 187.763C52.3832 186.729 63.8295 185.82 63.8295 185.82L58.9775 176.426L38.3901 180.642C38.3901 180.642 36.5748 175.603 32.3363 174.783C22.6858 172.916 16.3089 172.058 15.939 173.402Z" stroke="#424849" stroke-miterlimit="10"/>
<path d="M24.6565 188.627C24.6565 188.627 4.3809 187.864 2.21935 185.671C0.0578068 183.479 5.34712 183.426 10.3855 184.358C15.4238 185.289 26.6875 184.965 26.6875 184.965" fill="#FAA688"/>
<path d="M24.6565 188.627C24.6565 188.627 4.3809 187.864 2.21935 185.671C0.0578069 183.479 5.34712 183.426 10.3855 184.358C15.4238 185.289 26.6875 184.965 26.6875 184.965" stroke="#424849" stroke-miterlimit="10"/>
<path d="M25.8655 187.192C25.8655 187.192 15.1135 187.318 10.0747 186.387C5.03633 185.455 -1.28007 186.303 0.881476 188.495C3.04349 190.688 26.8665 193.622 26.8665 193.622C26.8665 193.622 48.8645 189.663 56.2289 188.335C63.5933 187.007 65.2618 184.929 65.2618 184.929L61.5814 180.285L35.0173 184.429L25.8655 187.192Z" fill="#FAA688"/>
<path d="M25.8655 187.192C25.8655 187.192 15.1135 187.318 10.0747 186.387C5.03633 185.455 -1.28007 186.303 0.881476 188.495C3.04349 190.688 26.8665 193.622 26.8665 193.622C26.8665 193.622 48.8645 189.663 56.2289 188.335C63.5933 187.007 65.2618 184.929 65.2618 184.929L61.5814 180.285L35.0173 184.429L25.8655 187.192Z" stroke="#424849" stroke-miterlimit="10"/>
<path d="M25.7584 183.858L25.0078 188.109L60.0067 184.929V179.928L25.7584 183.858Z" fill="#FAA688"/>
<path d="M25.7584 183.858L25.0078 188.109L60.0067 184.929V179.928L25.7584 183.858Z" stroke="#FAA688" stroke-miterlimit="10"/>
<path d="M104.82 91.9241L95.0137 95.2122C95.0137 95.2122 90.0525 101.275 88.1038 104.908C81.4528 117.308 86.5278 164.681 86.5278 164.681L43.0608 172.677L47.6367 193.217L105.897 179.928L104.82 91.9241Z" fill="white"/>
<path d="M104.82 91.9241L95.0137 95.2122C95.0137 95.2122 90.0525 101.275 88.1038 104.908C81.4528 117.308 86.5278 164.681 86.5278 164.681L43.0608 172.677L47.6367 193.217L105.897 179.928L104.82 91.9241Z" stroke="#424849" stroke-miterlimit="10"/>
<path d="M119.858 86.6983L104.285 92.1367L91.5857 207.42H178.494L174.483 172.877L186.591 130.824L175.421 88.7404L169.282 86.8623L161.013 86.6983H119.858Z" fill="white"/>
<path d="M119.858 86.6983L104.285 92.1367L91.5857 207.42H178.494L174.483 172.877L186.591 130.824L175.421 88.7404L169.282 86.8623L161.013 86.6983H119.858Z" stroke="#424849" stroke-miterlimit="10"/>
<path d="M123.754 71.8507L125.693 83.9734L154.778 81.1837C154.778 81.1837 152.158 73.2202 151.224 67.7396C148.376 51.0187 162.071 45.6305 160.284 30.5471C158.497 15.4641 152.286 7.02283 139.69 2.56022C120.309 -4.30669 109.96 8.00925 106.661 18.3319C103.362 28.6546 113.009 69.2718 115.986 71.0574C118.963 72.8427 123.754 71.8507 123.754 71.8507Z" fill="white"/>
<path d="M123.754 71.8507L125.693 83.9734L154.778 81.1837C154.778 81.1837 152.158 73.2202 151.224 67.7396C148.376 51.0187 162.071 45.6305 160.284 30.5471C158.497 15.4641 152.287 7.02282 139.69 2.56022C120.309 -4.30669 109.96 8.00925 106.661 18.3319C103.362 28.6546 113.009 69.2718 115.986 71.0574C118.963 72.8427 123.754 71.8507 123.754 71.8507Z" stroke="#424849" stroke-miterlimit="10"/>
<path d="M123.58 71.4851L125.52 83.6078L154.605 80.8181C154.605 80.8181 151.705 73.0544 150.771 67.5742C147.924 50.8532 161.574 45.6559 159.787 30.573C158 15.4896 152.075 7.08497 139.388 2.88383C121.361 -3.08675 112.783 7.69521 109.484 18.0174C106.185 28.34 115.44 62.7015 117.078 66.4735C118.716 70.2451 123.58 71.4851 123.58 71.4851Z" fill="#FAA688"/>
<path d="M132.642 26.8755L99.895 34.4924C99.895 34.4924 100.829 39.3535 101.755 44.0971C102.346 47.126 106.064 46.8311 108.978 46.1508C114.716 44.8109 112.511 31.8002 112.511 31.8002L115.612 31.1059C115.612 31.1059 117.085 44.3827 126.333 43.1381C132.759 42.2729 134.296 39.8384 133.786 35.9372C133.302 32.2316 132.642 26.8755 132.642 26.8755Z" fill="white"/>
<path d="M135.585 26.2683L99.895 34.3752C99.895 34.3752 100.829 39.2358 101.755 43.9794C102.346 47.0088 106.999 46.6368 109.913 45.9564C118.456 43.9617 115.386 31.2617 115.386 31.2617C115.386 31.2617 117.085 44.265 126.333 43.0203C132.759 42.1551 137.239 39.2311 136.729 35.33C136.245 31.6244 135.585 26.2683 135.585 26.2683Z" stroke="#424849" stroke-miterlimit="10"/>
<path d="M120.94 58.8017C120.94 58.8017 125.423 54.8082 132.052 56.5613" stroke="#424849" stroke-miterlimit="10"/>
<path d="M122.466 34.672C122.735 35.7119 122.109 36.7721 121.069 37.041C120.028 37.3099 118.967 36.6844 118.698 35.645C118.429 34.6051 119.302 34.5002 120.342 34.2318C121.383 33.9629 122.197 33.6322 122.466 34.672Z" fill="#424849"/>
<path d="M151.743 39.4887C153.473 36.8954 152.554 33.0054 149.635 32.033C146.715 31.0605 136.641 26.0531 136.641 26.0531L134.803 26.446" stroke="#424849" stroke-miterlimit="10"/>
<path d="M123.84 75.4636L136.977 69.3184L123.152 71.522L123.84 75.4636Z" fill="#424849"/>
<path d="M116.233 36.1898L117.825 45.22L112.301 47.7705L118.045 52.346" stroke="#424849" stroke-miterlimit="10"/>
<path d="M105.87 37.7658C106.137 38.8001 105.514 39.8548 104.48 40.1218C103.445 40.3893 102.39 39.7674 102.122 38.7332C101.855 37.6994 102.723 37.5949 103.757 37.3278C104.792 37.0608 105.602 36.7315 105.87 37.7658Z" fill="#424849"/>
<path d="M122.936 81.689C122.936 81.689 150.738 81.0941 155.056 76.0347C161.013 77.6718 157.736 81.689 157.736 81.689L161.013 86.6982H120.198C120.198 86.6982 123.573 86.3021 122.936 85.1113C122.298 83.921 122.936 81.689 122.936 81.689Z" fill="#FDFDFD"/>
<path d="M122.936 81.689C122.936 81.689 150.738 81.0941 155.056 76.0347C161.013 77.6718 157.736 81.689 157.736 81.689L161.013 86.6982H120.198C120.198 86.6982 123.573 86.3021 122.936 85.1113C122.298 83.921 122.936 81.689 122.936 81.689Z" stroke="#424849" stroke-miterlimit="10"/>
<path d="M169.281 86.8623C169.281 86.8623 178.252 88.4724 186.591 95.1684C194.929 101.864 204.669 154.756 205.413 164.428C206.158 174.099 196.967 248.805 196.967 248.805L181.362 245.635L182.941 164.428L180.841 141.845" fill="white"/>
<path d="M169.281 86.8623C169.281 86.8623 178.252 88.4724 186.591 95.1684C194.929 101.864 204.669 154.756 205.413 164.428C206.158 174.099 196.967 248.805 196.967 248.805L181.362 245.635L182.941 164.428L180.841 141.845" stroke="#424849" stroke-miterlimit="10"/>
<path d="M105.898 92.1367L101.981 93.3716L93.6754 102.453L87.1238 118.325L92.0873 120.309L105.389 122.095L105.898 92.1367Z" fill="white"/>
<path d="M147.55 32.7215C147.55 32.7215 157.37 29.8384 155.378 38.0568C152.951 48.0678 143.818 44.8698 143.818 44.8698" fill="#FAA688"/>
<path d="M147.55 32.7215C147.55 32.7215 157.37 29.8384 155.378 38.0568C152.951 48.0678 143.818 44.8698 143.818 44.8698" stroke="#424849" stroke-miterlimit="10"/>
<path d="M147.541 39.2107L151.959 35.937L147.541 39.2107Z" fill="#FAA688"/>
<path d="M147.541 39.2107L151.959 35.937" stroke="#424849" stroke-miterlimit="10"/>
<path d="M149.144 38.023L151.164 39.2109L149.144 38.023Z" fill="#FAA688"/>
<path d="M149.144 38.023L151.164 39.2109" stroke="#424849" stroke-miterlimit="10"/>
<path d="M177.247 163.275L179.514 119.339L181.781 147.527L177.247 163.275Z" fill="#424849"/>
<path d="M135.475 62.1798H119.065V53.3916H135.475V62.1798Z" fill="#FAA688"/>
<path d="M128.813 59.7504C128.813 59.7504 133.961 62.9418 137.584 59.7504C141.207 56.5589 138.394 52.2718 138.394 52.2718L128.813 59.7504Z" fill="white"/>
<path d="M128.813 59.7504C128.813 59.7504 133.961 62.9418 137.584 59.7504C141.207 56.5589 138.394 52.2718 138.394 52.2718L128.813 59.7504Z" stroke="#424849" stroke-miterlimit="10"/>
<path d="M86.5278 164.681L92.3005 163.828L86.5278 164.681Z" fill="white"/>
<path d="M86.5278 164.681L92.3005 163.828" stroke="#424849" stroke-miterlimit="10"/>
<path d="M164.67 143.829L170.331 196.838L164.67 143.829Z" fill="white"/>
<path d="M164.67 143.829L170.331 196.838" stroke="#424849" stroke-miterlimit="10"/>
<path d="M157.736 81.689C157.736 81.689 156.353 83.007 153.815 83.5249L157.736 81.689Z" fill="white"/>
<path d="M157.736 81.689C157.736 81.689 156.353 83.007 153.815 83.5249" stroke="#424849" stroke-miterlimit="10"/>
<path d="M193.554 164.254L186.554 165.924L194.352 168.925" fill="white"/>
<path d="M193.554 164.254L186.554 165.924L194.352 168.925" stroke="#424849" stroke-miterlimit="10"/>
</g>
<defs>
<clipPath id="clip0_686_7381">
<rect width="206" height="496" fill="white"/>
</clipPath>
</defs>
</svg>
