<svg width="213" height="372" viewBox="0 0 213 372" fill="none" xmlns="http://www.w3.org/2000/svg">
<g clip-path="url(#clip0_991_13124)">
<circle cx="106.5" cy="265.5" r="106.5" fill="#DBDBE1"/>
<path d="M145.245 172.234L140.415 164.641L142.01 158.018L131.694 143.842L141.765 138.397L147.378 136.688L150.766 147.608C150.766 147.608 148.382 135.056 150.766 134.428C153.151 133.801 155.535 148.863 155.535 148.863V165.746L158.171 176.534L151.143 180.04L145.245 172.234Z" fill="#FAA688"/>
<path d="M145.245 172.234L140.415 164.641L142.01 158.018L131.694 143.842L141.765 138.397L147.378 136.688L150.766 147.608C150.766 147.608 148.382 135.056 150.766 134.428C153.151 133.801 155.535 148.863 155.535 148.863V165.746L158.171 176.534L151.143 180.04L145.245 172.234Z" stroke="#424849" stroke-miterlimit="10"/>
<path d="M160.305 167.147L142.01 173.783L174.008 256.06L133.155 242.587L125.938 264.576L139.134 285.934C139.134 285.934 196.245 286.535 203.248 272.428C210.253 258.319 160.305 167.147 160.305 167.147Z" fill="#80D731"/>
<path d="M160.305 167.147L142.01 173.783L174.008 256.06L133.155 242.587L125.938 264.576L139.134 285.934C139.134 285.934 196.245 286.535 203.248 272.428C210.253 258.319 160.305 167.147 160.305 167.147Z" stroke="#424849" stroke-miterlimit="10"/>
<path d="M24.2094 370.353L128.775 378.844L136.531 317.098L121.15 235.709L111.527 220.849L99.8126 223.832L75.0942 211.298L71.9136 226.878L48.1244 232.722L16.8752 330.974L24.2094 370.353Z" fill="white"/>
<path d="M24.2095 370.353L128.775 378.844L136.531 317.098L121.15 235.709L111.527 220.849L99.8126 223.832L75.0942 211.298L71.9136 226.878L48.1244 232.722L16.8752 330.974L24.2095 370.353Z" stroke="#424849" stroke-miterlimit="10"/>
<path d="M124.743 381.709L119.57 234.69L137.789 242.847L141.766 261.18L145.659 381.709H124.743Z" fill="#80D731"/>
<path d="M124.743 381.709L119.57 234.69L137.789 242.847L141.766 261.18L145.659 381.709H124.743Z" stroke="#424849" stroke-miterlimit="10"/>
<path d="M75.0937 210.628L84.367 165.441C84.367 165.441 84.9339 123.719 106.778 128.541C128.621 133.361 140.366 150.403 137.298 159.132C134.231 167.861 133.868 208.198 118.868 207.848C116.098 207.784 114.655 210.14 114.655 210.14L111.526 220.181L99.8121 223.163L75.0937 210.628Z" fill="#FAA688"/>
<path d="M75.0936 211.298L84.3669 166.111C84.3669 166.111 84.9338 124.388 106.778 129.209C128.62 134.031 144.452 152.018 141.385 160.747C138.316 169.476 136.418 211.53 121.418 211.18C118.648 211.116 114.655 210.81 114.655 210.81L111.526 220.85L99.812 223.833L75.0936 211.298Z" stroke="#424849" stroke-miterlimit="10"/>
<path d="M133.456 124.48C133.456 124.48 141.323 116.4 149.559 125.782C157.794 135.164 145.313 140.782 145.313 140.782C145.313 140.782 153.15 145.028 153.66 151.141C154.169 157.254 146.735 163.427 133.983 160.201C121.23 156.974 119.569 146.386 119.569 146.386L133.456 124.48Z" fill="#30B0FB"/>
<path d="M133.456 124.48C133.456 124.48 141.323 116.4 149.559 125.782C157.794 135.164 145.313 140.782 145.313 140.782C145.313 140.782 153.15 145.028 153.66 151.141C154.169 157.254 146.735 163.427 133.983 160.201C121.23 156.974 119.569 146.386 119.569 146.386L133.456 124.48Z" stroke="#424849" stroke-miterlimit="10"/>
<path d="M111.443 126.518C112.122 126.518 134.589 110.532 140.447 121.593C146.304 132.654 133.909 133.933 132.55 133.933C131.192 133.933 138.556 137.365 136.066 142.346C133.576 147.328 131.192 145.933 131.192 145.933C131.192 145.933 140.031 149.597 135.297 153.094C130.527 156.617 107.178 154.55 106.744 153.179L100.988 175.142L96.1045 173.783C96.1045 173.783 99.4996 162.462 96.1045 160.877C92.7086 159.292 87.5018 182.387 87.5018 182.387L78.0409 180.039C78.0409 180.039 77.0898 142.99 82.7485 133.481C88.4081 123.971 93.8735 127.367 93.8735 127.367C93.8735 127.367 91.4883 119.326 100.408 118.622C106.859 118.113 111.443 126.518 111.443 126.518Z" fill="#30B0FB"/>
<path d="M111.443 126.518C112.122 126.518 134.589 110.532 140.447 121.593C146.304 132.654 133.909 133.933 132.55 133.933C131.192 133.933 138.556 137.365 136.066 142.346C133.576 147.328 131.192 145.933 131.192 145.933C131.192 145.933 140.031 149.597 135.297 153.094C130.527 156.617 107.178 154.55 106.744 153.179L100.988 175.142L96.1045 173.783C96.1045 173.783 99.4996 162.462 96.1045 160.877C92.7086 159.292 87.5018 182.387 87.5018 182.387L78.0409 180.039C78.0409 180.039 77.0898 142.99 82.7485 133.481C88.4081 123.971 93.8735 127.367 93.8735 127.367C93.8735 127.367 91.4883 119.326 100.408 118.622C106.859 118.113 111.443 126.518 111.443 126.518Z" stroke="#424849" stroke-miterlimit="10"/>
<path d="M125.101 173.783C125.101 173.783 131.396 184.085 127.867 185.898C124.337 187.71 119.569 182.75 119.569 182.75" fill="#FAA688"/>
<path d="M125.101 173.783C125.101 173.783 131.396 184.085 127.867 185.898C124.337 187.71 119.569 182.75 119.569 182.75" stroke="#424849" stroke-miterlimit="10"/>
<path d="M118.076 166.677C118.335 167.406 117.956 168.207 117.226 168.467C116.498 168.727 115.696 168.347 115.437 167.618C115.177 166.889 115.557 166.087 116.286 165.828C117.014 165.568 117.816 165.948 118.076 166.677Z" fill="#424849"/>
<path d="M133.073 169.48C133.332 170.208 132.953 171.01 132.224 171.27C131.495 171.529 130.693 171.149 130.434 170.42C130.174 169.692 130.555 168.89 131.283 168.63C132.012 168.371 132.813 168.75 133.073 169.48Z" fill="#424849"/>
<path d="M118.754 204.254C118.754 204.254 124.116 192.009 119.625 191.374C115.135 190.738 109.293 201.743 109.293 201.743L118.754 204.254Z" fill="white"/>
<path d="M118.754 204.254C118.754 204.254 124.116 192.009 119.625 191.374C115.135 190.738 109.293 201.743 109.293 201.743L118.754 204.254Z" stroke="#424849" stroke-miterlimit="10"/>
<path d="M119.162 157.46L115.093 159.586L111.554 161.435L112.238 162.95L116.21 161.131L120.02 159.386L119.162 157.46Z" fill="#424849"/>
<path d="M129.797 161.825L136.726 166.894L137.781 165.609L131.144 160.205L129.797 161.825Z" fill="#424849"/>
<path d="M114.655 210.81C114.655 210.81 106.744 204.52 99.4997 201.915L113.119 214.749L114.655 210.81Z" fill="#424849"/>
<path d="M114.655 210.81C114.655 210.81 106.744 204.52 99.4997 201.915L113.119 214.749L114.655 210.81Z" stroke="#424849" stroke-miterlimit="10"/>
<path d="M119.569 234.537L109.516 234.375L94.3786 235.652L78.0411 227.728" stroke="#424849" stroke-miterlimit="10"/>
<path d="M89.5742 314.058L78.2445 381.709H9.26918L14.0266 273.99L19.3663 231.41L73.1062 221.657L89.5742 314.058Z" fill="#80D731"/>
<path d="M89.5742 314.058L78.2445 381.709H9.26918L14.0266 273.99L19.3663 231.41L73.1062 221.657L89.5742 314.058Z" stroke="#424849" stroke-miterlimit="10"/>
<path d="M124.256 129.405L138.512 125.782V145.367L139.135 158.019L127.263 153.009L126.414 144.688L124.256 129.405Z" fill="#30B0FB"/>
<path d="M71.4437 213.123L66.5061 264.456L79.0251 266.848L68.8415 277.556L89.5742 314.058L89.0048 255.859L75.0941 211.298L71.4437 213.123Z" fill="#80D731"/>
<path d="M71.4437 213.123L66.5061 264.456L79.0251 266.848L68.8415 277.556L89.5742 314.058L89.0048 255.859L75.0941 211.298L71.4437 213.123Z" stroke="#424849" stroke-miterlimit="10"/>
<path d="M121.213 234.842L132.808 261.918L125.365 268.048L133.43 273.067L122.993 330.468L119.57 234.536L121.213 234.842Z" fill="#80D731"/>
<path d="M121.213 234.842L132.808 261.918L125.365 268.048L133.43 273.067L122.993 330.468L119.57 234.536L121.213 234.842Z" stroke="#424849" stroke-miterlimit="10"/>
<path d="M95.7441 163.817C95.7441 163.817 87.6512 156.747 85.961 165.295C83.9013 175.705 93.9952 176.802 93.9952 176.802" fill="#FAA688"/>
<path d="M95.7441 163.817C95.7441 163.817 87.6512 156.747 85.961 165.295C83.9013 175.705 93.9952 176.802 93.9952 176.802" stroke="#424849" stroke-miterlimit="10"/>
<path d="M92.9209 169.867L90.1425 164.846L92.9209 169.867Z" fill="#FAA688"/>
<path d="M92.9209 169.867L90.1425 164.846" stroke="#424849" stroke-miterlimit="10"/>
<path d="M91.9121 168.045L89.4698 168.25L91.9121 168.045Z" fill="#FAA688"/>
<path d="M91.9121 168.045L89.4698 168.25" stroke="#424849" stroke-miterlimit="10"/>
<path d="M86.3983 164.312L81.1793 155.955C81.1793 155.955 75.8297 144.277 78.4808 141.166C79.7305 139.7 79.7012 141.272 81.1328 142.797C82.7381 144.507 83.5628 146.29 83.5628 146.29C83.5628 146.29 85.5239 140.297 87.8609 134.304C88.2223 133.376 88.5927 132.449 88.9663 131.544C89.3546 130.605 89.7461 129.688 90.1344 128.822C91.7895 125.126 93.3875 122.315 94.4186 122.315C97.2566 122.315 91.8466 133.769 94.262 133.926C94.9725 133.972 95.8984 129.723 96.5102 126.478C97.1008 123.346 103.649 122.043 105.575 123.873C106.69 124.933 101.874 125.291 100.664 128.785C100.004 130.694 99.2225 133.806 99.4077 133.863C99.8155 133.988 102.168 129.533 105.128 126.855C107.763 124.47 116.439 122.566 116.757 123.173C117.006 123.647 113.588 125.645 110.412 128.491C107.769 130.861 105.286 133.17 105.202 133.949C104.845 137.258 100.646 174.425 100.646 174.425L84.7155 176.535L86.3983 164.312Z" fill="#FAA688"/>
<path d="M86.3983 164.312L81.1793 155.955C81.1793 155.955 75.8297 144.277 78.4808 141.166C79.7305 139.7 79.7012 141.272 81.1328 142.797C82.7381 144.507 83.5628 146.29 83.5628 146.29C83.5628 146.29 85.5239 140.297 87.8609 134.304C88.2223 133.376 88.5927 132.449 88.9663 131.544C89.3546 130.605 89.7461 129.688 90.1344 128.822C91.7895 125.126 93.3875 122.315 94.4186 122.315C97.2566 122.315 91.8466 133.769 94.262 133.926C94.9725 133.972 95.8984 129.723 96.5102 126.478C97.1008 123.346 103.649 122.043 105.575 123.873C106.69 124.933 101.874 125.291 100.664 128.785C100.004 130.694 99.2225 133.806 99.4077 133.863C99.8155 133.988 102.168 129.533 105.128 126.855C107.763 124.47 116.439 122.566 116.757 123.173C117.006 123.647 113.588 125.645 110.412 128.491C107.769 130.861 105.286 133.17 105.202 133.949C104.845 137.258 100.646 174.425 100.646 174.425L84.7155 176.535L86.3983 164.312Z" stroke="#424849" stroke-miterlimit="10"/>
<path d="M94.3786 235.652L99.8122 223.833L109.516 234.375L106.288 244.2L119.569 356.328L110.466 365.421L94.408 350.854L101.587 244.313L94.3786 235.652Z" fill="#80D731"/>
<path d="M94.3786 235.652L99.8122 223.833L109.516 234.375L106.288 244.2L119.569 356.328L110.466 365.421L94.408 350.854L101.587 244.313L94.3786 235.652Z" stroke="#424849" stroke-miterlimit="10"/>
<path d="M60.9043 319.596L60.2028 348.787L33.2076 347.768" fill="#80D731"/>
<path d="M60.9043 319.596L60.2028 348.787L33.2076 347.768" stroke="#424849" stroke-miterlimit="10"/>
<path d="M13.8544 277.885L103.33 264.345L109.293 251.496L101.75 172.234H80.7406L75.0941 238.403C75.0941 238.403 22.9866 224.043 15.3807 233.296C7.77559 242.55 13.8544 277.885 13.8544 277.885Z" fill="#80D731"/>
<path d="M13.8544 277.885L103.33 264.345L109.293 251.496L101.75 172.234H80.7406L75.0941 238.403C75.0941 238.403 22.9866 224.043 15.3807 233.296C7.77559 242.55 13.8544 277.885 13.8544 277.885Z" stroke="#424849" stroke-miterlimit="10"/>
<path d="M74.1508 248.623L75.0938 238.403L74.1508 248.623Z" fill="#80D731"/>
<path d="M74.1508 248.623L75.0938 238.403" stroke="#424849" stroke-miterlimit="10"/>
<path d="M146.751 250.286L133.43 245.766L137.781 268.612L139.221 283.312L151.771 281.164L146.751 250.286Z" fill="#80D731"/>
</g>
<defs>
<clipPath id="clip0_991_13124">
<rect width="213" height="372" rx="106.5" fill="white"/>
</clipPath>
</defs>
</svg>
