<svg width="213" height="372" viewBox="0 0 213 372" fill="none" xmlns="http://www.w3.org/2000/svg">
<g clip-path="url(#clip0_991_13024)">
<circle cx="106.5" cy="265.5" r="106.5" fill="#DBDBE1"/>
<g clip-path="url(#clip1_991_13024)">
<path d="M150.93 213.442L162.782 217.418C162.782 217.418 168.778 224.75 171.133 229.144C179.17 244.141 173.036 301.433 173.036 301.433L171.112 384.969L147.779 383.931L150.93 213.442Z" fill="white"/>
<path d="M150.93 213.442L162.782 217.418C162.782 217.418 168.778 224.75 171.133 229.144C179.17 244.141 173.036 301.433 173.036 301.433L171.112 384.969L147.779 383.931L150.93 213.442Z" stroke="#424849" stroke-miterlimit="10"/>
<path d="M132.757 207.122L151.577 213.699L166.925 353.121L63.1157 352.862L66.7417 311.345L52.1084 260.487L65.6073 209.592L73.0274 207.321L83.0203 207.122H132.757Z" fill="white"/>
<path d="M132.757 207.122L151.577 213.699L166.925 353.121L63.1157 352.862L66.7417 311.345L52.1084 260.487L65.6073 209.592L73.0274 207.321L83.0203 207.122H132.757Z" stroke="#424849" stroke-miterlimit="10"/>
<path d="M167.592 353.12L191.819 537.373L168.415 670.355H139.58L150.068 529.969L119.973 394.011H118.314L86.3913 670.355H66.8995L61.8936 353.12H167.592Z" fill="#30B0FB"/>
<path d="M167.592 353.12L191.819 537.373L168.415 670.355H139.58L150.068 529.969L119.973 394.011H118.314L86.3913 670.355H66.8995L61.8936 353.12H167.592Z" stroke="#424849" stroke-miterlimit="10"/>
<path d="M128.048 189.165L125.705 203.826L90.5542 200.453C90.5542 200.453 93.7212 190.822 94.8499 184.193C98.2917 163.971 81.741 157.455 83.9001 139.214C86.0593 120.973 93.5663 110.763 108.789 105.366C132.212 97.0623 144.718 111.956 148.706 124.441C152.693 136.924 141.034 186.046 137.436 188.206C133.838 190.366 128.048 189.165 128.048 189.165Z" fill="white"/>
<path d="M128.048 189.165L125.705 203.826L90.5542 200.453C90.5542 200.453 93.7212 190.822 94.8499 184.193C98.2917 163.971 81.741 157.455 83.9001 139.214C86.0593 120.973 93.5663 110.763 108.789 105.366C132.212 97.0623 144.718 111.956 148.706 124.441C152.693 136.924 141.034 186.046 137.436 188.206C133.838 190.366 128.048 189.165 128.048 189.165Z" stroke="#424849" stroke-miterlimit="10"/>
<path d="M128.259 188.723L125.914 203.384L90.7644 200.01C90.7644 200.01 94.2685 190.621 95.3972 183.993C98.839 163.771 82.3422 157.485 84.5013 139.244C86.6605 121.003 93.8217 110.839 109.153 105.757C130.941 98.5373 141.307 111.576 145.294 124.06C149.281 136.544 138.096 178.1 136.116 182.662C134.137 187.223 128.259 188.723 128.259 188.723Z" fill="#FAA688"/>
<path d="M117.306 134.773L156.882 143.985C156.882 143.985 155.754 149.863 154.634 155.6C153.92 159.264 149.426 158.907 145.905 158.084C138.971 156.464 141.637 140.729 141.637 140.729L137.887 139.889C137.887 139.889 136.107 155.946 124.931 154.44C117.165 153.395 115.308 150.45 115.924 145.732C116.509 141.25 117.306 134.773 117.306 134.773Z" fill="white"/>
<path d="M113.75 134.039L156.883 143.843C156.883 143.843 155.754 149.721 154.635 155.458C153.92 159.122 148.296 158.673 144.776 157.849C134.452 155.437 138.162 140.078 138.162 140.078C138.162 140.078 136.107 155.804 124.931 154.299C117.165 153.252 111.751 149.716 112.367 144.998C112.953 140.516 113.75 134.039 113.75 134.039Z" stroke="#424849" stroke-miterlimit="10"/>
<path d="M131.45 173.384C131.45 173.384 126.031 168.555 118.021 170.674" stroke="#424849" stroke-miterlimit="10"/>
<path d="M129.606 144.202C129.281 145.459 130.036 146.742 131.293 147.066C132.551 147.391 133.834 146.636 134.158 145.379C134.484 144.121 133.429 143.994 132.172 143.669C130.915 143.344 129.931 142.944 129.606 144.202Z" fill="#424849"/>
<path d="M94.2223 150.028C92.1312 146.891 93.2419 142.186 96.7706 141.01C100.299 139.834 112.473 133.778 112.473 133.778L114.695 134.253" stroke="#424849" stroke-miterlimit="10"/>
<path d="M127.944 193.534L112.067 186.103L128.776 188.768L127.944 193.534Z" fill="#424849"/>
<path d="M137.138 146.037L135.214 156.959L141.889 160.043L134.947 165.576" stroke="#424849" stroke-miterlimit="10"/>
<path d="M149.662 147.943C149.338 149.194 150.091 150.47 151.341 150.793C152.592 151.116 153.867 150.364 154.191 149.114C154.514 147.863 153.465 147.738 152.214 147.414C150.964 147.091 149.985 146.693 149.662 147.943Z" fill="#424849"/>
<path d="M129.037 201.064C129.037 201.064 95.437 200.344 90.2186 194.225C83.0205 196.204 86.979 201.064 86.979 201.064L83.0205 207.122H132.346C132.346 207.122 128.266 206.642 129.037 205.203C129.808 203.763 129.037 201.064 129.037 201.064Z" fill="#FDFDFD"/>
<path d="M129.037 201.064C129.037 201.064 95.437 200.344 90.2186 194.225C83.0205 196.204 86.979 201.064 86.979 201.064L83.0205 207.122H132.346C132.346 207.122 128.266 206.642 129.037 205.203C129.808 203.763 129.037 201.064 129.037 201.064Z" stroke="#424849" stroke-miterlimit="10"/>
<path d="M73.0277 207.32C73.0277 207.32 62.1856 209.268 52.1086 217.365C42.0317 225.463 21.0975 280.521 20.1974 292.219C19.2973 303.916 26.554 318.548 26.554 318.548L60.597 392.066L76.4628 382.224L69.4461 368.818L46.5899 297.437L58.2555 274.83" fill="white"/>
<path d="M73.0277 207.32C73.0277 207.32 62.1856 209.268 52.1086 217.365C42.0317 225.463 21.0975 280.521 20.1974 292.219C19.2973 303.916 26.554 318.548 26.554 318.548L60.597 392.066L76.4628 382.224L69.4461 368.818L46.5899 297.437L58.2555 274.83" stroke="#424849" stroke-miterlimit="10"/>
<path d="M58.5889 374.577L69.446 368.818L58.5889 374.577Z" fill="white"/>
<path d="M58.5889 374.577L69.446 368.818" stroke="#424849" stroke-miterlimit="10"/>
<path d="M149.628 213.699L154.361 215.192L164.399 226.175L172.316 245.37L166.318 247.77L150.242 249.929L149.628 213.699Z" fill="white"/>
<path d="M99.2895 141.844C99.2895 141.844 87.4226 138.356 89.8302 148.296C92.7629 160.403 103.8 156.535 103.8 156.535" fill="#FAA688"/>
<path d="M99.2895 141.844C99.2895 141.844 87.4226 138.356 89.8302 148.296C92.7629 160.403 103.8 156.535 103.8 156.535" stroke="#424849" stroke-miterlimit="10"/>
<path d="M99.3013 149.691L93.9629 145.732L99.3013 149.691Z" fill="#FAA688"/>
<path d="M99.3013 149.691L93.9629 145.732" stroke="#424849" stroke-miterlimit="10"/>
<path d="M97.3644 148.254L94.9229 149.691L97.3644 148.254Z" fill="#FAA688"/>
<path d="M97.3644 148.254L94.9229 149.691" stroke="#424849" stroke-miterlimit="10"/>
<path d="M61.8938 293.239L73.1051 242.792L56.5195 276.743L61.8938 293.239Z" fill="#424849"/>
<path d="M74.5283 282.109L80.4712 345.755L74.5283 282.109Z" fill="white"/>
<path d="M74.5283 282.109L80.4712 345.755" stroke="#424849" stroke-miterlimit="10"/>
<path d="M86.9795 201.064C86.9795 201.064 90.2891 204.041 94.0227 204.536L86.9795 201.064Z" fill="white"/>
<path d="M86.9795 201.064C86.9795 201.064 90.2891 204.041 94.0227 204.536" stroke="#424849" stroke-miterlimit="10"/>
<path d="M42.4086 294.755L34.8506 297.634L43.3087 301.953" fill="white"/>
<path d="M42.4086 294.755L34.8506 297.634L43.3087 301.953" stroke="#424849" stroke-miterlimit="10"/>
</g>
</g>
<defs>
<clipPath id="clip0_991_13024">
<rect width="213" height="372" rx="106.5" fill="white"/>
</clipPath>
<clipPath id="clip1_991_13024">
<rect width="219" height="270" fill="white" transform="translate(19 102)"/>
</clipPath>
</defs>
</svg>
