<svg width="149" height="147" viewBox="0 0 149 147" fill="none" xmlns="http://www.w3.org/2000/svg">
<g clip-path="url(#clip0_731_6921)">
<path d="M21.9881 55.5148L22.067 56.0137C22.1339 56.4364 22.205 56.8585 22.2804 57.2799C23.6928 65.4113 26.1278 73.1468 29.4294 80.3504C29.4702 80.4441 29.5103 80.5326 29.5554 80.6256C30.2558 82.1441 31 83.638 31.7799 85.1097C33.8852 89.0879 36.2658 92.8848 38.8912 96.473C56.5995 120.682 85.4735 135.449 116.925 133.143C150.427 130.684 178.22 109.483 191.376 80.192C197.543 66.4627 200.495 50.9634 199.31 34.7751C199.149 32.5212 198.905 30.2892 198.591 28.0855C192.307 -15.5846 156.714 -48.5076 114.324 -50.6411C110.762 -50.8228 107.152 -50.7847 103.504 -50.5153C59.9984 -47.3285 26.1217 -12.5277 21.4248 30.5526C21.4159 30.606 21.4108 30.6588 21.4073 30.7157C20.802 36.3019 20.6932 42.0348 21.1181 47.848C21.311 50.4392 21.6022 52.9932 21.9881 55.5148Z" fill="#DDDDDD"/>
<path d="M21.9881 55.5148L22.067 56.0137C22.1339 56.4364 22.205 56.8585 22.2804 57.2799C23.6928 65.4113 26.1278 73.1468 29.4294 80.3504C29.4702 80.4441 29.5103 80.5326 29.5554 80.6256C30.2558 82.1441 31 83.638 31.7799 85.1097C33.8852 89.0879 36.2658 92.8848 38.8912 96.473C56.5995 120.682 85.4735 135.449 116.925 133.143C150.427 130.684 178.22 109.483 191.376 80.192C197.543 66.4627 200.495 50.9634 199.31 34.7751C199.149 32.5212 198.905 30.2892 198.591 28.0855C192.307 -15.5846 156.714 -48.5076 114.324 -50.6411C110.762 -50.8228 107.152 -50.7847 103.504 -50.5153C59.9984 -47.3285 26.1217 -12.5277 21.4248 30.5526C21.4159 30.606 21.4108 30.6588 21.4073 30.7157C20.802 36.3019 20.6932 42.0348 21.1181 47.848C21.311 50.4392 21.6022 52.9932 21.9881 55.5148Z" stroke="black" stroke-width="2.32147" stroke-miterlimit="10"/>
<path d="M141.5 104.359C161.265 102.909 178.718 93.8639 191.376 80.1916C197.543 66.4627 200.495 50.963 199.31 34.7746C199.149 32.5212 198.904 30.2888 198.591 28.0851C192.307 -15.585 156.714 -48.508 114.324 -50.6415C80.1449 -40.6102 56.3883 -6.95557 59.1637 31.0555C62.3476 74.6401 99.2131 107.461 141.5 104.359Z" fill="white"/>
<path d="M210.854 35.4832L199.811 37.2304L199.573 37.2679L171.698 41.6781L31.9461 63.7886L31.7085 63.8261" stroke="#424849" stroke-width="2.32147" stroke-miterlimit="10"/>
<path d="M22.2805 57.28C23.6928 65.4114 26.1279 73.1473 29.4295 80.351C29.4703 80.4442 29.5104 80.5332 29.5555 80.6257C30.2559 82.1443 30.9998 83.6386 31.7795 85.1099C53.2917 103.997 81.7939 115.899 102.957 112.55C152.987 104.635 179.598 40.429 179.598 40.429C179.598 40.429 130.26 -8.66265 80.2309 -0.7474C54.2569 3.36199 34.7579 39.2594 22.2805 57.28Z" fill="white"/>
<path d="M22.2805 57.28C23.6928 65.4114 26.1279 73.1473 29.4295 80.351C29.4703 80.4442 29.5104 80.5332 29.5555 80.6257C30.2559 82.1443 30.9998 83.6386 31.7795 85.1099C53.2917 103.997 81.7939 115.899 102.957 112.55C152.987 104.635 179.598 40.429 179.598 40.429C179.598 40.429 130.26 -8.66265 80.2309 -0.747405C54.2569 3.36198 34.7579 39.2594 22.2805 57.28Z" stroke="#424849" stroke-width="2.32147" stroke-miterlimit="10"/>
<path d="M54.439 54.9851C57.4752 74.1758 75.5212 87.2667 94.7456 84.2251C113.971 81.1835 127.094 63.1612 124.058 43.9709C121.022 24.7799 102.976 11.6889 83.7507 14.7306C64.5262 17.7717 51.4028 35.7945 54.439 54.9851Z" fill="#80D731"/>
<path d="M48.3667 55.9451C51.4029 75.1357 69.4489 88.2266 88.6738 85.185C107.899 82.1434 121.022 64.1211 117.986 44.9309C114.95 25.7398 96.9042 12.6489 77.6789 15.6905C58.454 18.7317 45.3305 36.7545 48.3667 55.9451Z" stroke="#424849" stroke-width="2.32147" stroke-miterlimit="10"/>
<path d="M67.8245 52.8665C69.6931 64.6771 80.7997 72.735 92.6322 70.863C104.464 68.9911 112.541 57.8981 110.672 46.0875C108.804 34.2769 97.6968 26.2195 85.8652 28.0914C74.0327 29.9634 65.9559 41.056 67.8245 52.8665Z" fill="#424849"/>
<path d="M106.957 38.5304C107.651 42.9186 104.65 47.0404 100.253 47.736C95.8569 48.4316 91.7302 45.4375 91.0359 41.0493C90.3415 36.6603 93.3425 32.5389 97.739 31.8433C102.136 31.1477 106.263 34.1414 106.957 38.5304Z" fill="white"/>
<path d="M109.474 33.535C109.921 36.3615 107.988 39.0151 105.157 39.4631C102.326 39.9109 99.6689 37.9835 99.2217 35.157C98.7746 32.3308 100.707 29.6768 103.538 29.2289C106.369 28.781 109.026 30.7088 109.474 33.535Z" fill="white"/>
<path d="M80.6425 59.6717C80.8872 61.2186 79.8296 62.6716 78.2795 62.9169C76.7299 63.162 75.2753 62.1065 75.0306 60.5596C74.7858 59.0127 75.8435 57.5597 77.3932 57.3145C78.9432 57.0692 80.3978 58.1248 80.6425 59.6717Z" fill="white"/>
</g>
<defs>
<clipPath id="clip0_731_6921">
<rect width="190.378" height="224.708" fill="white" transform="matrix(-0.987715 0.156268 0.156268 0.987715 188.817 -105.052)"/>
</clipPath>
</defs>
</svg>
