<svg width="134" height="37" viewBox="0 0 134 37" fill="none" xmlns="http://www.w3.org/2000/svg">
<path d="M68.708 29.903C66.9873 29.903 65.5285 29.6136 64.3315 29.0348C63.1345 28.4373 62.1152 27.6718 61.2736 26.7382L64.079 23.9096C65.4069 25.4033 67.0434 26.1501 68.9886 26.1501C70.0359 26.1501 70.8121 25.9354 71.3171 25.5059C71.8221 25.0765 72.0746 24.507 72.0746 23.7975C72.0746 23.2561 71.9249 22.808 71.6257 22.4532C71.3264 22.0798 70.7186 21.8277 69.8021 21.697L67.8664 21.445C65.7903 21.1836 64.266 20.5581 63.2935 19.5685C62.3396 18.5789 61.8627 17.2626 61.8627 15.6195C61.8627 14.742 62.031 13.9391 62.3677 13.211C62.7043 12.4828 63.1813 11.8573 63.7985 11.3345C64.4344 10.8117 65.2012 10.4103 66.0989 10.1302C67.0154 9.83148 68.0534 9.68211 69.213 9.68211C70.6905 9.68211 71.9904 9.9155 73.1126 10.3823C74.2348 10.8491 75.198 11.5306 76.0022 12.4268L73.1687 15.2835C72.7011 14.742 72.1307 14.3032 71.4574 13.9671C70.8028 13.6124 69.9705 13.435 68.9605 13.435C68.0066 13.435 67.2959 13.6031 66.8284 13.9391C66.3608 14.2752 66.127 14.742 66.127 15.3395C66.127 16.0116 66.3047 16.4971 66.66 16.7958C67.0341 17.0946 67.6326 17.3093 68.4555 17.44L70.3913 17.7481C72.4112 18.0655 73.9075 18.691 74.88 19.6245C75.8526 20.5394 76.3388 21.8464 76.3388 23.5455C76.3388 24.479 76.1705 25.3379 75.8339 26.1221C75.4972 26.9063 75.0016 27.5784 74.347 28.1386C73.7111 28.6987 72.9162 29.1375 71.9623 29.4549C71.0085 29.7536 69.9237 29.903 68.708 29.903Z" fill="#1B1128"/>
<path d="M82.0065 13.295C81.1649 13.295 80.5477 13.1083 80.1549 12.7348C79.7809 12.3428 79.5938 11.848 79.5938 11.2505V10.6343C79.5938 10.0369 79.7809 9.55141 80.1549 9.17799C80.5477 8.78589 81.1649 8.58984 82.0065 8.58984C82.8482 8.58984 83.456 8.78589 83.8301 9.17799C84.2228 9.55141 84.4192 10.0369 84.4192 10.6343V11.2505C84.4192 11.848 84.2228 12.3428 83.8301 12.7348C83.456 13.1083 82.8482 13.295 82.0065 13.295ZM79.9305 14.8634H84.0826V29.5669H79.9305V14.8634Z" fill="#1B1128"/>
<path d="M101.873 30.6312C101.873 31.4154 101.733 32.1062 101.452 32.7037C101.19 33.3012 100.751 33.8053 100.133 34.2161C99.5163 34.6455 98.6933 34.9629 97.6647 35.1683C96.6547 35.3923 95.4016 35.5044 93.9054 35.5044C92.6336 35.5044 91.5488 35.4204 90.651 35.2523C89.772 35.1029 89.0519 34.8789 88.4908 34.5801C87.9485 34.3001 87.5463 33.9453 87.2845 33.5159C87.0414 33.1051 86.9198 32.629 86.9198 32.0875C86.9198 31.266 87.1629 30.6219 87.6492 30.1551C88.1355 29.6883 88.8088 29.3989 89.6691 29.2869V28.9788C88.9584 28.8481 88.4254 28.5494 88.07 28.0826C87.7147 27.5971 87.537 27.037 87.537 26.4022C87.537 26.0101 87.6118 25.674 87.7614 25.3939C87.9298 25.0952 88.1355 24.8431 88.3786 24.6377C88.6405 24.4137 88.9397 24.2363 89.2764 24.1056C89.613 23.9749 89.9497 23.8722 90.2863 23.7975V23.6855C89.3886 23.2747 88.7246 22.7146 88.2945 22.0051C87.8643 21.2769 87.6492 20.4367 87.6492 19.4845C87.6492 17.9908 88.1635 16.7958 89.1922 15.8996C90.2396 14.9847 91.8293 14.5273 93.9615 14.5273C94.934 14.5273 95.7663 14.6206 96.4583 14.8074V14.2472C96.4583 13.463 96.6454 12.9029 97.0194 12.5668C97.4122 12.2121 97.9639 12.0347 98.6746 12.0347H101.003V15.1154H97.7488V15.2835C98.6092 15.6942 99.2451 16.2637 99.6566 16.9919C100.068 17.7014 100.274 18.5323 100.274 19.4845C100.274 20.9595 99.7501 22.1451 98.7027 23.0413C97.674 23.9189 96.0936 24.3577 93.9615 24.3577C93.0076 24.3577 92.1379 24.255 91.3524 24.0496C90.9222 24.3297 90.7071 24.7218 90.7071 25.2259C90.7071 25.5806 90.8381 25.8607 91.0999 26.0661C91.3805 26.2528 91.8387 26.3462 92.4746 26.3462H96.7389C98.5344 26.3462 99.8342 26.7196 100.638 27.4664C101.461 28.2133 101.873 29.2682 101.873 30.6312ZM97.9733 31.1913C97.9733 30.7619 97.8049 30.4351 97.4683 30.2111C97.1316 29.987 96.5425 29.875 95.7009 29.875H90.651C90.464 30.0617 90.3237 30.2671 90.2302 30.4912C90.1554 30.7339 90.118 30.9673 90.118 31.1913C90.118 31.7328 90.3518 32.1249 90.8194 32.3676C91.2869 32.629 92.0818 32.7597 93.204 32.7597H94.8873C96.0095 32.7597 96.8043 32.629 97.2719 32.3676C97.7395 32.1249 97.9733 31.7328 97.9733 31.1913ZM93.9615 21.641C94.7844 21.641 95.3923 21.473 95.785 21.1369C96.1965 20.7821 96.4022 20.278 96.4022 19.6245V19.2884C96.4022 18.6349 96.1965 18.1402 95.785 17.8041C95.3923 17.4493 94.7844 17.2719 93.9615 17.2719C93.1385 17.2719 92.5213 17.4493 92.1099 17.8041C91.7171 18.1402 91.5207 18.6349 91.5207 19.2884V19.6245C91.5207 20.278 91.7171 20.7821 92.1099 21.1369C92.5213 21.473 93.1385 21.641 93.9615 21.641Z" fill="#1B1128"/>
<path d="M103.998 8.8419H108.15V17.356H108.319C108.58 16.5905 109.039 15.9276 109.693 15.3675C110.348 14.8074 111.255 14.5273 112.415 14.5273C113.93 14.5273 115.07 15.0314 115.837 16.0397C116.623 17.0479 117.016 18.4856 117.016 20.3527V29.5669H112.863V20.6888C112.863 19.7365 112.714 19.0364 112.415 18.5883C112.115 18.1215 111.582 17.8881 110.815 17.8881C110.479 17.8881 110.152 17.9348 109.834 18.0281C109.516 18.1028 109.226 18.2335 108.964 18.4202C108.721 18.6069 108.524 18.8403 108.375 19.1204C108.225 19.3818 108.15 19.6899 108.15 20.0446V29.5669H103.998V8.8419Z" fill="#1B1128"/>
<path d="M126.153 29.5669C124.713 29.5669 123.619 29.2028 122.871 28.4747C122.141 27.7465 121.776 26.6822 121.776 25.2819V18.0841H119.7V14.8634H120.738C121.3 14.8634 121.683 14.7327 121.889 14.4713C122.094 14.1912 122.197 13.7991 122.197 13.295V10.8864H125.929V14.8634H128.846V18.0841H125.929V26.3462H128.622V29.5669H126.153Z" fill="#1B1128"/>
<path d="M58.4102 9.73511V23.7565C58.4102 24.6611 58.2578 25.4904 57.9531 26.2442C57.6674 26.9792 57.2388 27.6105 56.6674 28.1382C56.096 28.6471 55.4008 29.0523 54.5818 29.3538C53.7818 29.6365 52.8675 29.7778 51.839 29.7778C50.8486 29.7778 49.9724 29.6459 49.2105 29.3821C48.4677 29.1182 47.8201 28.7413 47.2678 28.2513C46.7344 27.7613 46.2964 27.1771 45.9535 26.4986C45.6107 25.8202 45.3726 25.0663 45.2393 24.2371L49.2962 23.4456C49.62 25.1606 50.4486 26.0181 51.7819 26.0181C52.4104 26.0181 52.9437 25.8202 53.3818 25.4244C53.8389 25.0286 54.0675 24.4067 54.0675 23.5587V13.1839H48.0106V9.73511H58.4102Z" fill="#80D731"/>
<path fill-rule="evenodd" clip-rule="evenodd" d="M35.5043 18.263C35.5043 28.0674 27.5564 36.0151 17.7524 36.0151C7.94789 36.0151 0 28.0674 0 18.2632C0 8.45863 7.94789 0.51086 17.7524 0.51086C27.5564 0.510643 35.5043 8.45863 35.5043 18.263ZM28.6779 18.2628C28.6779 24.2968 23.7864 29.1888 17.7521 29.1888C11.7182 29.1888 6.82645 24.2968 6.82645 18.2628C6.82645 17.3095 6.94857 16.3846 7.17801 15.5031C7.70986 17.8977 9.84645 19.6885 12.4016 19.6885C15.3566 19.6885 17.7521 17.2927 17.7521 14.3379C17.7521 11.3825 15.3566 8.98702 12.4016 8.98702C12.248 8.98702 12.0959 8.99349 11.9456 9.00617C13.6278 7.94869 15.6185 7.33707 17.7521 7.33707C23.7864 7.33707 28.6779 12.2289 28.6779 18.2628Z" fill="#80D731"/>
</svg>
