<svg width="20" height="20" viewBox="0 0 20 20" fill="none" xmlns="http://www.w3.org/2000/svg">
    <path d="M15.8333 6.66668H14.3249C13.9499 6.01668 13.4333 5.45835 12.8083 5.03335L13.5833 4.25835C13.9083 3.93335 13.9083 3.40835 13.5833 3.08335C13.2583 2.75835 12.7333 2.75835 12.4083 3.08335L11.1833 4.30835C10.7999 4.21668 10.4083 4.16668 9.99992 4.16668C9.59158 4.16668 9.19992 4.21668 8.82492 4.30835L7.59158 3.08335C7.26658 2.75835 6.74158 2.75835 6.41658 3.08335C6.09158 3.40835 6.09158 3.93335 6.41658 4.25835L7.18325 5.03335C6.56658 5.45835 6.04992 6.01668 5.67492 6.66668H4.16659C3.70825 6.66668 3.33325 7.04168 3.33325 7.50002C3.33325 7.95835 3.70825 8.33335 4.16659 8.33335H5.07492C5.03325 8.60835 4.99992 8.88335 4.99992 9.16668V10H4.16659C3.70825 10 3.33325 10.375 3.33325 10.8333C3.33325 11.2917 3.70825 11.6667 4.16659 11.6667H4.99992V12.5C4.99992 12.7833 5.03325 13.0583 5.07492 13.3333H4.16659C3.70825 13.3333 3.33325 13.7083 3.33325 14.1667C3.33325 14.625 3.70825 15 4.16659 15H5.67492C6.54158 16.4917 8.14992 17.5 9.99992 17.5C11.8499 17.5 13.4583 16.4917 14.3249 15H15.8333C16.2916 15 16.6666 14.625 16.6666 14.1667C16.6666 13.7083 16.2916 13.3333 15.8333 13.3333H14.9249C14.9666 13.0583 14.9999 12.7833 14.9999 12.5V11.6667H15.8333C16.2916 11.6667 16.6666 11.2917 16.6666 10.8333C16.6666 10.375 16.2916 10 15.8333 10H14.9999V9.16668C14.9999 8.88335 14.9666 8.60835 14.9249 8.33335H15.8333C16.2916 8.33335 16.6666 7.95835 16.6666 7.50002C16.6666 7.04168 16.2916 6.66668 15.8333 6.66668ZM10.8333 13.3333H9.16658C8.70825 13.3333 8.33325 12.9583 8.33325 12.5C8.33325 12.0417 8.70825 11.6667 9.16658 11.6667H10.8333C11.2916 11.6667 11.6666 12.0417 11.6666 12.5C11.6666 12.9583 11.2916 13.3333 10.8333 13.3333ZM10.8333 10H9.16658C8.70825 10 8.33325 9.62502 8.33325 9.16668C8.33325 8.70835 8.70825 8.33335 9.16658 8.33335H10.8333C11.2916 8.33335 11.6666 8.70835 11.6666 9.16668C11.6666 9.62502 11.2916 10 10.8333 10Z" fill="#6A7681"/>
</svg>
