<svg width="16" height="16" viewBox="0 0 16 16" fill="none" xmlns="http://www.w3.org/2000/svg">
  <path
    d="M8.66667 13.3333L8.66667 2.66667C8.66667 2.3 8.36667 2 8 2C7.63333 2 7.33333 2.3 7.33333 2.66667L7.33333 13.3333C7.33333 13.7 7.63333 14 8 14C8.36667 14 8.66667 13.7 8.66667 13.3333ZM4 2.66667L4 9.33333C4 9.7 4.3 10 4.66667 10C5.03333 10 5.33333 9.7 5.33333 9.33333L5.33333 2.66667C5.33333 2.3 5.03333 2 4.66667 2C4.3 2 4 2.3 4 2.66667ZM12 13.3333L12 2.66667C12 2.3 11.7 2 11.3333 2L11.3267 2C10.96 2 10.66 2.3 10.66 2.66667L10.66 13.3333C10.66 13.7 10.96 14 11.3267 14L11.3333 14C11.7 14 12 13.7 12 13.3333Z"
    fill="#6A7681" />
</svg>