<svg width="16" height="16" viewBox="0 0 16 16" fill="none" xmlns="http://www.w3.org/2000/svg">
  <g clip-path="url(#clip0_2396_693)">
    <path
      d="M10 0.666687H2.66671C1.93337 0.666687 1.33337 1.26669 1.33337 2.00002V10.6667C1.33337 11.0334 1.63337 11.3334 2.00004 11.3334C2.36671 11.3334 2.66671 11.0334 2.66671 10.6667V2.66669C2.66671 2.30002 2.96671 2.00002 3.33337 2.00002H10C10.3667 2.00002 10.6667 1.70002 10.6667 1.33335C10.6667 0.966687 10.3667 0.666687 10 0.666687ZM12.6667 3.33335H5.33337C4.60004 3.33335 4.00004 3.93335 4.00004 4.66669V14C4.00004 14.7334 4.60004 15.3334 5.33337 15.3334H12.6667C13.4 15.3334 14 14.7334 14 14V4.66669C14 3.93335 13.4 3.33335 12.6667 3.33335ZM12 14H6.00004C5.63337 14 5.33337 13.7 5.33337 13.3334V5.33335C5.33337 4.96669 5.63337 4.66669 6.00004 4.66669H12C12.3667 4.66669 12.6667 4.96669 12.6667 5.33335V13.3334C12.6667 13.7 12.3667 14 12 14Z"
      fill="#1B1128" />
  </g>
  <defs>
    <clipPath id="clip0_2396_693">
      <rect width="16" height="16" fill="white" />
    </clipPath>
  </defs>
</svg>