<svg width="16" height="16" viewBox="0 0 16 16" fill="none" xmlns="http://www.w3.org/2000/svg">
  <path
    d="M14 12.6667L14 3.33333C14 2.6 13.4 2 12.6667 2L3.33333 2C2.6 2 2 2.6 2 3.33333L2 12.6667C2 13.4 2.6 14 3.33333 14L12.6667 14C13.4 14 14 13.4 14 12.6667ZM4.66667 8.66667L4.66667 5.33333C4.66667 4.96667 4.96667 4.66667 5.33333 4.66667C5.7 4.66667 6 4.96667 6 5.33333L6 8.66667C6 9.03333 5.7 9.33333 5.33333 9.33333C4.96667 9.33333 4.66667 9.03333 4.66667 8.66667ZM7.33333 10.6667L7.33333 5.33333C7.33333 4.96667 7.63333 4.66667 8 4.66667C8.36667 4.66667 8.66667 4.96667 8.66667 5.33333L8.66667 10.6667C8.66667 11.0333 8.36667 11.3333 8 11.3333C7.63333 11.3333 7.33333 11.0333 7.33333 10.6667ZM10 10.6667L10 5.33333C10 4.96667 10.3 4.66667 10.6667 4.66667C11.0333 4.66667 11.3333 4.96667 11.3333 5.33333L11.3333 10.6667C11.3333 11.0333 11.0333 11.3333 10.6667 11.3333C10.3 11.3333 10 11.0333 10 10.6667Z"
    fill="#6A7681" />
</svg>