<svg width="16" height="16" viewBox="0 0 16 16" fill="none" xmlns="http://www.w3.org/2000/svg">
  <path
    d="M7.33334 8.66666C6.96 8.29333 6.96001 7.69999 7.32667 7.33333L7.33334 7.33333C7.70001 6.96666 8.29334 6.96666 8.66001 7.33333L8.66667 7.33333C9.03334 7.69999 9.03334 8.29333 8.66667 8.65999L8.66667 8.66666C8.30001 9.03333 7.70001 9.03333 7.33334 8.66666ZM12 7.99999L10.5867 9.41333L12.2533 11.08L14.3867 8.94666C14.9067 8.42666 14.9067 7.57999 14.3867 7.05999L12.2533 4.92666L10.5867 6.59333L12 7.99999ZM8.00001 3.99999L9.41334 5.41333L11.08 3.74666L8.94667 1.61333C8.42667 1.09333 7.58001 1.09333 7.06001 1.61333L4.92667 3.74666L6.59334 5.41333L8.00001 3.99999ZM8.00001 12L6.58667 10.5867L4.92 12.2533L7.05334 14.3867C7.57334 14.9067 8.42 14.9067 8.94 14.3867L11.0733 12.2533L9.40667 10.5867L8.00001 12ZM4.00001 7.99999L5.41334 6.58666L3.74667 4.91999L1.61334 7.05333C1.09334 7.57333 1.09334 8.41999 1.61334 8.93999L3.74667 11.0733L5.41334 9.40666L4.00001 7.99999Z"
    fill="#6A7681" />
</svg>