<svg width="1024" height="174" viewBox="0 0 1024 174" fill="none" xmlns="http://www.w3.org/2000/svg">
<g clip-path="url(#clip0_560_5219)">
<path d="M209.09 97.32L203.44 108.32C202.19 110.9 197.59 109.09 198.84 106.32L219.84 64.86C220.064 64.4558 220.392 64.1189 220.791 63.8844C221.189 63.6498 221.643 63.5261 222.105 63.5261C222.567 63.5261 223.021 63.6498 223.419 63.8844C223.818 64.1189 224.146 64.4558 224.37 64.86L245.37 106.11C247.19 109.11 242.03 110.85 240.7 108.11L235.27 97.31L209.09 97.32ZM222.19 71L211.19 93H233.14L222.19 71Z" fill="#58C8E6"/>
<path d="M251.73 109C249.85 109 249.08 108.09 249.08 106.42V66.42C249.08 63.15 254.24 63.15 254.24 66.42V104.42H280.3C283.86 104.42 283.86 109.02 280.3 109.02L251.73 109Z" fill="#58C8E6"/>
<path d="M316.26 107.29C312.988 108.84 309.429 109.695 305.81 109.8C293.89 109.8 283.16 100.04 283.16 86.24C283.108 80.8975 284.985 75.7154 288.445 71.6449C291.906 67.5743 296.719 64.8884 302 64.08C310.16 62.97 317.26 64.99 322.77 70.77C324.86 73.14 321.1 76 319.15 73.91C314.41 68.91 308.9 68.12 302.77 68.82C294.2 70.14 288.14 76.21 288.14 86.31C288.18 96.9 296.33 105 306 105C308.81 104.954 311.573 104.27 314.08 103C316.289 101.86 318.234 100.269 319.79 98.33C321.4 95.96 325.65 98.54 323.84 101.12C321.862 103.772 319.258 105.892 316.26 107.29Z" fill="#58C8E6"/>
<path d="M335.77 85.41H361.41V66.41C361.41 63.07 366.5 63.07 366.5 66.41V107C366.522 107.348 366.472 107.696 366.354 108.024C366.236 108.351 366.052 108.652 365.814 108.905C365.575 109.159 365.287 109.362 364.968 109.5C364.648 109.638 364.303 109.71 363.955 109.71C363.607 109.71 363.262 109.638 362.942 109.5C362.623 109.362 362.335 109.159 362.096 108.905C361.858 108.652 361.674 108.351 361.556 108.024C361.438 107.696 361.388 107.348 361.41 107V89.8H335.77V107C335.77 110.62 330.77 110.2 330.77 107V66.38C330.77 62.97 335.77 63.18 335.77 66.38V85.41Z" fill="#58C8E6"/>
<path d="M378.62 104.43H406.15C409.08 104.43 409.49 109.03 406.15 109.03H376.81C376.394 109.058 375.976 108.999 375.584 108.856C375.191 108.713 374.833 108.491 374.532 108.202C374.231 107.913 373.993 107.564 373.835 107.178C373.676 106.792 373.599 106.377 373.61 105.96V67.71C373.609 67.2987 373.693 66.8915 373.856 66.5138C374.019 66.1362 374.258 65.7961 374.558 65.5148C374.858 65.2334 375.213 65.0168 375.6 64.8783C375.988 64.7399 376.4 64.6826 376.81 64.71H406.22C409.22 64.71 409.08 69.17 406.15 69.17H378.62V84.85H404.83C407.61 84.85 407.75 89.31 404.83 89.31H378.62V104.43Z" fill="#58C8E6"/>
<path d="M453.39 65.7501C455 63.2501 458.2 64.0801 458.2 67.0101V107.15C458.2 110.49 453.12 110.49 453.12 107.15V75.4401L438.9 97.6701C438.682 98.1226 438.34 98.5043 437.915 98.7715C437.49 99.0386 436.997 99.1804 436.495 99.1804C435.993 99.1804 435.501 99.0386 435.075 98.7715C434.65 98.5043 434.308 98.1226 434.09 97.6701L419.88 75.5101V107.15C419.88 110.49 414.79 110.49 414.79 107.15V67.0001C414.79 64.0001 418.13 63.2401 419.53 65.7401L436.53 92.2301L453.39 65.7501Z" fill="#58C8E6"/>
<path d="M466.56 65.62C466.56 62.13 471.79 62.2 471.79 65.62V107.29C471.79 110.49 466.56 110.63 466.56 107.29V65.62Z" fill="#58C8E6"/>
<path d="M480.29 98C482.1 103.78 489.84 105 495.41 105C501.33 105 510.53 103.19 510.53 96.15C510.53 90.08 503.22 89.6 495.53 88.97C485.91 88.2 475.6 87.3 475.6 76.91C475.6 67.72 486.19 63.6 494.69 63.6C502.01 63.6 511.14 65.35 514.07 73.29C515.07 76.08 510.37 77.29 509.33 74.96C507.24 69.67 499.78 68.76 494.76 68.76C490.09 68.76 481.04 70.64 481.04 76.98C481.04 83.05 488.04 83.67 496.09 84.3C505.63 85.14 515.88 85.62 515.88 96.08C515.88 106.74 503.96 110.02 495.39 110.02C488.28 110.02 477.39 107.58 475.11 99.21C474.3 96.21 479.73 95.16 480.29 98Z" fill="#58C8E6"/>
<path d="M551.44 64.64C551.769 64.6188 552.099 64.6653 552.409 64.7765C552.719 64.8878 553.003 65.0615 553.244 65.2869C553.484 65.5123 553.676 65.7846 553.807 66.087C553.938 66.3894 554.005 66.7155 554.005 67.045C554.005 67.3746 553.938 67.7006 553.807 68.003C553.676 68.3054 553.484 68.5777 553.244 68.8031C553.003 69.0285 552.719 69.2022 552.409 69.3135C552.099 69.4248 551.769 69.4712 551.44 69.45H535.9C535.9 81.99 535.97 94.74 535.97 107.29C535.97 107.635 535.901 107.976 535.767 108.294C535.633 108.611 535.437 108.899 535.19 109.14C534.943 109.38 534.65 109.569 534.329 109.694C534.008 109.82 533.665 109.879 533.32 109.87C532.983 109.876 532.648 109.812 532.336 109.684C532.024 109.555 531.742 109.364 531.507 109.123C531.272 108.881 531.089 108.594 530.969 108.279C530.849 107.963 530.795 107.627 530.81 107.29V69.45H515.34C515.011 69.4712 514.681 69.4248 514.371 69.3135C514.061 69.2022 513.777 69.0285 513.536 68.8031C513.296 68.5777 513.104 68.3054 512.973 68.003C512.842 67.7006 512.775 67.3746 512.775 67.045C512.775 66.7155 512.842 66.3894 512.973 66.087C513.104 65.7846 513.296 65.5123 513.536 65.2869C513.777 65.0615 514.061 64.8878 514.371 64.7765C514.681 64.6653 515.011 64.6188 515.34 64.64H551.44Z" fill="#58C8E6"/>
<path d="M576 96.56L569.8 108.89C569.637 109.123 569.393 109.287 569.116 109.35C568.84 109.414 568.549 109.373 568.3 109.235C568.052 109.097 567.863 108.872 567.771 108.604C567.678 108.335 567.689 108.042 567.8 107.78L589.96 64.08C590.059 63.8886 590.21 63.729 590.396 63.6194C590.582 63.5098 590.794 63.4545 591.01 63.46C591.221 63.4444 591.431 63.496 591.611 63.6074C591.79 63.7188 591.93 63.8842 592.01 64.08L614.24 107.78C614.351 108.042 614.362 108.335 614.269 108.604C614.177 108.872 613.988 109.097 613.74 109.235C613.491 109.373 613.2 109.414 612.924 109.35C612.647 109.287 612.403 109.123 612.24 108.89L606.04 96.56H576ZM591 66.87L577 94.47H604.8L591 66.87Z" fill="#58C8E6"/>
<path d="M647 107.29C643.475 109.126 639.528 110 635.558 109.823C631.588 109.646 627.734 108.424 624.387 106.282C621.039 104.14 618.316 101.152 616.493 97.6208C614.669 94.0896 613.809 90.1397 614 86.17C614.28 74.4 621.8 65.75 632.74 64.01C640.97 63.01 647.52 64.29 653.51 70.7C654.51 71.96 652.88 73.21 651.84 72.1C646.19 65.96 640.69 65.41 633.09 66.31C623.27 67.84 616.51 74.95 616.23 86.24C616.094 89.8056 616.893 93.3447 618.548 96.506C620.203 99.6674 622.655 102.341 625.663 104.262C628.67 106.182 632.127 107.283 635.691 107.455C639.255 107.626 642.802 106.863 645.98 105.24C648.531 103.948 650.769 102.115 652.54 99.87C652.619 99.7322 652.727 99.6128 652.855 99.5195C652.984 99.4261 653.131 99.361 653.287 99.3283C653.442 99.2956 653.603 99.2961 653.758 99.3297C653.914 99.3634 654.06 99.4294 654.188 99.5235C654.316 99.6177 654.423 99.7378 654.502 99.876C654.58 100.014 654.629 100.167 654.644 100.326C654.659 100.484 654.641 100.643 654.59 100.794C654.54 100.945 654.458 101.083 654.35 101.2C652.445 103.81 649.919 105.904 647 107.29Z" fill="#58C8E6"/>
<path d="M690 107.29C686.475 109.123 682.529 109.994 678.56 109.815C674.591 109.637 670.739 108.415 667.392 106.274C664.046 104.132 661.323 101.146 659.498 97.6162C657.674 94.0867 656.812 90.1387 657 86.17C657.28 74.4 664.81 65.75 675.75 64.01C683.97 63.01 690.52 64.29 696.51 70.7C697.51 71.96 695.89 73.21 694.84 72.1C689.2 65.96 683.69 65.41 676.1 66.31C666.27 67.84 659.51 74.95 659.23 86.24C659.096 89.8059 659.897 93.3449 661.553 96.5058C663.209 99.6668 665.663 102.34 668.67 104.26C671.678 106.181 675.136 107.281 678.7 107.453C682.264 107.625 685.811 106.862 688.99 105.24C691.54 103.95 693.776 102.117 695.54 99.87C695.619 99.7322 695.727 99.6128 695.856 99.5195C695.984 99.4261 696.131 99.361 696.287 99.3283C696.442 99.2956 696.603 99.2961 696.758 99.3297C696.914 99.3634 697.06 99.4294 697.188 99.5235C697.316 99.6177 697.423 99.7378 697.502 99.876C697.58 100.014 697.629 100.167 697.644 100.326C697.659 100.484 697.641 100.643 697.59 100.794C697.54 100.945 697.458 101.083 697.35 101.2C695.448 103.813 692.921 105.907 690 107.29Z" fill="#58C8E6"/>
<path d="M705.08 106.8H735.89C736.167 106.826 736.425 106.955 736.613 107.161C736.8 107.367 736.904 107.636 736.904 107.915C736.904 108.194 736.8 108.462 736.613 108.669C736.425 108.875 736.167 109.004 735.89 109.03H704.67C704.421 109.037 704.173 108.993 703.941 108.901C703.709 108.809 703.499 108.671 703.322 108.495C703.145 108.319 703.006 108.109 702.913 107.878C702.82 107.647 702.774 107.399 702.78 107.15V66.52C702.781 66.2758 702.831 66.0344 702.928 65.81C703.024 65.5857 703.165 65.3831 703.341 65.2142C703.517 65.0453 703.726 64.9136 703.954 64.827C704.183 64.7404 704.426 64.7006 704.67 64.71H736C736.277 64.7192 736.539 64.8383 736.729 65.0408C736.918 65.2433 737.019 65.5128 737.01 65.79C737.001 66.0671 736.882 66.3292 736.679 66.5186C736.477 66.7081 736.207 66.8093 735.93 66.8H705.08V86H734.49C734.767 86 735.033 86.1101 735.229 86.306C735.425 86.502 735.535 86.7678 735.535 87.045C735.535 87.3221 735.425 87.5879 735.229 87.7839C735.033 87.9799 734.767 88.09 734.49 88.09H705.08V106.8Z" fill="#58C8E6"/>
<path d="M745.15 109C744.25 109 743.9 108.51 743.9 107.68V65.5499C743.885 65.3852 743.904 65.2191 743.957 65.0622C744.01 64.9054 744.094 64.7612 744.206 64.639C744.317 64.5167 744.453 64.4191 744.605 64.3523C744.756 64.2855 744.92 64.251 745.085 64.251C745.25 64.251 745.414 64.2855 745.565 64.3523C745.717 64.4191 745.853 64.5167 745.964 64.639C746.076 64.7612 746.16 64.9054 746.213 65.0622C746.266 65.2191 746.285 65.3852 746.27 65.5499V106.87H775.54C775.826 106.87 776.101 106.984 776.304 107.186C776.506 107.389 776.62 107.664 776.62 107.95C776.62 108.236 776.506 108.511 776.304 108.714C776.101 108.916 775.826 109.03 775.54 109.03L745.15 109Z" fill="#58C8E6"/>
<path d="M782.78 106.8H813.58C813.857 106.826 814.115 106.955 814.303 107.161C814.49 107.368 814.594 107.636 814.594 107.915C814.594 108.194 814.49 108.462 814.303 108.669C814.115 108.875 813.857 109.004 813.58 109.03H782.36C782.111 109.037 781.864 108.993 781.632 108.901C781.401 108.809 781.191 108.671 781.015 108.495C780.839 108.319 780.701 108.109 780.609 107.878C780.517 107.646 780.473 107.399 780.48 107.15V66.52C780.481 66.2767 780.531 66.0361 780.627 65.8124C780.723 65.5888 780.862 65.3866 781.038 65.2179C781.213 65.0491 781.42 64.9172 781.647 64.83C781.874 64.7428 782.117 64.702 782.36 64.71H813.65C813.927 64.7193 814.189 64.8383 814.379 65.0408C814.568 65.2433 814.669 65.5128 814.66 65.79C814.651 66.0671 814.532 66.3292 814.329 66.5187C814.127 66.7081 813.857 66.8093 813.58 66.8H782.78V86H812.19C812.467 86 812.733 86.1101 812.929 86.3061C813.125 86.502 813.235 86.7678 813.235 87.045C813.235 87.3221 813.125 87.5879 812.929 87.7839C812.733 87.9799 812.467 88.09 812.19 88.09H782.78V106.8Z" fill="#58C8E6"/>
<path d="M823.82 92.65V108.05C823.825 108.201 823.799 108.352 823.746 108.493C823.692 108.634 823.611 108.763 823.508 108.873C823.404 108.984 823.28 109.072 823.142 109.134C823.005 109.196 822.856 109.23 822.705 109.235C822.554 109.24 822.404 109.214 822.262 109.161C822.121 109.107 821.992 109.027 821.882 108.923C821.772 108.819 821.683 108.695 821.621 108.557C821.559 108.42 821.525 108.271 821.52 108.12V65.82C821.514 65.6627 821.541 65.5059 821.599 65.3595C821.657 65.2131 821.745 65.0803 821.857 64.9694C821.968 64.8586 822.102 64.7721 822.249 64.7154C822.396 64.6587 822.553 64.633 822.71 64.64H840.27C852 64.64 858 71.26 858 79.13C858 86.66 853 91.96 842.81 92.72L857.23 107.57C858.35 108.75 856.88 110.28 855.77 109.17L840.13 92.65H823.82ZM823.82 90.65H840.34C851.14 90.65 855.81 85.5 855.67 79.15C855.6 72.32 849.88 66.82 840.34 66.82H823.82V90.65Z" fill="#58C8E6"/>
<path d="M866.61 96.56L860.4 108.89C860.237 109.123 859.993 109.287 859.716 109.35C859.439 109.414 859.149 109.373 858.9 109.235C858.652 109.097 858.463 108.872 858.371 108.604C858.278 108.335 858.289 108.042 858.4 107.78L880.56 64.08C880.659 63.8886 880.81 63.729 880.996 63.6194C881.182 63.5098 881.394 63.4545 881.61 63.46C881.821 63.4444 882.031 63.496 882.211 63.6074C882.39 63.7188 882.53 63.8842 882.61 64.08L904.83 107.78C904.941 108.042 904.951 108.335 904.859 108.604C904.767 108.872 904.578 109.097 904.33 109.235C904.081 109.373 903.79 109.414 903.514 109.35C903.237 109.287 902.993 109.123 902.83 108.89L896.63 96.56H866.61ZM881.61 66.87L867.67 94.47H895.48L881.61 66.87Z" fill="#58C8E6"/>
<path d="M936.15 64.64C937.82 64.64 937.82 66.73 936.15 66.73H918.15L918.22 107.98C918.23 108.15 918.204 108.321 918.146 108.481C918.087 108.642 917.997 108.789 917.88 108.913C917.763 109.037 917.622 109.137 917.466 109.205C917.309 109.273 917.141 109.309 916.97 109.31C916.803 109.307 916.638 109.269 916.486 109.199C916.334 109.129 916.197 109.029 916.086 108.904C915.974 108.779 915.89 108.633 915.837 108.474C915.784 108.315 915.765 108.147 915.78 107.98V66.73H897.78C896.11 66.73 896.11 64.64 897.78 64.64H936.15Z" fill="#58C8E6"/>
<path d="M935.8 86.0999C936.15 75.2999 942.8 65.75 953.8 64.01C956.298 63.6599 958.832 63.6599 961.33 64.01C972.33 65.75 979.86 75.2999 980.14 86.0999C980.56 99.5499 970.14 109.87 957.98 109.87C945.82 109.87 935.45 99.5499 935.8 86.0999ZM938.17 86.1699C937.82 98.1699 947.17 107.71 957.96 107.71C968.75 107.71 978.17 98.1599 977.82 86.1699C977.54 76.4199 970.82 67.7799 960.96 66.2399C958.697 65.89 956.393 65.89 954.13 66.2399C944.3 67.7799 938.45 76.4199 938.17 86.1699V86.1699Z" fill="#58C8E6"/>
<path d="M989.18 92.65V108.05C989.189 108.355 989.077 108.651 988.868 108.873C988.659 109.096 988.37 109.226 988.065 109.235C987.76 109.244 987.464 109.132 987.242 108.923C987.019 108.714 986.889 108.425 986.88 108.12V65.82C986.873 65.6631 986.899 65.5065 986.955 65.3601C987.012 65.2137 987.099 65.0808 987.21 64.9698C987.321 64.8587 987.454 64.7721 987.6 64.7153C987.747 64.6585 987.903 64.6328 988.06 64.64H1005.62C1017.4 64.64 1023.39 71.26 1023.39 79.13C1023.39 86.66 1018.39 91.96 1008.2 92.72L1022.63 107.57C1023.74 108.75 1022.28 110.28 1021.17 109.17L1005.49 92.65H989.18ZM989.18 90.65H1005.69C1016.5 90.65 1021.17 85.5 1021.03 79.15C1020.96 72.32 1015.24 66.82 1005.69 66.82H989.18V90.65Z" fill="#58C8E6"/>
<path d="M12.31 173H21.47C22.0328 172.989 22.5832 172.833 23.0683 172.548C23.5535 172.262 23.957 171.857 24.24 171.37L75.61 82.37L95.76 117.25H66.42L58.13 131.61H148.13C148.62 131.618 149.106 131.512 149.549 131.3C149.991 131.088 150.378 130.777 150.68 130.39C151.085 129.926 151.342 129.352 151.421 128.742C151.499 128.131 151.394 127.511 151.12 126.96L78.87 1.86C78.5582 1.29748 78.1018 0.828464 77.548 0.501458C76.9942 0.174452 76.3631 0.00133111 75.72 0C75.0839 0.0232219 74.4635 0.203367 73.9139 0.524395C73.3643 0.845424 72.9027 1.29737 72.57 1.84L0.430001 126.72C0.168507 127.222 0.0216388 127.775 1.26241e-06 128.34C-0.0131684 128.796 0.0705706 129.25 0.245695 129.672C0.42082 130.094 0.683351 130.473 1.01597 130.786C1.34859 131.099 1.74375 131.338 2.17537 131.487C2.607 131.635 3.06528 131.691 3.52 131.65H30.59L9.52 168.1C9.2562 168.571 9.11106 169.1 9.09713 169.64C9.08319 170.18 9.20086 170.716 9.44 171.2C9.69521 171.744 10.1015 172.203 10.6104 172.522C11.1193 172.841 11.7093 173.007 12.31 173V173ZM72.31 59.4L38.9 117.27H22.46L75.69 25.1L128.92 117.27H112.33L79 59.46C78.6655 58.8539 78.1745 58.3486 77.5782 57.9968C76.982 57.6451 76.3023 57.4597 75.61 57.46C74.9249 57.4444 74.2489 57.6194 73.6574 57.9655C73.0659 58.3116 72.5821 58.8151 72.26 59.42L72.31 59.4Z" fill="#58C8E6"/>
<path d="M138.84 173H129.77C129.214 172.991 128.67 172.841 128.188 172.563C127.707 172.284 127.305 171.888 127.02 171.41L109.08 140.35H125.67L141.67 168.04C141.977 168.539 142.145 169.111 142.157 169.697C142.168 170.283 142.022 170.861 141.734 171.371C141.446 171.882 141.027 172.306 140.52 172.599C140.013 172.893 139.436 173.045 138.85 173.04L138.84 173Z" fill="#58C8E6"/>
</g>
<defs>
<clipPath id="clip0_560_5219">
<rect width="1023.39" height="173.02" fill="white"/>
</clipPath>
</defs>
</svg>
