<svg width="234" height="64" viewBox="0 0 234 64" fill="none" xmlns="http://www.w3.org/2000/svg">
<path d="M119.983 52.9498C116.978 52.9498 114.43 52.4445 112.34 51.4337C110.25 50.3904 108.47 49.0536 107 47.4233L111.899 42.4837C114.218 45.0921 117.076 46.3963 120.472 46.3963C122.301 46.3963 123.657 46.0213 124.539 45.2714C125.421 44.5215 125.861 43.527 125.861 42.288C125.861 41.3425 125.6 40.56 125.078 39.9405C124.555 39.2884 123.494 38.8482 121.893 38.62L118.513 38.1798C114.888 37.7233 112.226 36.6311 110.527 34.903C108.862 33.175 108.029 30.8763 108.029 28.0071C108.029 26.4746 108.323 25.0726 108.911 23.801C109.499 22.5294 110.331 21.4372 111.409 20.5242C112.52 19.6113 113.859 18.9103 115.426 18.4212C117.027 17.8996 118.839 17.6387 120.864 17.6387C123.445 17.6387 125.714 18.0463 127.674 18.8614C129.634 19.6765 131.316 20.8666 132.72 22.4316L127.772 27.4202C126.956 26.4746 125.959 25.7084 124.784 25.1215C123.641 24.502 122.187 24.1923 120.423 24.1923C118.758 24.1923 117.517 24.4857 116.7 25.0726C115.884 25.6595 115.475 26.4746 115.475 27.518C115.475 28.6918 115.786 29.5395 116.406 30.0612C117.059 30.5829 118.105 30.9578 119.542 31.1861L122.922 31.724C126.449 32.2783 129.062 33.3706 130.761 35.0008C132.459 36.5985 133.308 38.8808 133.308 41.8479C133.308 43.4781 133.014 44.9779 132.426 46.3473C131.838 47.7168 130.973 48.8905 129.83 49.8687C128.719 50.8468 127.331 51.613 125.665 52.1673C124 52.689 122.105 52.9498 119.983 52.9498Z" fill="#80D731"/>
<path d="M143.205 23.9478C141.736 23.9478 140.658 23.6217 139.972 22.9696C139.319 22.2849 138.992 21.4209 138.992 20.3775V19.3016C138.992 18.2582 139.319 17.4105 139.972 16.7584C140.658 16.0737 141.736 15.7313 143.205 15.7313C144.675 15.7313 145.737 16.0737 146.39 16.7584C147.076 17.4105 147.419 18.2582 147.419 19.3016V20.3775C147.419 21.4209 147.076 22.2849 146.39 22.9696C145.737 23.6217 144.675 23.9478 143.205 23.9478ZM139.58 26.6866H146.831V52.363H139.58V26.6866Z" fill="#80D731"/>
<path d="M177.897 54.2214C177.897 55.5908 177.652 56.7972 177.162 57.8406C176.705 58.8839 175.938 59.7643 174.86 60.4816C173.782 61.2315 172.345 61.7858 170.549 62.1444C168.785 62.5357 166.597 62.7313 163.984 62.7313C161.763 62.7313 159.869 62.5846 158.301 62.2912C156.766 62.0303 155.509 61.6391 154.529 61.1174C153.582 60.6283 152.879 60.0088 152.422 59.2589C151.998 58.5416 151.785 57.7102 151.785 56.7646C151.785 55.33 152.21 54.2051 153.059 53.39C153.908 52.5749 155.084 52.0695 156.586 51.8739V51.3359C155.345 51.1077 154.414 50.586 153.794 49.7709C153.173 48.9231 152.863 47.945 152.863 46.8364C152.863 46.1517 152.994 45.5648 153.255 45.0758C153.549 44.5541 153.908 44.1139 154.333 43.7553C154.79 43.364 155.313 43.0543 155.9 42.826C156.488 42.5978 157.076 42.4185 157.664 42.288V42.0924C156.096 41.3751 154.937 40.3969 154.186 39.158C153.435 37.8864 153.059 36.4191 153.059 34.7563C153.059 32.1479 153.957 30.0612 155.753 28.4962C157.582 26.8985 160.359 26.0997 164.082 26.0997C165.78 26.0997 167.234 26.2627 168.442 26.5888V25.6106C168.442 24.2412 168.769 23.2631 169.422 22.6762C170.108 22.0567 171.071 21.7469 172.312 21.7469H176.379V27.1267H170.696V27.4202C172.198 28.1375 173.308 29.1319 174.027 30.4035C174.746 31.6425 175.105 33.0934 175.105 34.7563C175.105 37.3321 174.19 39.4025 172.361 40.9675C170.565 42.5 167.805 43.2662 164.082 43.2662C162.416 43.2662 160.897 43.0869 159.526 42.7282C158.775 43.2173 158.399 43.902 158.399 44.7823C158.399 45.4018 158.628 45.8909 159.085 46.2495C159.575 46.5756 160.375 46.7386 161.485 46.7386H168.932C172.067 46.7386 174.337 47.3907 175.742 48.6949C177.179 49.9991 177.897 51.8413 177.897 54.2214ZM171.088 55.1996C171.088 54.4497 170.794 53.8791 170.206 53.4878C169.618 53.0966 168.589 52.9009 167.119 52.9009H158.301C157.974 53.227 157.729 53.5856 157.566 53.9769C157.435 54.4008 157.37 54.8083 157.37 55.1996C157.37 56.1451 157.778 56.8298 158.595 57.2537C159.411 57.7102 160.8 57.9384 162.759 57.9384H165.699C167.658 57.9384 169.046 57.7102 169.863 57.2537C170.679 56.8298 171.088 56.1451 171.088 55.1996ZM164.082 38.5222C165.519 38.5222 166.58 38.2287 167.266 37.6418C167.985 37.0223 168.344 36.142 168.344 35.0008V34.4139C168.344 33.2728 167.985 32.4087 167.266 31.8219C166.58 31.2024 165.519 30.8926 164.082 30.8926C162.645 30.8926 161.567 31.2024 160.849 31.8219C160.163 32.4087 159.82 33.2728 159.82 34.4139V35.0008C159.82 36.142 160.163 37.0223 160.849 37.6418C161.567 38.2287 162.645 38.5222 164.082 38.5222Z" fill="#80D731"/>
<path d="M181.609 16.1715H188.859V31.0393H189.153C189.611 29.7025 190.411 28.5451 191.554 27.5669C192.697 26.5888 194.281 26.0997 196.306 26.0997C198.951 26.0997 200.944 26.98 202.283 28.7407C203.655 30.5014 204.34 33.0119 204.34 36.2724V52.363H197.09V36.8593C197.09 35.1965 196.829 33.9738 196.306 33.1913C195.783 32.3761 194.853 31.9686 193.513 31.9686C192.926 31.9686 192.354 32.0501 191.799 32.2131C191.244 32.3435 190.737 32.5718 190.28 32.8978C189.856 33.2239 189.513 33.6314 189.251 34.1205C188.99 34.577 188.859 35.115 188.859 35.7344V52.363H181.609V16.1715Z" fill="#80D731"/>
<path d="M220.297 52.363C217.782 52.363 215.871 51.7272 214.565 50.4556C213.291 49.184 212.654 47.3255 212.654 44.8801V32.3109H209.029V26.6866H210.842C211.821 26.6866 212.491 26.4583 212.85 26.0019C213.21 25.5128 213.389 24.8281 213.389 23.9478V19.7417H219.905V26.6866H225V32.3109H219.905V46.7386H224.608V52.363H220.297Z" fill="#80D731"/>
<path d="M102 17.7313V42.2165C102 43.7962 101.734 45.2443 101.202 46.5607C100.703 47.8442 99.9544 48.9466 98.9566 49.8681C97.9588 50.7567 96.7448 51.4643 95.3145 51.9908C93.9176 52.4845 92.321 52.7313 90.5249 52.7313C88.7954 52.7313 87.2654 52.501 85.9349 52.0402C84.6377 51.5795 83.5069 50.9213 82.5423 50.0656C81.611 49.2099 80.846 48.1897 80.2473 47.0049C79.6486 45.8202 79.2328 44.5038 79 43.0557L86.0846 41.6735C86.65 44.6683 88.0969 46.1657 90.4252 46.1657C91.5228 46.1657 92.4541 45.8202 93.2191 45.1291C94.0174 44.438 94.4165 43.3519 94.4165 41.871V23.7539H83.8395V17.7313H102Z" fill="#80D731"/>
<path fill-rule="evenodd" clip-rule="evenodd" d="M62 32.6235C62 49.7446 48.1209 63.6235 31.0004 63.6235C13.8792 63.6235 0 49.7446 0 32.6239C0 15.5025 13.8792 1.62353 31.0004 1.62353C48.1209 1.62316 62 15.5025 62 32.6235ZM50.0794 32.6232C50.0794 43.1601 41.5374 51.7029 30.9999 51.7029C20.4631 51.7029 11.9208 43.1601 11.9208 32.6232C11.9208 30.9584 12.1341 29.3434 12.5347 27.8039C13.4635 31.9856 17.1945 35.1128 21.6565 35.1128C26.8168 35.1128 30.9999 30.9291 30.9999 25.7692C30.9999 20.6083 26.8168 16.4252 21.6565 16.4252C21.3883 16.4252 21.1227 16.4365 20.8602 16.4586C23.7977 14.612 27.2741 13.5439 30.9999 13.5439C41.5374 13.5439 50.0794 22.0864 50.0794 32.6232Z" fill="#80D731"/>
</svg>
