<svg width="532" height="388" viewBox="0 0 532 388" fill="none" xmlns="http://www.w3.org/2000/svg">
<path d="M135.016 193.5L144.716 188.013L154.416 193.5L144.716 198.987L135.016 193.5Z" stroke="#0F6FB0"/>
<path d="M381.016 193.5L390.716 188.013L400.416 193.5L390.716 198.987L381.016 193.5Z" stroke="#0F6FB0"/>
<rect x="172.5" y="0.5" width="199" height="75" rx="7.5" fill="#D7F4E1" stroke="#3FB064"/>
<rect x="160.5" y="16.5" width="23" height="11" rx="3.5" fill="#D7F4E1" stroke="#3FB064"/>
<rect x="160.5" y="32.5" width="23" height="11" rx="3.5" fill="#D7F4E1" stroke="#3FB064"/>
<path d="M214.027 28.9091C214.027 29.983 213.833 30.911 213.445 31.6932C213.058 32.4754 212.526 33.0786 211.85 33.5028C211.173 33.9271 210.401 34.1392 209.533 34.1392C208.664 34.1392 207.892 33.9271 207.216 33.5028C206.54 33.0786 206.008 32.4754 205.62 31.6932C205.232 30.911 205.038 29.983 205.038 28.9091C205.038 27.8352 205.232 26.9072 205.62 26.125C206.008 25.3428 206.54 24.7396 207.216 24.3153C207.892 23.8911 208.664 23.679 209.533 23.679C210.401 23.679 211.173 23.8911 211.85 24.3153C212.526 24.7396 213.058 25.3428 213.445 26.125C213.833 26.9072 214.027 27.8352 214.027 28.9091ZM212.834 28.9091C212.834 28.0275 212.686 27.2834 212.391 26.6768C212.1 26.0703 211.704 25.6113 211.203 25.2997C210.706 24.9882 210.149 24.8324 209.533 24.8324C208.916 24.8324 208.358 24.9882 207.857 25.2997C207.36 25.6113 206.964 26.0703 206.669 26.6768C206.377 27.2834 206.232 28.0275 206.232 28.9091C206.232 29.7907 206.377 30.5348 206.669 31.1413C206.964 31.7479 207.36 32.2069 207.857 32.5185C208.358 32.83 208.916 32.9858 209.533 32.9858C210.149 32.9858 210.706 32.83 211.203 32.5185C211.704 32.2069 212.1 31.7479 212.391 31.1413C212.686 30.5348 212.834 29.7907 212.834 28.9091ZM216.554 29.4062V34H215.381V26.3636H216.515V27.5568H216.614C216.793 27.169 217.065 26.8575 217.429 26.6222C217.794 26.3835 218.265 26.2642 218.841 26.2642C219.358 26.2642 219.811 26.3703 220.199 26.5824C220.586 26.7912 220.888 27.1094 221.103 27.5369C221.319 27.9612 221.427 28.4981 221.427 29.1477V34H220.253V29.2273C220.253 28.6274 220.098 28.16 219.786 27.8253C219.474 27.4872 219.047 27.3182 218.503 27.3182C218.129 27.3182 217.794 27.3994 217.499 27.5618C217.207 27.7242 216.977 27.9612 216.808 28.2727C216.639 28.5843 216.554 28.9621 216.554 29.4062ZM224.184 23.8182V34H223.011V23.8182H224.184ZM225.773 34V26.3636H226.946V34H225.773ZM226.369 25.0909C226.141 25.0909 225.944 25.013 225.778 24.8572C225.615 24.7015 225.534 24.5142 225.534 24.2955C225.534 24.0767 225.615 23.8894 225.778 23.7337C225.944 23.5779 226.141 23.5 226.369 23.5C226.598 23.5 226.794 23.5779 226.956 23.7337C227.122 23.8894 227.205 24.0767 227.205 24.2955C227.205 24.5142 227.122 24.7015 226.956 24.8572C226.794 25.013 226.598 25.0909 226.369 25.0909ZM229.708 29.4062V34H228.535V26.3636H229.669V27.5568H229.768C229.947 27.169 230.219 26.8575 230.583 26.6222C230.948 26.3835 231.419 26.2642 231.995 26.2642C232.512 26.2642 232.965 26.3703 233.353 26.5824C233.74 26.7912 234.042 27.1094 234.257 27.5369C234.473 27.9612 234.581 28.4981 234.581 29.1477V34H233.407V29.2273C233.407 28.6274 233.252 28.16 232.94 27.8253C232.628 27.4872 232.201 27.3182 231.657 27.3182C231.283 27.3182 230.948 27.3994 230.653 27.5618C230.361 27.7242 230.131 27.9612 229.962 28.2727C229.793 28.5843 229.708 28.9621 229.708 29.4062ZM239.366 34.1591C238.631 34.1591 237.996 33.9967 237.462 33.6719C236.932 33.3438 236.523 32.8864 236.234 32.2997C235.949 31.7098 235.807 31.0237 235.807 30.2415C235.807 29.4593 235.949 28.7699 236.234 28.1733C236.523 27.5734 236.924 27.1061 237.437 26.7713C237.954 26.4332 238.558 26.2642 239.247 26.2642C239.645 26.2642 240.037 26.3305 240.425 26.4631C240.813 26.5956 241.166 26.8111 241.484 27.1094C241.802 27.4044 242.056 27.7955 242.245 28.2827C242.434 28.7699 242.528 29.3698 242.528 30.0824V30.5795H236.642V29.5653H241.335C241.335 29.1345 241.249 28.75 241.077 28.4119C240.908 28.0739 240.666 27.8071 240.351 27.6115C240.039 27.416 239.671 27.3182 239.247 27.3182C238.78 27.3182 238.375 27.4342 238.034 27.6662C237.696 27.8949 237.436 28.1932 237.253 28.5611C237.071 28.929 236.98 29.3234 236.98 29.7443V30.4205C236.98 30.9972 237.079 31.486 237.278 31.8871C237.48 32.2848 237.76 32.5881 238.118 32.7969C238.476 33.0024 238.892 33.1051 239.366 33.1051C239.675 33.1051 239.953 33.062 240.202 32.9759C240.453 32.8864 240.671 32.7538 240.853 32.5781C241.035 32.3991 241.176 32.1771 241.275 31.9119L242.409 32.2301C242.29 32.6146 242.089 32.9527 241.807 33.2443C241.526 33.5327 241.178 33.758 240.763 33.9205C240.349 34.0795 239.883 34.1591 239.366 34.1591ZM247.29 34V23.8182H253.435V24.9119H248.523V28.3523H253.116V29.446H248.523V32.9062H253.514V34H247.29ZM257.821 34.1591C257.185 34.1591 256.623 33.9983 256.136 33.6768C255.649 33.352 255.268 32.8946 254.992 32.3047C254.717 31.7114 254.58 31.0104 254.58 30.2017C254.58 29.3996 254.717 28.7036 254.992 28.1136C255.268 27.5237 255.65 27.0679 256.141 26.7464C256.631 26.425 257.198 26.2642 257.841 26.2642C258.338 26.2642 258.731 26.3471 259.019 26.5128C259.311 26.6752 259.533 26.8608 259.686 27.0696C259.841 27.2751 259.962 27.4441 260.049 27.5767H260.148V23.8182H261.321V34H260.188V32.8267H260.049C259.962 32.9659 259.84 33.1416 259.681 33.3537C259.522 33.5625 259.294 33.7498 259 33.9155C258.705 34.0779 258.312 34.1591 257.821 34.1591ZM257.98 33.1051C258.451 33.1051 258.849 32.9825 259.174 32.7372C259.498 32.4886 259.745 32.1456 259.914 31.7081C260.083 31.2673 260.168 30.7585 260.168 30.1818C260.168 29.6117 260.085 29.1129 259.919 28.6854C259.754 28.2545 259.508 27.9197 259.183 27.6811C258.859 27.4392 258.458 27.3182 257.98 27.3182C257.483 27.3182 257.069 27.4458 256.737 27.701C256.409 27.9529 256.162 28.2959 255.997 28.7301C255.834 29.161 255.753 29.6449 255.753 30.1818C255.753 30.7254 255.836 31.2192 256.002 31.6634C256.171 32.1042 256.419 32.4555 256.747 32.7173C257.079 32.9759 257.49 33.1051 257.98 33.1051ZM263.073 34V26.3636H264.246V34H263.073ZM263.67 25.0909C263.441 25.0909 263.244 25.013 263.078 24.8572C262.916 24.7015 262.834 24.5142 262.834 24.2955C262.834 24.0767 262.916 23.8894 263.078 23.7337C263.244 23.5779 263.441 23.5 263.67 23.5C263.898 23.5 264.094 23.5779 264.256 23.7337C264.422 23.8894 264.505 24.0767 264.505 24.2955C264.505 24.5142 264.422 24.7015 264.256 24.8572C264.094 25.013 263.898 25.0909 263.67 25.0909ZM269.156 26.3636V27.358H265.199V26.3636H269.156ZM266.352 24.5341H267.526V31.8125C267.526 32.1439 267.574 32.3925 267.67 32.5582C267.769 32.7206 267.895 32.83 268.048 32.8864C268.203 32.9394 268.368 32.9659 268.54 32.9659C268.669 32.9659 268.775 32.9593 268.858 32.946C268.941 32.9295 269.007 32.9162 269.057 32.9062L269.296 33.9602C269.216 33.9901 269.105 34.0199 268.962 34.0497C268.82 34.0829 268.639 34.0994 268.421 34.0994C268.089 34.0994 267.764 34.0282 267.446 33.8857C267.131 33.7431 266.869 33.526 266.661 33.2344C266.455 32.9427 266.352 32.5748 266.352 32.1307V24.5341ZM273.381 34.1591C272.692 34.1591 272.087 33.995 271.567 33.6669C271.05 33.3388 270.645 32.8797 270.354 32.2898C270.065 31.6998 269.921 31.0104 269.921 30.2216C269.921 29.4261 270.065 28.7318 270.354 28.1385C270.645 27.5452 271.05 27.0845 271.567 26.7564C272.087 26.4283 272.692 26.2642 273.381 26.2642C274.071 26.2642 274.674 26.4283 275.191 26.7564C275.712 27.0845 276.116 27.5452 276.404 28.1385C276.696 28.7318 276.842 29.4261 276.842 30.2216C276.842 31.0104 276.696 31.6998 276.404 32.2898C276.116 32.8797 275.712 33.3388 275.191 33.6669C274.674 33.995 274.071 34.1591 273.381 34.1591ZM273.381 33.1051C273.905 33.1051 274.336 32.9709 274.674 32.7024C275.012 32.4339 275.262 32.081 275.425 31.6435C275.587 31.206 275.668 30.732 275.668 30.2216C275.668 29.7112 275.587 29.2356 275.425 28.7947C275.262 28.3539 275.012 27.9976 274.674 27.7259C274.336 27.4541 273.905 27.3182 273.381 27.3182C272.858 27.3182 272.427 27.4541 272.089 27.7259C271.751 27.9976 271.501 28.3539 271.338 28.7947C271.176 29.2356 271.095 29.7112 271.095 30.2216C271.095 30.732 271.176 31.206 271.338 31.6435C271.501 32.081 271.751 32.4339 272.089 32.7024C272.427 32.9709 272.858 33.1051 273.381 33.1051ZM278.073 34V26.3636H279.206V27.517H279.286C279.425 27.1392 279.677 26.8326 280.041 26.5973C280.406 26.362 280.817 26.2443 281.274 26.2443C281.361 26.2443 281.468 26.246 281.598 26.2493C281.727 26.2526 281.825 26.2576 281.891 26.2642V27.4574C281.851 27.4474 281.76 27.4325 281.617 27.4126C281.478 27.3894 281.331 27.3778 281.175 27.3778C280.804 27.3778 280.472 27.4557 280.181 27.6115C279.892 27.764 279.664 27.9761 279.495 28.2479C279.329 28.5163 279.246 28.8229 279.246 29.1676V34H278.073ZM286.258 34V23.8182H292.363V24.9119H287.491V28.3523H291.906V29.446H287.491V34H286.258ZM293.674 34V26.3636H294.807V27.517H294.887C295.026 27.1392 295.278 26.8326 295.643 26.5973C296.007 26.362 296.418 26.2443 296.876 26.2443C296.962 26.2443 297.07 26.246 297.199 26.2493C297.328 26.2526 297.426 26.2576 297.492 26.2642V27.4574C297.452 27.4474 297.361 27.4325 297.219 27.4126C297.08 27.3894 296.932 27.3778 296.776 27.3778C296.405 27.3778 296.074 27.4557 295.782 27.6115C295.494 27.764 295.265 27.9761 295.096 28.2479C294.93 28.5163 294.847 28.8229 294.847 29.1676V34H293.674ZM301.193 34.1591C300.503 34.1591 299.899 33.995 299.378 33.6669C298.861 33.3388 298.457 32.8797 298.165 32.2898C297.877 31.6998 297.733 31.0104 297.733 30.2216C297.733 29.4261 297.877 28.7318 298.165 28.1385C298.457 27.5452 298.861 27.0845 299.378 26.7564C299.899 26.4283 300.503 26.2642 301.193 26.2642C301.882 26.2642 302.485 26.4283 303.002 26.7564C303.523 27.0845 303.927 27.5452 304.216 28.1385C304.507 28.7318 304.653 29.4261 304.653 30.2216C304.653 31.0104 304.507 31.6998 304.216 32.2898C303.927 32.8797 303.523 33.3388 303.002 33.6669C302.485 33.995 301.882 34.1591 301.193 34.1591ZM301.193 33.1051C301.716 33.1051 302.147 32.9709 302.485 32.7024C302.823 32.4339 303.074 32.081 303.236 31.6435C303.399 31.206 303.48 30.732 303.48 30.2216C303.48 29.7112 303.399 29.2356 303.236 28.7947C303.074 28.3539 302.823 27.9976 302.485 27.7259C302.147 27.4541 301.716 27.3182 301.193 27.3182C300.669 27.3182 300.238 27.4541 299.9 27.7259C299.562 27.9976 299.312 28.3539 299.149 28.7947C298.987 29.2356 298.906 29.7112 298.906 30.2216C298.906 30.732 298.987 31.206 299.149 31.6435C299.312 32.081 299.562 32.4339 299.9 32.7024C300.238 32.9709 300.669 33.1051 301.193 33.1051ZM307.057 29.4062V34H305.884V26.3636H307.018V27.5568H307.117C307.296 27.169 307.568 26.8575 307.932 26.6222C308.297 26.3835 308.768 26.2642 309.344 26.2642C309.861 26.2642 310.314 26.3703 310.702 26.5824C311.089 26.7912 311.391 27.1094 311.606 27.5369C311.822 27.9612 311.93 28.4981 311.93 29.1477V34H310.756V29.2273C310.756 28.6274 310.6 28.16 310.289 27.8253C309.977 27.4872 309.55 27.3182 309.006 27.3182C308.632 27.3182 308.297 27.3994 308.002 27.5618C307.71 27.7242 307.48 27.9612 307.311 28.2727C307.142 28.5843 307.057 28.9621 307.057 29.4062ZM316.835 26.3636V27.358H312.877V26.3636H316.835ZM314.031 24.5341H315.204V31.8125C315.204 32.1439 315.252 32.3925 315.348 32.5582C315.447 32.7206 315.573 32.83 315.726 32.8864C315.882 32.9394 316.046 32.9659 316.218 32.9659C316.347 32.9659 316.453 32.9593 316.536 32.946C316.619 32.9295 316.685 32.9162 316.735 32.9062L316.974 33.9602C316.894 33.9901 316.783 34.0199 316.641 34.0497C316.498 34.0829 316.317 34.0994 316.099 34.0994C315.767 34.0994 315.442 34.0282 315.124 33.8857C314.809 33.7431 314.548 33.526 314.339 33.2344C314.133 32.9427 314.031 32.5748 314.031 32.1307V24.5341ZM321.159 34.1591C320.423 34.1591 319.789 33.9967 319.255 33.6719C318.725 33.3438 318.315 32.8864 318.027 32.2997C317.742 31.7098 317.599 31.0237 317.599 30.2415C317.599 29.4593 317.742 28.7699 318.027 28.1733C318.315 27.5734 318.716 27.1061 319.23 26.7713C319.747 26.4332 320.35 26.2642 321.04 26.2642C321.438 26.2642 321.83 26.3305 322.218 26.4631C322.606 26.5956 322.959 26.8111 323.277 27.1094C323.595 27.4044 323.849 27.7955 324.038 28.2827C324.227 28.7699 324.321 29.3698 324.321 30.0824V30.5795H318.435V29.5653H323.128C323.128 29.1345 323.042 28.75 322.869 28.4119C322.7 28.0739 322.458 27.8071 322.143 27.6115C321.832 27.416 321.464 27.3182 321.04 27.3182C320.572 27.3182 320.168 27.4342 319.827 27.6662C319.489 27.8949 319.228 28.1932 319.046 28.5611C318.864 28.929 318.773 29.3234 318.773 29.7443V30.4205C318.773 30.9972 318.872 31.486 319.071 31.8871C319.273 32.2848 319.553 32.5881 319.911 32.7969C320.269 33.0024 320.685 33.1051 321.159 33.1051C321.467 33.1051 321.746 33.062 321.994 32.9759C322.246 32.8864 322.463 32.7538 322.646 32.5781C322.828 32.3991 322.969 32.1771 323.068 31.9119L324.202 32.2301C324.082 32.6146 323.882 32.9527 323.6 33.2443C323.318 33.5327 322.97 33.758 322.556 33.9205C322.142 34.0795 321.676 34.1591 321.159 34.1591ZM326.719 29.4062V34H325.546V26.3636H326.679V27.5568H326.779C326.958 27.169 327.23 26.8575 327.594 26.6222C327.959 26.3835 328.429 26.2642 329.006 26.2642C329.523 26.2642 329.976 26.3703 330.363 26.5824C330.751 26.7912 331.053 27.1094 331.268 27.5369C331.484 27.9612 331.591 28.4981 331.591 29.1477V34H330.418V29.2273C330.418 28.6274 330.262 28.16 329.951 27.8253C329.639 27.4872 329.212 27.3182 328.668 27.3182C328.293 27.3182 327.959 27.3994 327.664 27.5618C327.372 27.7242 327.142 27.9612 326.973 28.2727C326.804 28.5843 326.719 28.9621 326.719 29.4062ZM336.059 34.1591C335.422 34.1591 334.861 33.9983 334.373 33.6768C333.886 33.352 333.505 32.8946 333.23 32.3047C332.955 31.7114 332.817 31.0104 332.817 30.2017C332.817 29.3996 332.955 28.7036 333.23 28.1136C333.505 27.5237 333.888 27.0679 334.378 26.7464C334.869 26.425 335.436 26.2642 336.079 26.2642C336.576 26.2642 336.969 26.3471 337.257 26.5128C337.549 26.6752 337.771 26.8608 337.923 27.0696C338.079 27.2751 338.2 27.4441 338.286 27.5767H338.386V23.8182H339.559V34H338.425V32.8267H338.286C338.2 32.9659 338.077 33.1416 337.918 33.3537C337.759 33.5625 337.532 33.7498 337.237 33.9155C336.942 34.0779 336.549 34.1591 336.059 34.1591ZM336.218 33.1051C336.689 33.1051 337.086 32.9825 337.411 32.7372C337.736 32.4886 337.983 32.1456 338.152 31.7081C338.321 31.2673 338.405 30.7585 338.405 30.1818C338.405 29.6117 338.323 29.1129 338.157 28.6854C337.991 28.2545 337.746 27.9197 337.421 27.6811C337.096 27.4392 336.695 27.3182 336.218 27.3182C335.721 27.3182 335.306 27.4458 334.975 27.701C334.647 27.9529 334.4 28.2959 334.234 28.7301C334.072 29.161 333.991 29.6449 333.991 30.1818C333.991 30.7254 334.074 31.2192 334.239 31.6634C334.408 32.1042 334.657 32.4555 334.985 32.7173C335.316 32.9759 335.727 33.1051 336.218 33.1051ZM251.691 46.9091C251.691 45.6562 251.853 44.5045 252.178 43.4538C252.506 42.3999 252.974 41.4304 253.58 40.5455H254.614C254.376 40.8736 254.152 41.2779 253.943 41.7585C253.738 42.2358 253.557 42.7611 253.401 43.3345C253.245 43.9046 253.123 44.4946 253.033 45.1044C252.947 45.7143 252.904 46.3158 252.904 46.9091C252.904 47.6979 252.98 48.4983 253.133 49.3104C253.285 50.1224 253.491 50.8764 253.749 51.5724C254.008 52.2685 254.296 52.8352 254.614 53.2727H253.58C252.974 52.3878 252.506 51.42 252.178 50.3693C251.853 49.3153 251.691 48.1619 251.691 46.9091ZM255.945 52V41.8182H259.385C260.181 41.8182 260.833 41.9541 261.344 42.2259C261.854 42.4943 262.232 42.8639 262.477 43.3345C262.723 43.8052 262.845 44.3404 262.845 44.9403C262.845 45.5402 262.723 46.0722 262.477 46.5362C262.232 47.0002 261.856 47.3648 261.349 47.63C260.842 47.8918 260.194 48.0227 259.405 48.0227H256.621V46.9091H259.365C259.909 46.9091 260.346 46.8295 260.678 46.6705C261.012 46.5114 261.254 46.286 261.404 45.9943C261.556 45.6993 261.632 45.348 261.632 44.9403C261.632 44.5327 261.556 44.1764 261.404 43.8714C261.251 43.5665 261.007 43.3312 260.673 43.1655C260.338 42.9964 259.896 42.9119 259.345 42.9119H257.178V52H255.945ZM260.737 47.4261L263.243 52H261.811L259.345 47.4261H260.737ZM267.3 52.1591C266.565 52.1591 265.93 51.9967 265.396 51.6719C264.866 51.3438 264.457 50.8864 264.168 50.2997C263.883 49.7098 263.741 49.0237 263.741 48.2415C263.741 47.4593 263.883 46.7699 264.168 46.1733C264.457 45.5734 264.858 45.1061 265.371 44.7713C265.888 44.4332 266.492 44.2642 267.181 44.2642C267.579 44.2642 267.972 44.3305 268.359 44.4631C268.747 44.5956 269.1 44.8111 269.418 45.1094C269.736 45.4044 269.99 45.7955 270.179 46.2827C270.368 46.7699 270.462 47.3698 270.462 48.0824V48.5795H264.576V47.5653H269.269C269.269 47.1345 269.183 46.75 269.011 46.4119C268.842 46.0739 268.6 45.8071 268.285 45.6115C267.973 45.416 267.605 45.3182 267.181 45.3182C266.714 45.3182 266.309 45.4342 265.968 45.6662C265.63 45.8949 265.37 46.1932 265.187 46.5611C265.005 46.929 264.914 47.3234 264.914 47.7443V48.4205C264.914 48.9972 265.013 49.486 265.212 49.8871C265.415 50.2848 265.695 50.5881 266.053 50.7969C266.41 51.0024 266.826 51.1051 267.3 51.1051C267.609 51.1051 267.887 51.062 268.136 50.9759C268.388 50.8864 268.605 50.7538 268.787 50.5781C268.969 50.3991 269.11 50.1771 269.21 49.9119L270.343 50.2301C270.224 50.6146 270.023 50.9527 269.741 51.2443C269.46 51.5327 269.112 51.758 268.697 51.9205C268.283 52.0795 267.817 52.1591 267.3 52.1591ZM273.934 52.179C273.45 52.179 273.011 52.0878 272.617 51.9055C272.222 51.7199 271.909 51.4531 271.677 51.1051C271.445 50.7538 271.329 50.3295 271.329 49.8324C271.329 49.3949 271.415 49.0402 271.588 48.7685C271.76 48.4934 271.99 48.2779 272.279 48.1222C272.567 47.9664 272.885 47.8504 273.233 47.7741C273.585 47.6946 273.938 47.6316 274.292 47.5852C274.756 47.5256 275.132 47.4808 275.421 47.451C275.712 47.4179 275.925 47.3632 276.057 47.2869C276.193 47.2107 276.261 47.0781 276.261 46.8892V46.8494C276.261 46.3589 276.127 45.9777 275.858 45.706C275.593 45.4342 275.19 45.2983 274.65 45.2983C274.09 45.2983 273.651 45.4209 273.333 45.6662C273.015 45.9115 272.791 46.1733 272.662 46.4517L271.548 46.054C271.747 45.59 272.012 45.2287 272.343 44.9702C272.678 44.7083 273.043 44.526 273.437 44.4233C273.835 44.3172 274.226 44.2642 274.61 44.2642C274.856 44.2642 275.137 44.294 275.456 44.3537C275.777 44.41 276.087 44.5277 276.385 44.7067C276.687 44.8857 276.937 45.1558 277.136 45.517C277.335 45.8783 277.434 46.3622 277.434 46.9688V52H276.261V50.9659H276.201C276.122 51.1316 275.989 51.3089 275.804 51.4979C275.618 51.6868 275.371 51.8475 275.063 51.9801C274.755 52.1127 274.378 52.179 273.934 52.179ZM274.113 51.125C274.577 51.125 274.968 51.0339 275.287 50.8516C275.608 50.6693 275.85 50.4339 276.012 50.1456C276.178 49.8572 276.261 49.554 276.261 49.2358V48.1619C276.211 48.2216 276.102 48.2763 275.933 48.326C275.767 48.3724 275.575 48.4138 275.356 48.4503C275.141 48.4834 274.93 48.5133 274.725 48.5398C274.523 48.563 274.359 48.5829 274.233 48.5994C273.928 48.6392 273.643 48.7038 273.377 48.7933C273.116 48.8795 272.904 49.0104 272.741 49.1861C272.582 49.3584 272.502 49.5937 272.502 49.892C272.502 50.2997 272.653 50.608 272.955 50.8168C273.26 51.0223 273.646 51.125 274.113 51.125ZM282.118 52.1591C281.402 52.1591 280.786 51.9901 280.269 51.652C279.752 51.3139 279.354 50.8482 279.075 50.255C278.797 49.6617 278.658 48.9839 278.658 48.2216C278.658 47.446 278.8 46.7616 279.085 46.1683C279.374 45.5717 279.775 45.1061 280.289 44.7713C280.806 44.4332 281.409 44.2642 282.098 44.2642C282.635 44.2642 283.119 44.3636 283.55 44.5625C283.981 44.7614 284.334 45.0398 284.609 45.3977C284.884 45.7557 285.055 46.1733 285.121 46.6506H283.948C283.858 46.3026 283.659 45.9943 283.351 45.7259C283.046 45.4541 282.635 45.3182 282.118 45.3182C281.661 45.3182 281.26 45.4375 280.915 45.6761C280.574 45.9115 280.307 46.2446 280.115 46.6754C279.926 47.103 279.831 47.6051 279.831 48.1818C279.831 48.7718 279.924 49.2855 280.11 49.723C280.298 50.1605 280.564 50.5002 280.905 50.7422C281.25 50.9841 281.654 51.1051 282.118 51.1051C282.423 51.1051 282.7 51.0521 282.948 50.946C283.197 50.84 283.407 50.6875 283.58 50.4886C283.752 50.2898 283.875 50.0511 283.948 49.7727H285.121C285.055 50.2235 284.891 50.6295 284.629 50.9908C284.37 51.3487 284.027 51.6338 283.6 51.8459C283.175 52.0547 282.682 52.1591 282.118 52.1591ZM289.597 44.3636V45.358H285.64V44.3636H289.597ZM286.793 42.5341H287.966V49.8125C287.966 50.1439 288.015 50.3925 288.111 50.5582C288.21 50.7206 288.336 50.83 288.488 50.8864C288.644 50.9394 288.808 50.9659 288.981 50.9659C289.11 50.9659 289.216 50.9593 289.299 50.946C289.382 50.9295 289.448 50.9162 289.498 50.9062L289.736 51.9602C289.657 51.9901 289.546 52.0199 289.403 52.0497C289.261 52.0829 289.08 52.0994 288.861 52.0994C288.53 52.0994 288.205 52.0282 287.887 51.8857C287.572 51.7431 287.31 51.526 287.101 51.2344C286.896 50.9427 286.793 50.5748 286.793 50.1307V42.5341ZM293.308 47.7045C293.308 48.9574 293.144 50.1108 292.816 51.1648C292.491 52.2154 292.025 53.1832 291.419 54.0682H290.384C290.623 53.7401 290.845 53.3357 291.051 52.8551C291.259 52.3778 291.442 51.8542 291.598 51.2841C291.753 50.7107 291.874 50.1191 291.96 49.5092C292.05 48.8961 292.095 48.2945 292.095 47.7045C292.095 46.9157 292.018 46.1153 291.866 45.3033C291.714 44.4912 291.508 43.7372 291.25 43.0412C290.991 42.3452 290.703 41.7784 290.384 41.3409H291.419C292.025 42.2259 292.491 43.1953 292.816 44.2493C293.144 45.3 293.308 46.4517 293.308 47.7045Z" fill="#1B1128"/>
<rect x="173.5" y="156.5" width="199" height="75" rx="7.5" fill="#DFF1FD" stroke="#0F6FB0"/>
<rect x="161.5" y="172.5" width="23" height="11" rx="3.5" fill="#DFF1FD" stroke="#0F6FB0"/>
<rect x="161.5" y="188.5" width="23" height="11" rx="3.5" fill="#DFF1FD" stroke="#0F6FB0"/>
<path d="M237.455 179.818H238.688V187.097C238.688 187.746 238.568 188.298 238.33 188.752C238.091 189.206 237.755 189.551 237.32 189.786C236.886 190.022 236.374 190.139 235.784 190.139C235.227 190.139 234.732 190.038 234.298 189.836C233.863 189.63 233.522 189.339 233.273 188.961C233.025 188.583 232.901 188.134 232.901 187.614H234.114C234.114 187.902 234.185 188.154 234.327 188.369C234.473 188.581 234.672 188.747 234.924 188.866C235.176 188.986 235.463 189.045 235.784 189.045C236.139 189.045 236.44 188.971 236.689 188.822C236.938 188.673 237.126 188.454 237.256 188.165C237.388 187.874 237.455 187.518 237.455 187.097V179.818ZM246.167 182.364C246.107 181.86 245.865 181.469 245.441 181.19C245.016 180.912 244.496 180.773 243.88 180.773C243.429 180.773 243.034 180.846 242.696 180.991C242.362 181.137 242.1 181.338 241.911 181.593C241.725 181.848 241.632 182.138 241.632 182.463C241.632 182.735 241.697 182.969 241.826 183.164C241.959 183.356 242.128 183.517 242.333 183.646C242.539 183.772 242.754 183.877 242.98 183.96C243.205 184.039 243.412 184.104 243.601 184.153L244.635 184.432C244.9 184.501 245.195 184.598 245.52 184.72C245.848 184.843 246.162 185.01 246.46 185.222C246.762 185.431 247.01 185.7 247.206 186.028C247.401 186.356 247.499 186.759 247.499 187.236C247.499 187.786 247.355 188.283 247.066 188.727C246.781 189.171 246.364 189.524 245.814 189.786C245.267 190.048 244.602 190.179 243.82 190.179C243.091 190.179 242.459 190.061 241.926 189.826C241.395 189.591 240.978 189.263 240.673 188.842C240.371 188.421 240.201 187.932 240.161 187.375H241.434C241.467 187.759 241.596 188.078 241.821 188.33C242.05 188.578 242.338 188.764 242.686 188.886C243.038 189.006 243.416 189.065 243.82 189.065C244.291 189.065 244.713 188.989 245.088 188.837C245.462 188.681 245.759 188.465 245.978 188.19C246.196 187.912 246.306 187.587 246.306 187.216C246.306 186.878 246.211 186.603 246.022 186.391C245.833 186.179 245.585 186.006 245.277 185.874C244.968 185.741 244.635 185.625 244.277 185.526L243.025 185.168C242.229 184.939 241.599 184.612 241.135 184.188C240.671 183.764 240.439 183.209 240.439 182.523C240.439 181.953 240.593 181.455 240.902 181.031C241.213 180.604 241.631 180.272 242.154 180.037C242.681 179.798 243.27 179.679 243.919 179.679C244.576 179.679 245.159 179.797 245.669 180.032C246.18 180.264 246.584 180.582 246.882 180.987C247.184 181.391 247.343 181.85 247.36 182.364H246.167ZM248.807 190V182.364H249.98V190H248.807ZM249.404 181.091C249.175 181.091 248.978 181.013 248.812 180.857C248.65 180.701 248.568 180.514 248.568 180.295C248.568 180.077 248.65 179.889 248.812 179.734C248.978 179.578 249.175 179.5 249.404 179.5C249.632 179.5 249.828 179.578 249.99 179.734C250.156 179.889 250.239 180.077 250.239 180.295C250.239 180.514 250.156 180.701 249.99 180.857C249.828 181.013 249.632 181.091 249.404 181.091ZM254.652 193.023C254.085 193.023 253.598 192.95 253.19 192.804C252.782 192.661 252.443 192.473 252.171 192.237C251.902 192.005 251.689 191.757 251.53 191.491L252.464 190.835C252.57 190.974 252.704 191.134 252.867 191.312C253.029 191.495 253.251 191.652 253.533 191.785C253.818 191.921 254.191 191.989 254.652 191.989C255.268 191.989 255.777 191.839 256.178 191.541C256.579 191.243 256.78 190.776 256.78 190.139V188.588H256.68C256.594 188.727 256.471 188.9 256.312 189.105C256.156 189.307 255.931 189.488 255.636 189.647C255.344 189.803 254.95 189.881 254.453 189.881C253.836 189.881 253.283 189.735 252.792 189.443C252.305 189.152 251.919 188.727 251.634 188.17C251.352 187.614 251.211 186.937 251.211 186.142C251.211 185.36 251.349 184.679 251.624 184.099C251.899 183.515 252.282 183.065 252.772 182.746C253.263 182.425 253.83 182.264 254.473 182.264C254.97 182.264 255.364 182.347 255.656 182.513C255.951 182.675 256.176 182.861 256.332 183.07C256.491 183.275 256.614 183.444 256.7 183.577H256.819V182.364H257.953V190.219C257.953 190.875 257.804 191.409 257.505 191.82C257.21 192.234 256.813 192.537 256.312 192.729C255.815 192.925 255.262 193.023 254.652 193.023ZM254.612 188.827C255.083 188.827 255.48 188.719 255.805 188.504C256.13 188.288 256.377 187.978 256.546 187.574C256.715 187.17 256.799 186.686 256.799 186.122C256.799 185.572 256.717 185.086 256.551 184.665C256.385 184.245 256.14 183.915 255.815 183.676C255.49 183.437 255.089 183.318 254.612 183.318C254.115 183.318 253.7 183.444 253.369 183.696C253.041 183.948 252.794 184.286 252.628 184.71C252.466 185.134 252.385 185.605 252.385 186.122C252.385 186.652 252.467 187.121 252.633 187.529C252.802 187.933 253.051 188.252 253.379 188.484C253.71 188.712 254.121 188.827 254.612 188.827ZM260.714 185.406V190H259.541V179.818H260.714V183.557H260.813C260.992 183.162 261.261 182.849 261.619 182.617C261.98 182.382 262.461 182.264 263.06 182.264C263.581 182.264 264.037 182.369 264.428 182.577C264.819 182.783 265.122 183.099 265.337 183.527C265.556 183.951 265.666 184.491 265.666 185.148V190H264.492V185.227C264.492 184.621 264.335 184.152 264.02 183.82C263.708 183.486 263.276 183.318 262.722 183.318C262.338 183.318 261.993 183.399 261.688 183.562C261.387 183.724 261.148 183.961 260.972 184.273C260.8 184.584 260.714 184.962 260.714 185.406ZM270.573 182.364V183.358H266.616V182.364H270.573ZM267.769 180.534H268.942V187.812C268.942 188.144 268.99 188.393 269.087 188.558C269.186 188.721 269.312 188.83 269.464 188.886C269.62 188.939 269.784 188.966 269.957 188.966C270.086 188.966 270.192 188.959 270.275 188.946C270.358 188.929 270.424 188.916 270.474 188.906L270.712 189.96C270.633 189.99 270.522 190.02 270.379 190.05C270.237 190.083 270.056 190.099 269.837 190.099C269.506 190.099 269.181 190.028 268.863 189.886C268.548 189.743 268.286 189.526 268.077 189.234C267.872 188.943 267.769 188.575 267.769 188.131V180.534ZM280.883 182.364C280.823 181.86 280.581 181.469 280.157 181.19C279.733 180.912 279.212 180.773 278.596 180.773C278.145 180.773 277.751 180.846 277.413 180.991C277.078 181.137 276.816 181.338 276.627 181.593C276.441 181.848 276.349 182.138 276.349 182.463C276.349 182.735 276.413 182.969 276.543 183.164C276.675 183.356 276.844 183.517 277.05 183.646C277.255 183.772 277.471 183.877 277.696 183.96C277.921 184.039 278.128 184.104 278.317 184.153L279.351 184.432C279.617 184.501 279.912 184.598 280.236 184.72C280.565 184.843 280.878 185.01 281.176 185.222C281.478 185.431 281.726 185.7 281.922 186.028C282.117 186.356 282.215 186.759 282.215 187.236C282.215 187.786 282.071 188.283 281.783 188.727C281.498 189.171 281.08 189.524 280.53 189.786C279.983 190.048 279.318 190.179 278.536 190.179C277.807 190.179 277.176 190.061 276.642 189.826C276.112 189.591 275.694 189.263 275.389 188.842C275.088 188.421 274.917 187.932 274.877 187.375H276.15C276.183 187.759 276.312 188.078 276.538 188.33C276.766 188.578 277.055 188.764 277.403 188.886C277.754 189.006 278.132 189.065 278.536 189.065C279.007 189.065 279.429 188.989 279.804 188.837C280.178 188.681 280.475 188.465 280.694 188.19C280.913 187.912 281.022 187.587 281.022 187.216C281.022 186.878 280.927 186.603 280.739 186.391C280.55 186.179 280.301 186.006 279.993 185.874C279.685 185.741 279.351 185.625 278.994 185.526L277.741 185.168C276.945 184.939 276.316 184.612 275.851 184.188C275.387 183.764 275.155 183.209 275.155 182.523C275.155 181.953 275.31 181.455 275.618 181.031C275.929 180.604 276.347 180.272 276.871 180.037C277.398 179.798 277.986 179.679 278.636 179.679C279.292 179.679 279.875 179.797 280.386 180.032C280.896 180.264 281.3 180.582 281.599 180.987C281.9 181.391 282.059 181.85 282.076 182.364H280.883ZM286.725 190.159C285.989 190.159 285.354 189.997 284.821 189.672C284.29 189.344 283.881 188.886 283.593 188.3C283.308 187.71 283.165 187.024 283.165 186.241C283.165 185.459 283.308 184.77 283.593 184.173C283.881 183.573 284.282 183.106 284.796 182.771C285.313 182.433 285.916 182.264 286.606 182.264C287.003 182.264 287.396 182.33 287.784 182.463C288.172 182.596 288.525 182.811 288.843 183.109C289.161 183.404 289.415 183.795 289.603 184.283C289.792 184.77 289.887 185.37 289.887 186.082V186.58H284V185.565H288.694C288.694 185.134 288.607 184.75 288.435 184.412C288.266 184.074 288.024 183.807 287.709 183.612C287.398 183.416 287.03 183.318 286.606 183.318C286.138 183.318 285.734 183.434 285.393 183.666C285.054 183.895 284.794 184.193 284.612 184.561C284.43 184.929 284.339 185.323 284.339 185.744V186.42C284.339 186.997 284.438 187.486 284.637 187.887C284.839 188.285 285.119 188.588 285.477 188.797C285.835 189.002 286.251 189.105 286.725 189.105C287.033 189.105 287.312 189.062 287.56 188.976C287.812 188.886 288.029 188.754 288.211 188.578C288.394 188.399 288.535 188.177 288.634 187.912L289.768 188.23C289.648 188.615 289.448 188.953 289.166 189.244C288.884 189.533 288.536 189.758 288.122 189.92C287.708 190.08 287.242 190.159 286.725 190.159ZM291.112 190V182.364H292.245V183.517H292.325C292.464 183.139 292.716 182.833 293.08 182.597C293.445 182.362 293.856 182.244 294.313 182.244C294.4 182.244 294.507 182.246 294.636 182.249C294.766 182.253 294.864 182.258 294.93 182.264V183.457C294.89 183.447 294.799 183.433 294.656 183.413C294.517 183.389 294.37 183.378 294.214 183.378C293.843 183.378 293.511 183.456 293.22 183.612C292.931 183.764 292.703 183.976 292.534 184.248C292.368 184.516 292.285 184.823 292.285 185.168V190H291.112ZM302.237 182.364L299.414 190H298.22L295.396 182.364H296.669L298.777 188.449H298.857L300.965 182.364H302.237ZM306.154 190.159C305.418 190.159 304.784 189.997 304.25 189.672C303.72 189.344 303.311 188.886 303.022 188.3C302.737 187.71 302.595 187.024 302.595 186.241C302.595 185.459 302.737 184.77 303.022 184.173C303.311 183.573 303.712 183.106 304.225 182.771C304.742 182.433 305.346 182.264 306.035 182.264C306.433 182.264 306.825 182.33 307.213 182.463C307.601 182.596 307.954 182.811 308.272 183.109C308.59 183.404 308.844 183.795 309.033 184.283C309.222 184.77 309.316 185.37 309.316 186.082V186.58H303.43V185.565H308.123C308.123 185.134 308.037 184.75 307.865 184.412C307.695 184.074 307.454 183.807 307.139 183.612C306.827 183.416 306.459 183.318 306.035 183.318C305.568 183.318 305.163 183.434 304.822 183.666C304.484 183.895 304.224 184.193 304.041 184.561C303.859 184.929 303.768 185.323 303.768 185.744V186.42C303.768 186.997 303.867 187.486 304.066 187.887C304.268 188.285 304.548 188.588 304.906 188.797C305.264 189.002 305.68 189.105 306.154 189.105C306.463 189.105 306.741 189.062 306.99 188.976C307.241 188.886 307.458 188.754 307.641 188.578C307.823 188.399 307.964 188.177 308.063 187.912L309.197 188.23C309.078 188.615 308.877 188.953 308.595 189.244C308.314 189.533 307.966 189.758 307.551 189.92C307.137 190.08 306.671 190.159 306.154 190.159ZM310.541 190V182.364H311.675V183.517H311.754C311.893 183.139 312.145 182.833 312.51 182.597C312.874 182.362 313.285 182.244 313.743 182.244C313.829 182.244 313.937 182.246 314.066 182.249C314.195 182.253 314.293 182.258 314.359 182.264V183.457C314.319 183.447 314.228 183.433 314.086 183.413C313.947 183.389 313.799 183.378 313.643 183.378C313.272 183.378 312.941 183.456 312.649 183.612C312.361 183.764 312.132 183.976 311.963 184.248C311.797 184.516 311.714 184.823 311.714 185.168V190H310.541ZM261.462 203.705C261.462 202.452 261.625 201.3 261.95 200.249C262.278 199.195 262.745 198.226 263.352 197.341H264.386C264.147 197.669 263.923 198.073 263.714 198.554C263.509 199.031 263.328 199.557 263.173 200.13C263.017 200.7 262.894 201.29 262.805 201.9C262.718 202.51 262.675 203.111 262.675 203.705C262.675 204.493 262.752 205.294 262.904 206.106C263.057 206.918 263.262 207.672 263.521 208.368C263.779 209.064 264.067 209.631 264.386 210.068H263.352C262.745 209.183 262.278 208.215 261.95 207.165C261.625 206.111 261.462 204.957 261.462 203.705ZM272.676 201C272.567 200.665 272.423 200.365 272.244 200.1C272.068 199.832 271.858 199.603 271.612 199.414C271.37 199.225 271.095 199.081 270.787 198.982C270.479 198.882 270.141 198.832 269.773 198.832C269.17 198.832 268.621 198.988 268.127 199.3C267.633 199.611 267.241 200.07 266.949 200.677C266.657 201.283 266.512 202.027 266.512 202.909C266.512 203.791 266.659 204.535 266.954 205.141C267.249 205.748 267.648 206.207 268.152 206.518C268.656 206.83 269.223 206.986 269.852 206.986C270.436 206.986 270.95 206.862 271.394 206.613C271.841 206.361 272.189 206.006 272.438 205.549C272.69 205.088 272.816 204.546 272.816 203.923L273.193 204.003H270.131V202.909H274.009V204.003C274.009 204.841 273.83 205.571 273.472 206.19C273.117 206.81 272.627 207.291 272 207.632C271.377 207.97 270.661 208.139 269.852 208.139C268.951 208.139 268.159 207.927 267.476 207.503C266.797 207.079 266.266 206.475 265.885 205.693C265.507 204.911 265.318 203.983 265.318 202.909C265.318 202.104 265.426 201.379 265.642 200.737C265.86 200.09 266.168 199.54 266.566 199.086C266.964 198.632 267.435 198.284 267.978 198.042C268.522 197.8 269.12 197.679 269.773 197.679C270.31 197.679 270.81 197.76 271.274 197.923C271.742 198.082 272.158 198.309 272.522 198.604C272.89 198.895 273.197 199.245 273.442 199.653C273.687 200.057 273.856 200.506 273.949 201H272.676ZM278.504 208.159C277.814 208.159 277.209 207.995 276.689 207.667C276.172 207.339 275.768 206.88 275.476 206.29C275.188 205.7 275.043 205.01 275.043 204.222C275.043 203.426 275.188 202.732 275.476 202.138C275.768 201.545 276.172 201.085 276.689 200.756C277.209 200.428 277.814 200.264 278.504 200.264C279.193 200.264 279.796 200.428 280.313 200.756C280.834 201.085 281.238 201.545 281.526 202.138C281.818 202.732 281.964 203.426 281.964 204.222C281.964 205.01 281.818 205.7 281.526 206.29C281.238 206.88 280.834 207.339 280.313 207.667C279.796 207.995 279.193 208.159 278.504 208.159ZM278.504 207.105C279.027 207.105 279.458 206.971 279.796 206.702C280.134 206.434 280.384 206.081 280.547 205.643C280.709 205.206 280.79 204.732 280.79 204.222C280.79 203.711 280.709 203.236 280.547 202.795C280.384 202.354 280.134 201.998 279.796 201.726C279.458 201.454 279.027 201.318 278.504 201.318C277.98 201.318 277.549 201.454 277.211 201.726C276.873 201.998 276.623 202.354 276.46 202.795C276.298 203.236 276.217 203.711 276.217 204.222C276.217 204.732 276.298 205.206 276.46 205.643C276.623 206.081 276.873 206.434 277.211 206.702C277.549 206.971 277.98 207.105 278.504 207.105ZM285.536 203.705C285.536 204.957 285.372 206.111 285.044 207.165C284.719 208.215 284.254 209.183 283.647 210.068H282.613C282.852 209.74 283.074 209.336 283.279 208.855C283.488 208.378 283.67 207.854 283.826 207.284C283.982 206.711 284.103 206.119 284.189 205.509C284.279 204.896 284.323 204.295 284.323 203.705C284.323 202.916 284.247 202.115 284.095 201.303C283.942 200.491 283.737 199.737 283.478 199.041C283.22 198.345 282.931 197.778 282.613 197.341H283.647C284.254 198.226 284.719 199.195 285.044 200.249C285.372 201.3 285.536 202.452 285.536 203.705Z" fill="#1B1128"/>
<path d="M301.293 111.818H302.825V119.037C302.825 119.69 302.695 120.248 302.437 120.712C302.182 121.176 301.822 121.531 301.358 121.776C300.894 122.018 300.35 122.139 299.727 122.139C299.154 122.139 298.638 122.035 298.181 121.826C297.727 121.617 297.367 121.314 297.102 120.916C296.84 120.515 296.709 120.028 296.709 119.455H298.236C298.236 119.736 298.3 119.98 298.43 120.185C298.562 120.391 298.743 120.552 298.972 120.668C299.204 120.78 299.469 120.837 299.767 120.837C300.092 120.837 300.367 120.769 300.592 120.633C300.821 120.494 300.995 120.29 301.114 120.021C301.234 119.753 301.293 119.425 301.293 119.037V111.818ZM310.054 114.493C310.001 114.022 309.782 113.658 309.398 113.399C309.013 113.137 308.529 113.006 307.946 113.006C307.528 113.006 307.167 113.073 306.862 113.205C306.557 113.335 306.32 113.513 306.151 113.742C305.985 113.968 305.903 114.224 305.903 114.513C305.903 114.755 305.959 114.964 306.072 115.139C306.188 115.315 306.338 115.462 306.524 115.582C306.713 115.698 306.915 115.795 307.13 115.875C307.346 115.951 307.553 116.014 307.752 116.064L308.746 116.322C309.071 116.402 309.404 116.51 309.746 116.646C310.087 116.781 310.403 116.96 310.695 117.183C310.987 117.405 311.222 117.68 311.401 118.008C311.583 118.336 311.675 118.729 311.675 119.186C311.675 119.763 311.525 120.275 311.227 120.722C310.932 121.17 310.503 121.523 309.939 121.781C309.379 122.04 308.702 122.169 307.906 122.169C307.144 122.169 306.484 122.048 305.927 121.806C305.371 121.564 304.935 121.221 304.62 120.777C304.305 120.33 304.131 119.799 304.098 119.186H305.639C305.669 119.554 305.788 119.861 305.997 120.106C306.209 120.348 306.479 120.528 306.807 120.648C307.139 120.764 307.502 120.822 307.896 120.822C308.33 120.822 308.716 120.754 309.054 120.618C309.396 120.479 309.664 120.286 309.86 120.041C310.055 119.793 310.153 119.503 310.153 119.171C310.153 118.87 310.067 118.623 309.895 118.43C309.726 118.238 309.495 118.079 309.204 117.953C308.915 117.827 308.589 117.716 308.224 117.62L307.021 117.292C306.206 117.07 305.559 116.743 305.082 116.312C304.608 115.882 304.371 115.312 304.371 114.602C304.371 114.016 304.53 113.504 304.849 113.066C305.167 112.629 305.598 112.289 306.141 112.047C306.685 111.802 307.298 111.679 307.981 111.679C308.67 111.679 309.278 111.8 309.805 112.042C310.336 112.284 310.753 112.617 311.058 113.041C311.363 113.462 311.522 113.946 311.535 114.493H310.054ZM312.831 122V114.364H314.317V122H312.831ZM313.582 113.185C313.323 113.185 313.101 113.099 312.915 112.927C312.733 112.751 312.642 112.542 312.642 112.3C312.642 112.055 312.733 111.846 312.915 111.674C313.101 111.498 313.323 111.411 313.582 111.411C313.84 111.411 314.061 111.498 314.243 111.674C314.429 111.846 314.521 112.055 314.521 112.3C314.521 112.542 314.429 112.751 314.243 112.927C314.061 113.099 313.84 113.185 313.582 113.185ZM318.959 125.023C318.352 125.023 317.83 124.943 317.393 124.784C316.959 124.625 316.604 124.415 316.329 124.153C316.054 123.891 315.848 123.604 315.713 123.293L316.99 122.766C317.08 122.911 317.199 123.066 317.348 123.228C317.501 123.394 317.706 123.535 317.965 123.651C318.227 123.767 318.563 123.825 318.974 123.825C319.537 123.825 320.003 123.687 320.371 123.412C320.739 123.14 320.923 122.706 320.923 122.109V120.608H320.828C320.739 120.77 320.61 120.951 320.441 121.15C320.275 121.349 320.046 121.521 319.754 121.667C319.463 121.813 319.083 121.886 318.616 121.886C318.013 121.886 317.469 121.745 316.985 121.463C316.505 121.178 316.124 120.759 315.842 120.205C315.563 119.648 315.424 118.964 315.424 118.152C315.424 117.34 315.562 116.644 315.837 116.064C316.115 115.484 316.496 115.04 316.98 114.732C317.464 114.42 318.013 114.264 318.626 114.264C319.1 114.264 319.483 114.344 319.774 114.503C320.066 114.659 320.293 114.841 320.455 115.05C320.621 115.259 320.749 115.442 320.838 115.602H320.948V114.364H322.404V122.169C322.404 122.825 322.252 123.364 321.947 123.785C321.642 124.206 321.229 124.517 320.709 124.719C320.192 124.922 319.609 125.023 318.959 125.023ZM318.944 120.653C319.372 120.653 319.733 120.553 320.028 120.354C320.326 120.152 320.552 119.864 320.704 119.489C320.86 119.112 320.938 118.659 320.938 118.132C320.938 117.618 320.861 117.166 320.709 116.775C320.557 116.384 320.333 116.079 320.038 115.86C319.743 115.638 319.378 115.527 318.944 115.527C318.497 115.527 318.124 115.643 317.825 115.875C317.527 116.104 317.302 116.415 317.149 116.81C317 117.204 316.926 117.645 316.926 118.132C316.926 118.633 317.002 119.072 317.154 119.45C317.307 119.827 317.532 120.122 317.83 120.335C318.132 120.547 318.503 120.653 318.944 120.653ZM325.324 117.466V122H323.838V111.818H325.305V115.607H325.399C325.578 115.196 325.851 114.869 326.219 114.627C326.587 114.385 327.068 114.264 327.661 114.264C328.185 114.264 328.642 114.372 329.033 114.587C329.428 114.803 329.733 115.124 329.948 115.552C330.167 115.976 330.276 116.506 330.276 117.143V122H328.79V117.322C328.79 116.762 328.645 116.327 328.357 116.019C328.069 115.708 327.668 115.552 327.154 115.552C326.803 115.552 326.488 115.626 326.209 115.776C325.934 115.925 325.717 116.143 325.558 116.432C325.402 116.717 325.324 117.062 325.324 117.466ZM335.264 114.364V115.557H331.093V114.364H335.264ZM332.212 112.534H333.698V119.758C333.698 120.046 333.741 120.263 333.828 120.409C333.914 120.552 334.025 120.649 334.161 120.702C334.3 120.752 334.451 120.777 334.613 120.777C334.732 120.777 334.837 120.769 334.926 120.752C335.016 120.736 335.085 120.722 335.135 120.712L335.404 121.94C335.317 121.973 335.195 122.007 335.036 122.04C334.877 122.076 334.678 122.096 334.439 122.099C334.048 122.106 333.683 122.036 333.345 121.891C333.007 121.745 332.734 121.519 332.525 121.214C332.316 120.91 332.212 120.527 332.212 120.066V112.534ZM345.166 114.493C345.113 114.022 344.895 113.658 344.51 113.399C344.126 113.137 343.642 113.006 343.058 113.006C342.641 113.006 342.28 113.073 341.975 113.205C341.67 113.335 341.433 113.513 341.264 113.742C341.098 113.968 341.015 114.224 341.015 114.513C341.015 114.755 341.072 114.964 341.184 115.139C341.3 115.315 341.451 115.462 341.637 115.582C341.826 115.698 342.028 115.795 342.243 115.875C342.459 115.951 342.666 116.014 342.865 116.064L343.859 116.322C344.184 116.402 344.517 116.51 344.858 116.646C345.2 116.781 345.516 116.96 345.808 117.183C346.099 117.405 346.335 117.68 346.514 118.008C346.696 118.336 346.787 118.729 346.787 119.186C346.787 119.763 346.638 120.275 346.34 120.722C346.045 121.17 345.616 121.523 345.052 121.781C344.492 122.04 343.814 122.169 343.019 122.169C342.256 122.169 341.597 122.048 341.04 121.806C340.483 121.564 340.047 121.221 339.732 120.777C339.418 120.33 339.244 119.799 339.21 119.186H340.752C340.782 119.554 340.901 119.861 341.11 120.106C341.322 120.348 341.592 120.528 341.92 120.648C342.251 120.764 342.614 120.822 343.009 120.822C343.443 120.822 343.829 120.754 344.167 120.618C344.509 120.479 344.777 120.286 344.973 120.041C345.168 119.793 345.266 119.503 345.266 119.171C345.266 118.87 345.18 118.623 345.007 118.43C344.838 118.238 344.608 118.079 344.316 117.953C344.028 117.827 343.701 117.716 343.337 117.62L342.134 117.292C341.318 117.07 340.672 116.743 340.195 116.312C339.721 115.882 339.484 115.312 339.484 114.602C339.484 114.016 339.643 113.504 339.961 113.066C340.279 112.629 340.71 112.289 341.254 112.047C341.797 111.802 342.411 111.679 343.093 111.679C343.783 111.679 344.391 111.8 344.918 112.042C345.448 112.284 345.866 112.617 346.171 113.041C346.476 113.462 346.635 113.946 346.648 114.493H345.166ZM351.235 122.154C350.482 122.154 349.834 121.993 349.291 121.672C348.751 121.347 348.333 120.891 348.038 120.305C347.746 119.715 347.601 119.024 347.601 118.232C347.601 117.449 347.746 116.76 348.038 116.163C348.333 115.567 348.744 115.101 349.271 114.766C349.801 114.432 350.421 114.264 351.13 114.264C351.561 114.264 351.979 114.335 352.383 114.478C352.788 114.621 353.151 114.844 353.472 115.149C353.794 115.454 354.047 115.85 354.233 116.337C354.418 116.821 354.511 117.41 354.511 118.102V118.629H348.441V117.516H353.054C353.054 117.125 352.975 116.778 352.816 116.477C352.657 116.172 352.433 115.931 352.145 115.756C351.86 115.58 351.525 115.492 351.14 115.492C350.723 115.492 350.358 115.595 350.047 115.8C349.738 116.003 349.5 116.268 349.331 116.596C349.165 116.921 349.082 117.274 349.082 117.655V118.525C349.082 119.035 349.172 119.469 349.351 119.827C349.533 120.185 349.786 120.459 350.111 120.648C350.436 120.833 350.816 120.926 351.25 120.926C351.531 120.926 351.788 120.886 352.02 120.807C352.252 120.724 352.453 120.601 352.622 120.439C352.791 120.277 352.92 120.076 353.01 119.837L354.417 120.091C354.304 120.505 354.102 120.868 353.81 121.18C353.522 121.488 353.159 121.728 352.721 121.901C352.287 122.07 351.792 122.154 351.235 122.154ZM355.6 122V114.364H357.037V115.577H357.117C357.256 115.166 357.501 114.843 357.853 114.607C358.207 114.369 358.608 114.249 359.056 114.249C359.148 114.249 359.258 114.253 359.384 114.259C359.513 114.266 359.614 114.274 359.687 114.284V115.706C359.627 115.689 359.521 115.671 359.369 115.651C359.216 115.628 359.064 115.616 358.912 115.616C358.56 115.616 358.247 115.691 357.972 115.84C357.7 115.986 357.485 116.19 357.326 116.452C357.166 116.71 357.087 117.005 357.087 117.337V122H355.6ZM367.179 114.364L364.409 122H362.818L360.044 114.364H361.64L363.574 120.24H363.654L365.583 114.364H367.179ZM371.047 122.154C370.295 122.154 369.647 121.993 369.103 121.672C368.563 121.347 368.145 120.891 367.85 120.305C367.559 119.715 367.413 119.024 367.413 118.232C367.413 117.449 367.559 116.76 367.85 116.163C368.145 115.567 368.556 115.101 369.083 114.766C369.614 114.432 370.233 114.264 370.943 114.264C371.373 114.264 371.791 114.335 372.195 114.478C372.6 114.621 372.963 114.844 373.284 115.149C373.606 115.454 373.859 115.85 374.045 116.337C374.23 116.821 374.323 117.41 374.323 118.102V118.629H368.253V117.516H372.867C372.867 117.125 372.787 116.778 372.628 116.477C372.469 116.172 372.245 115.931 371.957 115.756C371.672 115.58 371.337 115.492 370.953 115.492C370.535 115.492 370.17 115.595 369.859 115.8C369.551 116.003 369.312 116.268 369.143 116.596C368.977 116.921 368.894 117.274 368.894 117.655V118.525C368.894 119.035 368.984 119.469 369.163 119.827C369.345 120.185 369.599 120.459 369.923 120.648C370.248 120.833 370.628 120.926 371.062 120.926C371.344 120.926 371.601 120.886 371.833 120.807C372.065 120.724 372.265 120.601 372.434 120.439C372.603 120.277 372.732 120.076 372.822 119.837L374.229 120.091C374.116 120.505 373.914 120.868 373.622 121.18C373.334 121.488 372.971 121.728 372.534 121.901C372.099 122.07 371.604 122.154 371.047 122.154ZM375.413 122V114.364H376.849V115.577H376.929C377.068 115.166 377.313 114.843 377.665 114.607C378.019 114.369 378.42 114.249 378.868 114.249C378.961 114.249 379.07 114.253 379.196 114.259C379.325 114.266 379.426 114.274 379.499 114.284V115.706C379.44 115.689 379.334 115.671 379.181 115.651C379.029 115.628 378.876 115.616 378.724 115.616C378.372 115.616 378.059 115.691 377.784 115.84C377.512 115.986 377.297 116.19 377.138 116.452C376.979 116.71 376.899 117.005 376.899 117.337V122H375.413ZM384.35 122H382.719L386.384 111.818H388.158L391.822 122H390.192L387.313 113.668H387.234L384.35 122ZM384.624 118.013H389.913V119.305H384.624V118.013ZM392.733 122V111.818H396.362C397.154 111.818 397.81 111.962 398.331 112.251C398.851 112.539 399.241 112.933 399.499 113.434C399.758 113.931 399.887 114.491 399.887 115.114C399.887 115.741 399.756 116.304 399.494 116.805C399.236 117.302 398.845 117.696 398.321 117.988C397.8 118.276 397.146 118.42 396.357 118.42H393.861V117.118H396.218C396.718 117.118 397.124 117.032 397.436 116.859C397.747 116.684 397.976 116.445 398.122 116.143C398.268 115.842 398.341 115.499 398.341 115.114C398.341 114.73 398.268 114.388 398.122 114.09C397.976 113.792 397.746 113.558 397.431 113.389C397.119 113.22 396.708 113.136 396.198 113.136H394.269V122H392.733ZM402.664 111.818V122H401.128V111.818H402.664Z" fill="#0F6FB0"/>
<rect x="332.5" y="312.5" width="199" height="75" rx="7.5" fill="#FFF1DF" stroke="#E4A355"/>
<rect x="320.5" y="328.5" width="23" height="11" rx="3.5" fill="#FFF1DF" stroke="#E4A355"/>
<rect x="320.5" y="344.5" width="23" height="11" rx="3.5" fill="#FFF1DF" stroke="#E4A355"/>
<path d="M358.191 335.818H359.424V343.097C359.424 343.746 359.304 344.298 359.066 344.752C358.827 345.206 358.491 345.551 358.057 345.786C357.622 346.022 357.11 346.139 356.52 346.139C355.964 346.139 355.468 346.038 355.034 345.836C354.6 345.63 354.258 345.339 354.01 344.961C353.761 344.583 353.637 344.134 353.637 343.614H354.85C354.85 343.902 354.921 344.154 355.064 344.369C355.21 344.581 355.408 344.747 355.66 344.866C355.912 344.986 356.199 345.045 356.52 345.045C356.875 345.045 357.177 344.971 357.425 344.822C357.674 344.673 357.863 344.454 357.992 344.165C358.125 343.874 358.191 343.518 358.191 343.097V335.818ZM366.903 338.364C366.843 337.86 366.601 337.469 366.177 337.19C365.753 336.912 365.232 336.773 364.616 336.773C364.165 336.773 363.771 336.846 363.433 336.991C363.098 337.137 362.836 337.338 362.647 337.593C362.462 337.848 362.369 338.138 362.369 338.463C362.369 338.735 362.433 338.969 362.563 339.164C362.695 339.356 362.864 339.517 363.07 339.646C363.275 339.772 363.491 339.877 363.716 339.96C363.941 340.039 364.149 340.104 364.337 340.153L365.372 340.432C365.637 340.501 365.932 340.598 366.257 340.72C366.585 340.843 366.898 341.01 367.196 341.222C367.498 341.431 367.746 341.7 367.942 342.028C368.137 342.356 368.235 342.759 368.235 343.236C368.235 343.786 368.091 344.283 367.803 344.727C367.518 345.171 367.1 345.524 366.55 345.786C366.003 346.048 365.338 346.179 364.556 346.179C363.827 346.179 363.196 346.061 362.662 345.826C362.132 345.591 361.714 345.263 361.409 344.842C361.108 344.421 360.937 343.932 360.897 343.375H362.17C362.203 343.759 362.332 344.078 362.558 344.33C362.786 344.578 363.075 344.764 363.423 344.886C363.774 345.006 364.152 345.065 364.556 345.065C365.027 345.065 365.449 344.989 365.824 344.837C366.199 344.681 366.495 344.465 366.714 344.19C366.933 343.912 367.042 343.587 367.042 343.216C367.042 342.878 366.948 342.603 366.759 342.391C366.57 342.179 366.321 342.006 366.013 341.874C365.705 341.741 365.372 341.625 365.014 341.526L363.761 341.168C362.965 340.939 362.336 340.612 361.872 340.188C361.408 339.764 361.176 339.209 361.176 338.523C361.176 337.953 361.33 337.455 361.638 337.031C361.949 336.604 362.367 336.272 362.891 336.037C363.418 335.798 364.006 335.679 364.656 335.679C365.312 335.679 365.895 335.797 366.406 336.032C366.916 336.264 367.32 336.582 367.619 336.987C367.92 337.391 368.079 337.85 368.096 338.364H366.903ZM369.543 346V338.364H370.717V346H369.543ZM370.14 337.091C369.911 337.091 369.714 337.013 369.548 336.857C369.386 336.701 369.305 336.514 369.305 336.295C369.305 336.077 369.386 335.889 369.548 335.734C369.714 335.578 369.911 335.5 370.14 335.5C370.369 335.5 370.564 335.578 370.727 335.734C370.892 335.889 370.975 336.077 370.975 336.295C370.975 336.514 370.892 336.701 370.727 336.857C370.564 337.013 370.369 337.091 370.14 337.091ZM375.388 349.023C374.821 349.023 374.334 348.95 373.926 348.804C373.519 348.661 373.179 348.473 372.907 348.237C372.639 348.005 372.425 347.757 372.266 347.491L373.2 346.835C373.306 346.974 373.441 347.134 373.603 347.312C373.766 347.495 373.988 347.652 374.269 347.785C374.554 347.921 374.927 347.989 375.388 347.989C376.004 347.989 376.513 347.839 376.914 347.541C377.315 347.243 377.516 346.776 377.516 346.139V344.588H377.416C377.33 344.727 377.208 344.9 377.048 345.105C376.893 345.307 376.667 345.488 376.372 345.647C376.081 345.803 375.686 345.881 375.189 345.881C374.573 345.881 374.019 345.735 373.529 345.443C373.041 345.152 372.655 344.727 372.37 344.17C372.088 343.614 371.948 342.937 371.948 342.142C371.948 341.36 372.085 340.679 372.36 340.099C372.635 339.515 373.018 339.065 373.509 338.746C373.999 338.425 374.566 338.264 375.209 338.264C375.706 338.264 376.101 338.347 376.392 338.513C376.687 338.675 376.913 338.861 377.068 339.07C377.227 339.275 377.35 339.444 377.436 339.577H377.556V338.364H378.689V346.219C378.689 346.875 378.54 347.409 378.242 347.82C377.947 348.234 377.549 348.537 377.048 348.729C376.551 348.925 375.998 349.023 375.388 349.023ZM375.348 344.827C375.819 344.827 376.217 344.719 376.541 344.504C376.866 344.288 377.113 343.978 377.282 343.574C377.451 343.17 377.536 342.686 377.536 342.122C377.536 341.572 377.453 341.086 377.287 340.665C377.121 340.245 376.876 339.915 376.551 339.676C376.226 339.437 375.825 339.318 375.348 339.318C374.851 339.318 374.437 339.444 374.105 339.696C373.777 339.948 373.53 340.286 373.364 340.71C373.202 341.134 373.121 341.605 373.121 342.122C373.121 342.652 373.204 343.121 373.369 343.529C373.539 343.933 373.787 344.252 374.115 344.484C374.447 344.712 374.858 344.827 375.348 344.827ZM381.45 341.406V346H380.277V335.818H381.45V339.557H381.55C381.729 339.162 381.997 338.849 382.355 338.617C382.716 338.382 383.197 338.264 383.797 338.264C384.317 338.264 384.773 338.369 385.164 338.577C385.555 338.783 385.858 339.099 386.074 339.527C386.292 339.951 386.402 340.491 386.402 341.148V346H385.229V341.227C385.229 340.621 385.071 340.152 384.756 339.82C384.445 339.486 384.012 339.318 383.459 339.318C383.074 339.318 382.729 339.399 382.425 339.562C382.123 339.724 381.884 339.961 381.709 340.273C381.536 340.584 381.45 340.962 381.45 341.406ZM391.309 338.364V339.358H387.352V338.364H391.309ZM388.505 336.534H389.679V343.812C389.679 344.144 389.727 344.393 389.823 344.558C389.922 344.721 390.048 344.83 390.201 344.886C390.356 344.939 390.52 344.966 390.693 344.966C390.822 344.966 390.928 344.959 391.011 344.946C391.094 344.929 391.16 344.916 391.21 344.906L391.449 345.96C391.369 345.99 391.258 346.02 391.115 346.05C390.973 346.083 390.792 346.099 390.574 346.099C390.242 346.099 389.917 346.028 389.599 345.886C389.284 345.743 389.022 345.526 388.814 345.234C388.608 344.943 388.505 344.575 388.505 344.131V336.534ZM401.619 338.364C401.559 337.86 401.317 337.469 400.893 337.19C400.469 336.912 399.949 336.773 399.332 336.773C398.881 336.773 398.487 336.846 398.149 336.991C397.814 337.137 397.552 337.338 397.363 337.593C397.178 337.848 397.085 338.138 397.085 338.463C397.085 338.735 397.15 338.969 397.279 339.164C397.411 339.356 397.58 339.517 397.786 339.646C397.991 339.772 398.207 339.877 398.432 339.96C398.658 340.039 398.865 340.104 399.054 340.153L400.088 340.432C400.353 340.501 400.648 340.598 400.973 340.72C401.301 340.843 401.614 341.01 401.912 341.222C402.214 341.431 402.463 341.7 402.658 342.028C402.854 342.356 402.951 342.759 402.951 343.236C402.951 343.786 402.807 344.283 402.519 344.727C402.234 345.171 401.816 345.524 401.266 345.786C400.719 346.048 400.055 346.179 399.272 346.179C398.543 346.179 397.912 346.061 397.378 345.826C396.848 345.591 396.43 345.263 396.125 344.842C395.824 344.421 395.653 343.932 395.613 343.375H396.886C396.919 343.759 397.048 344.078 397.274 344.33C397.503 344.578 397.791 344.764 398.139 344.886C398.49 345.006 398.868 345.065 399.272 345.065C399.743 345.065 400.166 344.989 400.54 344.837C400.915 344.681 401.211 344.465 401.43 344.19C401.649 343.912 401.758 343.587 401.758 343.216C401.758 342.878 401.664 342.603 401.475 342.391C401.286 342.179 401.037 342.006 400.729 341.874C400.421 341.741 400.088 341.625 399.73 341.526L398.477 341.168C397.681 340.939 397.052 340.612 396.588 340.188C396.124 339.764 395.892 339.209 395.892 338.523C395.892 337.953 396.046 337.455 396.354 337.031C396.666 336.604 397.083 336.272 397.607 336.037C398.134 335.798 398.722 335.679 399.372 335.679C400.028 335.679 400.611 335.797 401.122 336.032C401.632 336.264 402.037 336.582 402.335 336.987C402.637 337.391 402.796 337.85 402.812 338.364H401.619ZM407.362 346.159C406.646 346.159 406.029 345.99 405.512 345.652C404.995 345.314 404.598 344.848 404.319 344.255C404.041 343.662 403.901 342.984 403.901 342.222C403.901 341.446 404.044 340.762 404.329 340.168C404.617 339.572 405.018 339.106 405.532 338.771C406.049 338.433 406.652 338.264 407.342 338.264C407.879 338.264 408.363 338.364 408.794 338.562C409.224 338.761 409.577 339.04 409.852 339.398C410.128 339.756 410.298 340.173 410.365 340.651H409.191C409.102 340.303 408.903 339.994 408.595 339.726C408.29 339.454 407.879 339.318 407.362 339.318C406.904 339.318 406.503 339.437 406.159 339.676C405.817 339.911 405.55 340.245 405.358 340.675C405.169 341.103 405.075 341.605 405.075 342.182C405.075 342.772 405.168 343.286 405.353 343.723C405.542 344.161 405.807 344.5 406.149 344.742C406.493 344.984 406.898 345.105 407.362 345.105C407.667 345.105 407.943 345.052 408.192 344.946C408.441 344.84 408.651 344.688 408.823 344.489C408.996 344.29 409.118 344.051 409.191 343.773H410.365C410.298 344.223 410.134 344.629 409.872 344.991C409.614 345.349 409.271 345.634 408.843 345.846C408.419 346.055 407.925 346.159 407.362 346.159ZM412.693 341.406V346H411.52V335.818H412.693V339.557H412.792C412.971 339.162 413.24 338.849 413.598 338.617C413.959 338.382 414.44 338.264 415.04 338.264C415.56 338.264 416.016 338.369 416.407 338.577C416.798 338.783 417.101 339.099 417.317 339.527C417.535 339.951 417.645 340.491 417.645 341.148V346H416.471V341.227C416.471 340.621 416.314 340.152 415.999 339.82C415.688 339.486 415.255 339.318 414.702 339.318C414.317 339.318 413.972 339.399 413.667 339.562C413.366 339.724 413.127 339.961 412.952 340.273C412.779 340.584 412.693 340.962 412.693 341.406ZM422.433 346.159C421.697 346.159 421.062 345.997 420.529 345.672C419.999 345.344 419.589 344.886 419.301 344.3C419.016 343.71 418.873 343.024 418.873 342.241C418.873 341.459 419.016 340.77 419.301 340.173C419.589 339.573 419.99 339.106 420.504 338.771C421.021 338.433 421.624 338.264 422.314 338.264C422.711 338.264 423.104 338.33 423.492 338.463C423.88 338.596 424.233 338.811 424.551 339.109C424.869 339.404 425.123 339.795 425.312 340.283C425.5 340.77 425.595 341.37 425.595 342.082V342.58H419.709V341.565H424.402C424.402 341.134 424.316 340.75 424.143 340.412C423.974 340.074 423.732 339.807 423.417 339.612C423.106 339.416 422.738 339.318 422.314 339.318C421.846 339.318 421.442 339.434 421.101 339.666C420.763 339.895 420.502 340.193 420.32 340.561C420.138 340.929 420.047 341.323 420.047 341.744V342.42C420.047 342.997 420.146 343.486 420.345 343.887C420.547 344.285 420.827 344.588 421.185 344.797C421.543 345.002 421.959 345.105 422.433 345.105C422.741 345.105 423.02 345.062 423.268 344.976C423.52 344.886 423.737 344.754 423.919 344.578C424.102 344.399 424.243 344.177 424.342 343.912L425.476 344.23C425.356 344.615 425.156 344.953 424.874 345.244C424.592 345.533 424.244 345.758 423.83 345.92C423.416 346.08 422.95 346.159 422.433 346.159ZM426.82 346V338.364H427.953V339.557H428.053C428.212 339.149 428.469 338.833 428.823 338.607C429.178 338.379 429.604 338.264 430.101 338.264C430.605 338.264 431.024 338.379 431.359 338.607C431.697 338.833 431.96 339.149 432.149 339.557H432.229C432.424 339.162 432.718 338.849 433.109 338.617C433.5 338.382 433.969 338.264 434.516 338.264C435.198 338.264 435.757 338.478 436.191 338.906C436.625 339.33 436.842 339.991 436.842 340.889V346H435.669V340.889C435.669 340.326 435.515 339.923 435.207 339.681C434.899 339.439 434.536 339.318 434.118 339.318C433.581 339.318 433.165 339.481 432.87 339.805C432.575 340.127 432.428 340.535 432.428 341.028V346H431.234V340.77C431.234 340.336 431.094 339.986 430.812 339.721C430.53 339.452 430.167 339.318 429.723 339.318C429.418 339.318 429.133 339.399 428.868 339.562C428.606 339.724 428.394 339.95 428.232 340.238C428.073 340.523 427.993 340.853 427.993 341.227V346H426.82ZM440.675 346.179C440.191 346.179 439.752 346.088 439.357 345.906C438.963 345.72 438.65 345.453 438.418 345.105C438.186 344.754 438.07 344.33 438.07 343.832C438.07 343.395 438.156 343.04 438.328 342.768C438.501 342.493 438.731 342.278 439.019 342.122C439.308 341.966 439.626 341.85 439.974 341.774C440.325 341.695 440.678 341.632 441.033 341.585C441.497 341.526 441.873 341.481 442.161 341.451C442.453 341.418 442.665 341.363 442.798 341.287C442.934 341.211 443.002 341.078 443.002 340.889V340.849C443.002 340.359 442.867 339.978 442.599 339.706C442.334 339.434 441.931 339.298 441.391 339.298C440.831 339.298 440.391 339.421 440.073 339.666C439.755 339.911 439.531 340.173 439.402 340.452L438.288 340.054C438.487 339.59 438.752 339.229 439.084 338.97C439.419 338.708 439.783 338.526 440.178 338.423C440.575 338.317 440.966 338.264 441.351 338.264C441.596 338.264 441.878 338.294 442.196 338.354C442.518 338.41 442.828 338.528 443.126 338.707C443.427 338.886 443.678 339.156 443.877 339.517C444.075 339.878 444.175 340.362 444.175 340.969V346H443.002V344.966H442.942C442.862 345.132 442.73 345.309 442.544 345.498C442.359 345.687 442.112 345.848 441.803 345.98C441.495 346.113 441.119 346.179 440.675 346.179ZM440.854 345.125C441.318 345.125 441.709 345.034 442.027 344.852C442.349 344.669 442.591 344.434 442.753 344.146C442.919 343.857 443.002 343.554 443.002 343.236V342.162C442.952 342.222 442.842 342.276 442.673 342.326C442.508 342.372 442.315 342.414 442.097 342.45C441.881 342.483 441.671 342.513 441.465 342.54C441.263 342.563 441.099 342.583 440.973 342.599C440.668 342.639 440.383 342.704 440.118 342.793C439.856 342.879 439.644 343.01 439.482 343.186C439.323 343.358 439.243 343.594 439.243 343.892C439.243 344.3 439.394 344.608 439.695 344.817C440 345.022 440.386 345.125 440.854 345.125ZM456.253 339C456.144 338.665 456 338.365 455.821 338.1C455.645 337.832 455.434 337.603 455.189 337.414C454.947 337.225 454.672 337.081 454.364 336.982C454.056 336.882 453.718 336.832 453.35 336.832C452.747 336.832 452.198 336.988 451.704 337.3C451.21 337.611 450.818 338.07 450.526 338.677C450.234 339.283 450.088 340.027 450.088 340.909C450.088 341.791 450.236 342.535 450.531 343.141C450.826 343.748 451.225 344.207 451.729 344.518C452.233 344.83 452.8 344.986 453.429 344.986C454.013 344.986 454.526 344.862 454.97 344.613C455.418 344.361 455.766 344.006 456.015 343.549C456.266 343.088 456.392 342.546 456.392 341.923L456.77 342.003H453.708V340.909H457.586V342.003C457.586 342.841 457.407 343.571 457.049 344.19C456.694 344.81 456.203 345.291 455.577 345.632C454.954 345.97 454.238 346.139 453.429 346.139C452.528 346.139 451.736 345.927 451.053 345.503C450.373 345.079 449.843 344.475 449.462 343.693C449.084 342.911 448.895 341.983 448.895 340.909C448.895 340.104 449.003 339.379 449.218 338.737C449.437 338.09 449.745 337.54 450.143 337.086C450.541 336.632 451.011 336.284 451.555 336.042C452.099 335.8 452.697 335.679 453.35 335.679C453.887 335.679 454.387 335.76 454.851 335.923C455.318 336.082 455.734 336.309 456.099 336.604C456.467 336.895 456.774 337.245 457.019 337.653C457.264 338.057 457.433 338.506 457.526 339H456.253ZM462.08 346.159C461.391 346.159 460.786 345.995 460.266 345.667C459.749 345.339 459.344 344.88 459.053 344.29C458.764 343.7 458.62 343.01 458.62 342.222C458.62 341.426 458.764 340.732 459.053 340.138C459.344 339.545 459.749 339.085 460.266 338.756C460.786 338.428 461.391 338.264 462.08 338.264C462.77 338.264 463.373 338.428 463.89 338.756C464.41 339.085 464.815 339.545 465.103 340.138C465.395 340.732 465.541 341.426 465.541 342.222C465.541 343.01 465.395 343.7 465.103 344.29C464.815 344.88 464.41 345.339 463.89 345.667C463.373 345.995 462.77 346.159 462.08 346.159ZM462.08 345.105C462.604 345.105 463.035 344.971 463.373 344.702C463.711 344.434 463.961 344.081 464.124 343.643C464.286 343.206 464.367 342.732 464.367 342.222C464.367 341.711 464.286 341.236 464.124 340.795C463.961 340.354 463.711 339.998 463.373 339.726C463.035 339.454 462.604 339.318 462.08 339.318C461.557 339.318 461.126 339.454 460.788 339.726C460.45 339.998 460.199 340.354 460.037 340.795C459.875 341.236 459.793 341.711 459.793 342.222C459.793 342.732 459.875 343.206 460.037 343.643C460.199 344.081 460.45 344.434 460.788 344.702C461.126 344.971 461.557 345.105 462.08 345.105ZM470.308 346V335.818H471.541V344.906H476.274V346H470.308ZM477.464 346V338.364H478.637V346H477.464ZM478.061 337.091C477.832 337.091 477.635 337.013 477.469 336.857C477.307 336.701 477.226 336.514 477.226 336.295C477.226 336.077 477.307 335.889 477.469 335.734C477.635 335.578 477.832 335.5 478.061 335.5C478.289 335.5 478.485 335.578 478.647 335.734C478.813 335.889 478.896 336.077 478.896 336.295C478.896 336.514 478.813 336.701 478.647 336.857C478.485 337.013 478.289 337.091 478.061 337.091ZM480.385 346V335.818H481.559V339.577H481.658C481.744 339.444 481.864 339.275 482.016 339.07C482.172 338.861 482.394 338.675 482.682 338.513C482.974 338.347 483.368 338.264 483.866 338.264C484.509 338.264 485.075 338.425 485.566 338.746C486.056 339.068 486.439 339.524 486.714 340.114C486.989 340.704 487.127 341.4 487.127 342.202C487.127 343.01 486.989 343.711 486.714 344.305C486.439 344.895 486.058 345.352 485.571 345.677C485.084 345.998 484.522 346.159 483.885 346.159C483.395 346.159 483.002 346.078 482.707 345.915C482.412 345.75 482.185 345.562 482.026 345.354C481.867 345.142 481.744 344.966 481.658 344.827H481.519V346H480.385ZM481.539 342.182C481.539 342.759 481.623 343.267 481.792 343.708C481.961 344.146 482.208 344.489 482.533 344.737C482.858 344.982 483.256 345.105 483.726 345.105C484.217 345.105 484.626 344.976 484.954 344.717C485.286 344.455 485.534 344.104 485.7 343.663C485.869 343.219 485.954 342.725 485.954 342.182C485.954 341.645 485.871 341.161 485.705 340.73C485.543 340.296 485.296 339.953 484.964 339.701C484.636 339.446 484.224 339.318 483.726 339.318C483.249 339.318 482.848 339.439 482.523 339.681C482.198 339.92 481.953 340.254 481.787 340.685C481.622 341.113 481.539 341.612 481.539 342.182ZM488.362 346V338.364H489.495V339.517H489.575C489.714 339.139 489.966 338.833 490.33 338.597C490.695 338.362 491.106 338.244 491.563 338.244C491.65 338.244 491.757 338.246 491.887 338.249C492.016 338.253 492.114 338.258 492.18 338.264V339.457C492.14 339.447 492.049 339.433 491.906 339.413C491.767 339.389 491.62 339.378 491.464 339.378C491.093 339.378 490.761 339.456 490.47 339.612C490.181 339.764 489.953 339.976 489.784 340.248C489.618 340.516 489.535 340.823 489.535 341.168V346H488.362ZM495.258 346.179C494.774 346.179 494.335 346.088 493.94 345.906C493.546 345.72 493.233 345.453 493.001 345.105C492.769 344.754 492.653 344.33 492.653 343.832C492.653 343.395 492.739 343.04 492.911 342.768C493.084 342.493 493.314 342.278 493.602 342.122C493.891 341.966 494.209 341.85 494.557 341.774C494.908 341.695 495.261 341.632 495.616 341.585C496.08 341.526 496.456 341.481 496.744 341.451C497.036 341.418 497.248 341.363 497.381 341.287C497.517 341.211 497.585 341.078 497.585 340.889V340.849C497.585 340.359 497.45 339.978 497.182 339.706C496.917 339.434 496.514 339.298 495.974 339.298C495.414 339.298 494.974 339.421 494.656 339.666C494.338 339.911 494.114 340.173 493.985 340.452L492.872 340.054C493.07 339.59 493.336 339.229 493.667 338.97C494.002 338.708 494.366 338.526 494.761 338.423C495.158 338.317 495.55 338.264 495.934 338.264C496.179 338.264 496.461 338.294 496.779 338.354C497.101 338.41 497.411 338.528 497.709 338.707C498.01 338.886 498.261 339.156 498.46 339.517C498.658 339.878 498.758 340.362 498.758 340.969V346H497.585V344.966H497.525C497.445 345.132 497.313 345.309 497.127 345.498C496.942 345.687 496.695 345.848 496.386 345.98C496.078 346.113 495.702 346.179 495.258 346.179ZM495.437 345.125C495.901 345.125 496.292 345.034 496.61 344.852C496.932 344.669 497.174 344.434 497.336 344.146C497.502 343.857 497.585 343.554 497.585 343.236V342.162C497.535 342.222 497.425 342.276 497.256 342.326C497.091 342.372 496.898 342.414 496.68 342.45C496.464 342.483 496.254 342.513 496.048 342.54C495.846 342.563 495.682 342.583 495.556 342.599C495.251 342.639 494.966 342.704 494.701 342.793C494.439 342.879 494.227 343.01 494.065 343.186C493.906 343.358 493.826 343.594 493.826 343.892C493.826 344.3 493.977 344.608 494.278 344.817C494.583 345.022 494.97 345.125 495.437 345.125ZM500.339 346V338.364H501.473V339.517H501.552C501.692 339.139 501.944 338.833 502.308 338.597C502.673 338.362 503.084 338.244 503.541 338.244C503.627 338.244 503.735 338.246 503.864 338.249C503.993 338.253 504.091 338.258 504.158 338.264V339.457C504.118 339.447 504.027 339.433 503.884 339.413C503.745 339.389 503.597 339.378 503.442 339.378C503.07 339.378 502.739 339.456 502.447 339.612C502.159 339.764 501.93 339.976 501.761 340.248C501.596 340.516 501.513 340.823 501.513 341.168V346H500.339ZM505.976 348.864C505.778 348.864 505.6 348.847 505.444 348.814C505.289 348.784 505.181 348.754 505.121 348.724L505.42 347.69C505.705 347.763 505.957 347.79 506.175 347.77C506.394 347.75 506.588 347.652 506.757 347.477C506.929 347.304 507.087 347.024 507.229 346.636L507.448 346.04L504.624 338.364H505.897L508.005 344.449H508.084L510.192 338.364H511.465L508.224 347.114C508.078 347.508 507.897 347.835 507.682 348.093C507.466 348.355 507.216 348.549 506.931 348.675C506.649 348.801 506.331 348.864 505.976 348.864ZM420.462 359.705C420.462 358.452 420.625 357.3 420.95 356.249C421.278 355.195 421.745 354.226 422.352 353.341H423.386C423.147 353.669 422.923 354.073 422.714 354.554C422.509 355.031 422.328 355.557 422.173 356.13C422.017 356.7 421.894 357.29 421.805 357.9C421.718 358.51 421.675 359.111 421.675 359.705C421.675 360.493 421.752 361.294 421.904 362.106C422.057 362.918 422.262 363.672 422.521 364.368C422.779 365.064 423.067 365.631 423.386 366.068H422.352C421.745 365.183 421.278 364.215 420.95 363.165C420.625 362.111 420.462 360.957 420.462 359.705ZM431.676 357C431.567 356.665 431.423 356.365 431.244 356.1C431.068 355.832 430.858 355.603 430.612 355.414C430.37 355.225 430.095 355.081 429.787 354.982C429.479 354.882 429.141 354.832 428.773 354.832C428.17 354.832 427.621 354.988 427.127 355.3C426.633 355.611 426.241 356.07 425.949 356.677C425.657 357.283 425.512 358.027 425.512 358.909C425.512 359.791 425.659 360.535 425.954 361.141C426.249 361.748 426.648 362.207 427.152 362.518C427.656 362.83 428.223 362.986 428.852 362.986C429.436 362.986 429.95 362.862 430.394 362.613C430.841 362.361 431.189 362.006 431.438 361.549C431.69 361.088 431.816 360.546 431.816 359.923L432.193 360.003H429.131V358.909H433.009V360.003C433.009 360.841 432.83 361.571 432.472 362.19C432.117 362.81 431.627 363.291 431 363.632C430.377 363.97 429.661 364.139 428.852 364.139C427.951 364.139 427.159 363.927 426.476 363.503C425.797 363.079 425.266 362.475 424.885 361.693C424.507 360.911 424.318 359.983 424.318 358.909C424.318 358.104 424.426 357.379 424.642 356.737C424.86 356.09 425.168 355.54 425.566 355.086C425.964 354.632 426.435 354.284 426.978 354.042C427.522 353.8 428.12 353.679 428.773 353.679C429.31 353.679 429.81 353.76 430.274 353.923C430.742 354.082 431.158 354.309 431.522 354.604C431.89 354.895 432.197 355.245 432.442 355.653C432.687 356.057 432.856 356.506 432.949 357H431.676ZM437.504 364.159C436.814 364.159 436.209 363.995 435.689 363.667C435.172 363.339 434.768 362.88 434.476 362.29C434.188 361.7 434.043 361.01 434.043 360.222C434.043 359.426 434.188 358.732 434.476 358.138C434.768 357.545 435.172 357.085 435.689 356.756C436.209 356.428 436.814 356.264 437.504 356.264C438.193 356.264 438.796 356.428 439.313 356.756C439.834 357.085 440.238 357.545 440.526 358.138C440.818 358.732 440.964 359.426 440.964 360.222C440.964 361.01 440.818 361.7 440.526 362.29C440.238 362.88 439.834 363.339 439.313 363.667C438.796 363.995 438.193 364.159 437.504 364.159ZM437.504 363.105C438.027 363.105 438.458 362.971 438.796 362.702C439.134 362.434 439.384 362.081 439.547 361.643C439.709 361.206 439.79 360.732 439.79 360.222C439.79 359.711 439.709 359.236 439.547 358.795C439.384 358.354 439.134 357.998 438.796 357.726C438.458 357.454 438.027 357.318 437.504 357.318C436.98 357.318 436.549 357.454 436.211 357.726C435.873 357.998 435.623 358.354 435.46 358.795C435.298 359.236 435.217 359.711 435.217 360.222C435.217 360.732 435.298 361.206 435.46 361.643C435.623 362.081 435.873 362.434 436.211 362.702C436.549 362.971 436.98 363.105 437.504 363.105ZM444.536 359.705C444.536 360.957 444.372 362.111 444.044 363.165C443.719 364.215 443.254 365.183 442.647 366.068H441.613C441.852 365.74 442.074 365.336 442.279 364.855C442.488 364.378 442.67 363.854 442.826 363.284C442.982 362.711 443.103 362.119 443.189 361.509C443.279 360.896 443.323 360.295 443.323 359.705C443.323 358.916 443.247 358.115 443.095 357.303C442.942 356.491 442.737 355.737 442.478 355.041C442.22 354.345 441.931 353.778 441.613 353.341H442.647C443.254 354.226 443.719 355.195 444.044 356.249C444.372 357.3 444.536 358.452 444.536 359.705Z" fill="#1B1128"/>
<rect x="12.5" y="312.5" width="199" height="75" rx="7.5" fill="#FFF1DF" stroke="#E4A355"/>
<rect x="0.5" y="328.5" width="23" height="11" rx="3.5" fill="#FFF1DF" stroke="#E4A355"/>
<rect x="0.5" y="344.5" width="23" height="11" rx="3.5" fill="#FFF1DF" stroke="#E4A355"/>
<path d="M52.4367 335.818H53.6697V343.097C53.6697 343.746 53.5504 344.298 53.3117 344.752C53.0731 345.206 52.7367 345.551 52.3025 345.786C51.8683 346.022 51.3562 346.139 50.7663 346.139C50.2095 346.139 49.714 346.038 49.2798 345.836C48.8456 345.63 48.5042 345.339 48.2556 344.961C48.007 344.583 47.8828 344.134 47.8828 343.614H49.0958C49.0958 343.902 49.1671 344.154 49.3096 344.369C49.4554 344.581 49.6543 344.747 49.9062 344.866C50.1581 344.986 50.4448 345.045 50.7663 345.045C51.1209 345.045 51.4225 344.971 51.6711 344.822C51.9197 344.673 52.1086 344.454 52.2379 344.165C52.3704 343.874 52.4367 343.518 52.4367 343.097V335.818ZM61.1488 338.364C61.0891 337.86 60.8471 337.469 60.4229 337.19C59.9987 336.912 59.4783 336.773 58.8618 336.773C58.4111 336.773 58.0167 336.846 57.6786 336.991C57.3438 337.137 57.082 337.338 56.8931 337.593C56.7075 337.848 56.6147 338.138 56.6147 338.463C56.6147 338.735 56.6793 338.969 56.8086 339.164C56.9411 339.356 57.1102 339.517 57.3157 339.646C57.5211 339.772 57.7366 339.877 57.962 339.96C58.1873 340.039 58.3945 340.104 58.5834 340.153L59.6175 340.432C59.8827 340.501 60.1776 340.598 60.5024 340.72C60.8306 340.843 61.1438 341.01 61.4421 341.222C61.7437 341.431 61.9923 341.7 62.1878 342.028C62.3834 342.356 62.4811 342.759 62.4811 343.236C62.4811 343.786 62.337 344.283 62.0486 344.727C61.7636 345.171 61.346 345.524 60.7958 345.786C60.2489 346.048 59.5844 346.179 58.8022 346.179C58.073 346.179 57.4416 346.061 56.908 345.826C56.3777 345.591 55.9601 345.263 55.6551 344.842C55.3535 344.421 55.1828 343.932 55.1431 343.375H56.4158C56.4489 343.759 56.5782 344.078 56.8036 344.33C57.0323 344.578 57.3206 344.764 57.6686 344.886C58.02 345.006 58.3978 345.065 58.8022 345.065C59.2728 345.065 59.6954 344.989 60.0699 344.837C60.4444 344.681 60.7411 344.465 60.9598 344.19C61.1786 343.912 61.288 343.587 61.288 343.216C61.288 342.878 61.1935 342.603 61.0046 342.391C60.8157 342.179 60.5671 342.006 60.2588 341.874C59.9506 341.741 59.6175 341.625 59.2595 341.526L58.0067 341.168C57.2113 340.939 56.5815 340.612 56.1175 340.188C55.6535 339.764 55.4215 339.209 55.4215 338.523C55.4215 337.953 55.5756 337.455 55.8838 337.031C56.1954 336.604 56.613 336.272 57.1367 336.037C57.6637 335.798 58.252 335.679 58.9016 335.679C59.5578 335.679 60.1412 335.797 60.6516 336.032C61.162 336.264 61.5664 336.582 61.8647 336.987C62.1663 337.391 62.3254 337.85 62.3419 338.364H61.1488ZM63.7892 346V338.364H64.9625V346H63.7892ZM64.3858 337.091C64.1571 337.091 63.9599 337.013 63.7942 336.857C63.6318 336.701 63.5506 336.514 63.5506 336.295C63.5506 336.077 63.6318 335.889 63.7942 335.734C63.9599 335.578 64.1571 335.5 64.3858 335.5C64.6145 335.5 64.81 335.578 64.9725 335.734C65.1382 335.889 65.221 336.077 65.221 336.295C65.221 336.514 65.1382 336.701 64.9725 336.857C64.81 337.013 64.6145 337.091 64.3858 337.091ZM69.6339 349.023C69.0671 349.023 68.5799 348.95 68.1722 348.804C67.7645 348.661 67.4248 348.473 67.153 348.237C66.8846 348.005 66.6708 347.757 66.5117 347.491L67.4464 346.835C67.5524 346.974 67.6867 347.134 67.8491 347.312C68.0115 347.495 68.2335 347.652 68.5153 347.785C68.8003 347.921 69.1732 347.989 69.6339 347.989C70.2503 347.989 70.7591 347.839 71.1601 347.541C71.5612 347.243 71.7617 346.776 71.7617 346.139V344.588H71.6623C71.5761 344.727 71.4535 344.9 71.2944 345.105C71.1386 345.307 70.9132 345.488 70.6182 345.647C70.3266 345.803 69.9322 345.881 69.435 345.881C68.8185 345.881 68.265 345.735 67.7745 345.443C67.2873 345.152 66.9011 344.727 66.6161 344.17C66.3344 343.614 66.1935 342.937 66.1935 342.142C66.1935 341.36 66.3311 340.679 66.6062 340.099C66.8813 339.515 67.2641 339.065 67.7546 338.746C68.2451 338.425 68.8119 338.264 69.4549 338.264C69.952 338.264 70.3465 338.347 70.6381 338.513C70.9331 338.675 71.1585 338.861 71.3143 339.07C71.4734 339.275 71.596 339.444 71.6822 339.577H71.8015V338.364H72.935V346.219C72.935 346.875 72.7859 347.409 72.4876 347.82C72.1926 348.234 71.7949 348.537 71.2944 348.729C70.7972 348.925 70.2437 349.023 69.6339 349.023ZM69.5941 344.827C70.0647 344.827 70.4625 344.719 70.7873 344.504C71.1121 344.288 71.359 343.978 71.528 343.574C71.6971 343.17 71.7816 342.686 71.7816 342.122C71.7816 341.572 71.6987 341.086 71.533 340.665C71.3673 340.245 71.122 339.915 70.7972 339.676C70.4724 339.437 70.0714 339.318 69.5941 339.318C69.0969 339.318 68.6826 339.444 68.3512 339.696C68.0231 339.948 67.7761 340.286 67.6104 340.71C67.448 341.134 67.3668 341.605 67.3668 342.122C67.3668 342.652 67.4497 343.121 67.6154 343.529C67.7844 343.933 68.033 344.252 68.3611 344.484C68.6926 344.712 69.1036 344.827 69.5941 344.827ZM75.696 341.406V346H74.5227V335.818H75.696V339.557H75.7955C75.9744 339.162 76.2429 338.849 76.6009 338.617C76.9621 338.382 77.4427 338.264 78.0426 338.264C78.563 338.264 79.0187 338.369 79.4098 338.577C79.8009 338.783 80.1042 339.099 80.3196 339.527C80.5384 339.951 80.6477 340.491 80.6477 341.148V346H79.4744V341.227C79.4744 340.621 79.317 340.152 79.0021 339.82C78.6906 339.486 78.2581 339.318 77.7045 339.318C77.3201 339.318 76.9754 339.399 76.6705 339.562C76.3688 339.724 76.1302 339.961 75.9545 340.273C75.7822 340.584 75.696 340.962 75.696 341.406ZM85.5552 338.364V339.358H81.5979V338.364H85.5552ZM82.7513 336.534H83.9246V343.812C83.9246 344.144 83.9726 344.393 84.0687 344.558C84.1682 344.721 84.2941 344.83 84.4466 344.886C84.6023 344.939 84.7664 344.966 84.9388 344.966C85.068 344.966 85.1741 344.959 85.2569 344.946C85.3398 344.929 85.4061 344.916 85.4558 344.906L85.6944 345.96C85.6149 345.99 85.5039 346.02 85.3613 346.05C85.2188 346.083 85.0382 346.099 84.8194 346.099C84.488 346.099 84.1632 346.028 83.845 345.886C83.5301 345.743 83.2683 345.526 83.0595 345.234C82.854 344.943 82.7513 344.575 82.7513 344.131V336.534ZM90.7144 346H89.4217L93.1604 335.818H94.4331L98.1717 346H96.8791L93.8365 337.429H93.757L90.7144 346ZM91.1916 342.023H96.4019V343.116H91.1916V342.023ZM99.1977 346V335.818H102.638C103.437 335.818 104.09 335.962 104.597 336.251C105.107 336.536 105.485 336.922 105.73 337.409C105.976 337.896 106.098 338.44 106.098 339.04C106.098 339.64 105.976 340.185 105.73 340.675C105.488 341.166 105.114 341.557 104.607 341.849C104.1 342.137 103.45 342.281 102.658 342.281H100.192V341.188H102.618C103.165 341.188 103.604 341.093 103.936 340.904C104.267 340.715 104.507 340.46 104.656 340.138C104.809 339.814 104.885 339.447 104.885 339.04C104.885 338.632 104.809 338.268 104.656 337.946C104.507 337.625 104.265 337.373 103.931 337.19C103.596 337.005 103.152 336.912 102.598 336.912H100.431V346H99.1977ZM108.757 335.818V346H107.524V335.818H108.757ZM121.007 339C120.898 338.665 120.754 338.365 120.575 338.1C120.399 337.832 120.189 337.603 119.943 337.414C119.701 337.225 119.426 337.081 119.118 336.982C118.81 336.882 118.472 336.832 118.104 336.832C117.501 336.832 116.952 336.988 116.458 337.3C115.964 337.611 115.572 338.07 115.28 338.677C114.988 339.283 114.842 340.027 114.842 340.909C114.842 341.791 114.99 342.535 115.285 343.141C115.58 343.748 115.979 344.207 116.483 344.518C116.987 344.83 117.554 344.986 118.183 344.986C118.767 344.986 119.28 344.862 119.725 344.613C120.172 344.361 120.52 344.006 120.769 343.549C121.02 343.088 121.146 342.546 121.146 341.923L121.524 342.003H118.462V340.909H122.34V342.003C122.34 342.841 122.161 343.571 121.803 344.19C121.448 344.81 120.957 345.291 120.331 345.632C119.708 345.97 118.992 346.139 118.183 346.139C117.282 346.139 116.49 345.927 115.807 345.503C115.127 345.079 114.597 344.475 114.216 343.693C113.838 342.911 113.649 341.983 113.649 340.909C113.649 340.104 113.757 339.379 113.972 338.737C114.191 338.09 114.499 337.54 114.897 337.086C115.295 336.632 115.765 336.284 116.309 336.042C116.853 335.8 117.451 335.679 118.104 335.679C118.641 335.679 119.141 335.76 119.605 335.923C120.073 336.082 120.488 336.309 120.853 336.604C121.221 336.895 121.528 337.245 121.773 337.653C122.018 338.057 122.187 338.506 122.28 339H121.007ZM126.834 346.159C126.145 346.159 125.54 345.995 125.02 345.667C124.503 345.339 124.098 344.88 123.807 344.29C123.518 343.7 123.374 343.01 123.374 342.222C123.374 341.426 123.518 340.732 123.807 340.138C124.098 339.545 124.503 339.085 125.02 338.756C125.54 338.428 126.145 338.264 126.834 338.264C127.524 338.264 128.127 338.428 128.644 338.756C129.164 339.085 129.569 339.545 129.857 340.138C130.149 340.732 130.295 341.426 130.295 342.222C130.295 343.01 130.149 343.7 129.857 344.29C129.569 344.88 129.164 345.339 128.644 345.667C128.127 345.995 127.524 346.159 126.834 346.159ZM126.834 345.105C127.358 345.105 127.789 344.971 128.127 344.702C128.465 344.434 128.715 344.081 128.878 343.643C129.04 343.206 129.121 342.732 129.121 342.222C129.121 341.711 129.04 341.236 128.878 340.795C128.715 340.354 128.465 339.998 128.127 339.726C127.789 339.454 127.358 339.318 126.834 339.318C126.311 339.318 125.88 339.454 125.542 339.726C125.204 339.998 124.954 340.354 124.791 340.795C124.629 341.236 124.548 341.711 124.548 342.222C124.548 342.732 124.629 343.206 124.791 343.643C124.954 344.081 125.204 344.434 125.542 344.702C125.88 344.971 126.311 345.105 126.834 345.105ZM135.062 346V335.818H136.295V344.906H141.028V346H135.062ZM142.218 346V338.364H143.391V346H142.218ZM142.815 337.091C142.586 337.091 142.389 337.013 142.223 336.857C142.061 336.701 141.98 336.514 141.98 336.295C141.98 336.077 142.061 335.889 142.223 335.734C142.389 335.578 142.586 335.5 142.815 335.5C143.043 335.5 143.239 335.578 143.401 335.734C143.567 335.889 143.65 336.077 143.65 336.295C143.65 336.514 143.567 336.701 143.401 336.857C143.239 337.013 143.043 337.091 142.815 337.091ZM145.14 346V335.818H146.313V339.577H146.412C146.498 339.444 146.618 339.275 146.77 339.07C146.926 338.861 147.148 338.675 147.436 338.513C147.728 338.347 148.123 338.264 148.62 338.264C149.263 338.264 149.829 338.425 150.32 338.746C150.81 339.068 151.193 339.524 151.468 340.114C151.743 340.704 151.881 341.4 151.881 342.202C151.881 343.01 151.743 343.711 151.468 344.305C151.193 344.895 150.812 345.352 150.325 345.677C149.838 345.998 149.276 346.159 148.64 346.159C148.149 346.159 147.756 346.078 147.461 345.915C147.166 345.75 146.939 345.562 146.78 345.354C146.621 345.142 146.498 344.966 146.412 344.827H146.273V346H145.14ZM146.293 342.182C146.293 342.759 146.377 343.267 146.547 343.708C146.716 344.146 146.962 344.489 147.287 344.737C147.612 344.982 148.01 345.105 148.48 345.105C148.971 345.105 149.38 344.976 149.708 344.717C150.04 344.455 150.288 344.104 150.454 343.663C150.623 343.219 150.708 342.725 150.708 342.182C150.708 341.645 150.625 341.161 150.459 340.73C150.297 340.296 150.05 339.953 149.718 339.701C149.39 339.446 148.978 339.318 148.48 339.318C148.003 339.318 147.602 339.439 147.277 339.681C146.953 339.92 146.707 340.254 146.542 340.685C146.376 341.113 146.293 341.612 146.293 342.182ZM153.116 346V338.364H154.249V339.517H154.329C154.468 339.139 154.72 338.833 155.085 338.597C155.449 338.362 155.86 338.244 156.317 338.244C156.404 338.244 156.511 338.246 156.641 338.249C156.77 338.253 156.868 338.258 156.934 338.264V339.457C156.894 339.447 156.803 339.433 156.661 339.413C156.521 339.389 156.374 339.378 156.218 339.378C155.847 339.378 155.515 339.456 155.224 339.612C154.935 339.764 154.707 339.976 154.538 340.248C154.372 340.516 154.289 340.823 154.289 341.168V346H153.116ZM160.012 346.179C159.528 346.179 159.089 346.088 158.694 345.906C158.3 345.72 157.987 345.453 157.755 345.105C157.523 344.754 157.407 344.33 157.407 343.832C157.407 343.395 157.493 343.04 157.665 342.768C157.838 342.493 158.068 342.278 158.356 342.122C158.645 341.966 158.963 341.85 159.311 341.774C159.662 341.695 160.015 341.632 160.37 341.585C160.834 341.526 161.21 341.481 161.498 341.451C161.79 341.418 162.002 341.363 162.135 341.287C162.271 341.211 162.339 341.078 162.339 340.889V340.849C162.339 340.359 162.204 339.978 161.936 339.706C161.671 339.434 161.268 339.298 160.728 339.298C160.168 339.298 159.729 339.421 159.41 339.666C159.092 339.911 158.868 340.173 158.739 340.452L157.626 340.054C157.824 339.59 158.09 339.229 158.421 338.97C158.756 338.708 159.12 338.526 159.515 338.423C159.912 338.317 160.304 338.264 160.688 338.264C160.933 338.264 161.215 338.294 161.533 338.354C161.855 338.41 162.165 338.528 162.463 338.707C162.765 338.886 163.015 339.156 163.214 339.517C163.412 339.878 163.512 340.362 163.512 340.969V346H162.339V344.966H162.279C162.199 345.132 162.067 345.309 161.881 345.498C161.696 345.687 161.449 345.848 161.14 345.98C160.832 346.113 160.456 346.179 160.012 346.179ZM160.191 345.125C160.655 345.125 161.046 345.034 161.364 344.852C161.686 344.669 161.928 344.434 162.09 344.146C162.256 343.857 162.339 343.554 162.339 343.236V342.162C162.289 342.222 162.18 342.276 162.01 342.326C161.845 342.372 161.653 342.414 161.434 342.45C161.218 342.483 161.008 342.513 160.802 342.54C160.6 342.563 160.436 342.583 160.31 342.599C160.005 342.639 159.72 342.704 159.455 342.793C159.193 342.879 158.981 343.01 158.819 343.186C158.66 343.358 158.58 343.594 158.58 343.892C158.58 344.3 158.731 344.608 159.033 344.817C159.337 345.022 159.724 345.125 160.191 345.125ZM165.093 346V338.364H166.227V339.517H166.307C166.446 339.139 166.698 338.833 167.062 338.597C167.427 338.362 167.838 338.244 168.295 338.244C168.381 338.244 168.489 338.246 168.618 338.249C168.748 338.253 168.845 338.258 168.912 338.264V339.457C168.872 339.447 168.781 339.433 168.638 339.413C168.499 339.389 168.351 339.378 168.196 339.378C167.824 339.378 167.493 339.456 167.201 339.612C166.913 339.764 166.684 339.976 166.515 340.248C166.35 340.516 166.267 340.823 166.267 341.168V346H165.093ZM170.731 348.864C170.532 348.864 170.354 348.847 170.199 348.814C170.043 348.784 169.935 348.754 169.875 348.724L170.174 347.69C170.459 347.763 170.711 347.79 170.929 347.77C171.148 347.75 171.342 347.652 171.511 347.477C171.683 347.304 171.841 347.024 171.983 346.636L172.202 346.04L169.378 338.364H170.651L172.759 344.449H172.838L174.946 338.364H176.219L172.978 347.114C172.832 347.508 172.651 347.835 172.436 348.093C172.22 348.355 171.97 348.549 171.685 348.675C171.403 348.801 171.085 348.864 170.731 348.864ZM99.9623 359.705C99.9623 358.452 100.125 357.3 100.45 356.249C100.778 355.195 101.245 354.226 101.852 353.341H102.886C102.647 353.669 102.423 354.073 102.214 354.554C102.009 355.031 101.828 355.557 101.673 356.13C101.517 356.7 101.394 357.29 101.305 357.9C101.218 358.51 101.175 359.111 101.175 359.705C101.175 360.493 101.252 361.294 101.404 362.106C101.557 362.918 101.762 363.672 102.021 364.368C102.279 365.064 102.567 365.631 102.886 366.068H101.852C101.245 365.183 100.778 364.215 100.45 363.165C100.125 362.111 99.9623 360.957 99.9623 359.705ZM111.176 357C111.067 356.665 110.923 356.365 110.744 356.1C110.568 355.832 110.358 355.603 110.112 355.414C109.87 355.225 109.595 355.081 109.287 354.982C108.979 354.882 108.641 354.832 108.273 354.832C107.67 354.832 107.121 354.988 106.627 355.3C106.133 355.611 105.741 356.07 105.449 356.677C105.157 357.283 105.012 358.027 105.012 358.909C105.012 359.791 105.159 360.535 105.454 361.141C105.749 361.748 106.148 362.207 106.652 362.518C107.156 362.83 107.723 362.986 108.352 362.986C108.936 362.986 109.45 362.862 109.894 362.613C110.341 362.361 110.689 362.006 110.938 361.549C111.19 361.088 111.316 360.546 111.316 359.923L111.693 360.003H108.631V358.909H112.509V360.003C112.509 360.841 112.33 361.571 111.972 362.19C111.617 362.81 111.127 363.291 110.5 363.632C109.877 363.97 109.161 364.139 108.352 364.139C107.451 364.139 106.659 363.927 105.976 363.503C105.297 363.079 104.766 362.475 104.385 361.693C104.007 360.911 103.818 359.983 103.818 358.909C103.818 358.104 103.926 357.379 104.142 356.737C104.36 356.09 104.668 355.54 105.066 355.086C105.464 354.632 105.935 354.284 106.478 354.042C107.022 353.8 107.62 353.679 108.273 353.679C108.81 353.679 109.31 353.76 109.774 353.923C110.242 354.082 110.658 354.309 111.022 354.604C111.39 354.895 111.697 355.245 111.942 355.653C112.187 356.057 112.356 356.506 112.449 357H111.176ZM117.004 364.159C116.314 364.159 115.709 363.995 115.189 363.667C114.672 363.339 114.268 362.88 113.976 362.29C113.688 361.7 113.543 361.01 113.543 360.222C113.543 359.426 113.688 358.732 113.976 358.138C114.268 357.545 114.672 357.085 115.189 356.756C115.709 356.428 116.314 356.264 117.004 356.264C117.693 356.264 118.296 356.428 118.813 356.756C119.334 357.085 119.738 357.545 120.026 358.138C120.318 358.732 120.464 359.426 120.464 360.222C120.464 361.01 120.318 361.7 120.026 362.29C119.738 362.88 119.334 363.339 118.813 363.667C118.296 363.995 117.693 364.159 117.004 364.159ZM117.004 363.105C117.527 363.105 117.958 362.971 118.296 362.702C118.634 362.434 118.884 362.081 119.047 361.643C119.209 361.206 119.29 360.732 119.29 360.222C119.29 359.711 119.209 359.236 119.047 358.795C118.884 358.354 118.634 357.998 118.296 357.726C117.958 357.454 117.527 357.318 117.004 357.318C116.48 357.318 116.049 357.454 115.711 357.726C115.373 357.998 115.123 358.354 114.96 358.795C114.798 359.236 114.717 359.711 114.717 360.222C114.717 360.732 114.798 361.206 114.96 361.643C115.123 362.081 115.373 362.434 115.711 362.702C116.049 362.971 116.48 363.105 117.004 363.105ZM124.036 359.705C124.036 360.957 123.872 362.111 123.544 363.165C123.219 364.215 122.754 365.183 122.147 366.068H121.113C121.352 365.74 121.574 365.336 121.779 364.855C121.988 364.378 122.17 363.854 122.326 363.284C122.482 362.711 122.603 362.119 122.689 361.509C122.779 360.896 122.823 360.295 122.823 359.705C122.823 358.916 122.747 358.115 122.595 357.303C122.442 356.491 122.237 355.737 121.978 355.041C121.72 354.345 121.431 353.778 121.113 353.341H122.147C122.754 354.226 123.219 355.195 123.544 356.249C123.872 357.3 124.036 358.452 124.036 359.705Z" fill="#1B1128"/>
<path d="M432 193.5H432.5V193H432V193.5ZM431.646 304.854C431.842 305.049 432.158 305.049 432.354 304.854L435.536 301.672C435.731 301.476 435.731 301.16 435.536 300.964C435.34 300.769 435.024 300.769 434.828 300.964L432 303.793L429.172 300.964C428.976 300.769 428.66 300.769 428.464 300.964C428.269 301.16 428.269 301.476 428.464 301.672L431.646 304.854ZM400 194H432V193H400V194ZM431.5 193.5V304.5H432.5V193.5H431.5Z" fill="#0F6FB0"/>
<path d="M112.999 193.5H112.499V193H112.999V193.5ZM113.353 304.854C113.158 305.049 112.841 305.049 112.646 304.854L109.464 301.672C109.269 301.476 109.269 301.16 109.464 300.964C109.659 300.769 109.976 300.769 110.171 300.964L112.999 303.793L115.828 300.964C116.023 300.769 116.34 300.769 116.535 300.964C116.73 301.16 116.73 301.476 116.535 301.672L113.353 304.854ZM135.497 194H112.999V193H135.497V194ZM113.499 193.5V304.5H112.499V193.5H113.499Z" fill="#0F6FB0"/>
<path d="M284 118C284 112.477 279.523 108 274 108C268.477 108 264 112.477 264 118" stroke="#3FB064"/>
<line x1="274" y1="120" x2="274" y2="148" stroke="#0F6FB0"/>
<line x1="274" y1="84" x2="274" y2="108" stroke="#3FB064"/>
<circle cx="274" cy="118" r="5.5" fill="#DFF1FD" stroke="#0F6FB0"/>
</svg>
