<svg width="173" height="43" viewBox="0 0 173 43" fill="none" xmlns="http://www.w3.org/2000/svg">
<rect width="173" height="43" rx="8" fill="#0D93CD"/>
<path d="M29.5568 23.2273H31.2841L32.5 24.8125L33.0739 25.517L35.0114 28.0455H33.2159L31.9205 26.358L31.4773 25.7443L29.5568 23.2273ZM35.3864 21.1818C35.3864 22.4242 35.1591 23.4924 34.7045 24.3864C34.25 25.2765 33.6269 25.9621 32.8352 26.4432C32.0473 26.9205 31.1515 27.1591 30.1477 27.1591C29.1402 27.1591 28.2405 26.9205 27.4489 26.4432C26.661 25.9621 26.0398 25.2746 25.5852 24.3807C25.1307 23.4867 24.9034 22.4205 24.9034 21.1818C24.9034 19.9394 25.1307 18.8731 25.5852 17.983C26.0398 17.089 26.661 16.4034 27.4489 15.9261C28.2405 15.4451 29.1402 15.2045 30.1477 15.2045C31.1515 15.2045 32.0473 15.4451 32.8352 15.9261C33.6269 16.4034 34.25 17.089 34.7045 17.983C35.1591 18.8731 35.3864 19.9394 35.3864 21.1818ZM33.6477 21.1818C33.6477 20.2348 33.4943 19.4375 33.1875 18.7898C32.8845 18.1383 32.4678 17.6458 31.9375 17.3125C31.411 16.9754 30.8144 16.8068 30.1477 16.8068C29.4773 16.8068 28.8788 16.9754 28.3523 17.3125C27.8258 17.6458 27.4091 18.1383 27.1023 18.7898C26.7992 19.4375 26.6477 20.2348 26.6477 21.1818C26.6477 22.1288 26.7992 22.928 27.1023 23.5795C27.4091 24.2273 27.8258 24.7197 28.3523 25.0568C28.8788 25.3902 29.4773 25.5568 30.1477 25.5568C30.8144 25.5568 31.411 25.3902 31.9375 25.0568C32.4678 24.7197 32.8845 24.2273 33.1875 23.5795C33.4943 22.928 33.6477 22.1288 33.6477 21.1818ZM42.3273 23.3807V18.2727H44.0319V27H42.3614V25.4886H42.2705C42.0698 25.9545 41.7478 26.3428 41.3046 26.6534C40.8652 26.9602 40.3179 27.1136 39.6626 27.1136C39.102 27.1136 38.6057 26.9905 38.1739 26.7443C37.7459 26.4943 37.4088 26.125 37.1626 25.6364C36.9201 25.1477 36.7989 24.5436 36.7989 23.8239V18.2727H38.4978V23.6193C38.4978 24.214 38.6626 24.6875 38.9921 25.0398C39.3216 25.392 39.7497 25.5682 40.2762 25.5682C40.5944 25.5682 40.9107 25.4886 41.2251 25.3295C41.5432 25.1705 41.8065 24.9299 42.0148 24.608C42.227 24.286 42.3311 23.8769 42.3273 23.3807ZM45.6745 27V18.2727H47.3734V27H45.6745ZM46.5325 16.9261C46.237 16.9261 45.9833 16.8277 45.7711 16.6307C45.5628 16.4299 45.4586 16.1913 45.4586 15.9148C45.4586 15.6345 45.5628 15.3958 45.7711 15.1989C45.9833 14.9981 46.237 14.8977 46.5325 14.8977C46.828 14.8977 47.0798 14.9981 47.2882 15.1989C47.5003 15.3958 47.6064 15.6345 47.6064 15.9148C47.6064 16.1913 47.5003 16.4299 47.2882 16.6307C47.0798 16.8277 46.828 16.9261 46.5325 16.9261ZM52.6951 27.1761C51.8504 27.1761 51.1231 26.9848 50.5132 26.6023C49.9072 26.2159 49.4413 25.6837 49.1155 25.0057C48.7898 24.3277 48.6269 23.5511 48.6269 22.6761C48.6269 21.7898 48.7935 21.0076 49.1269 20.3295C49.4602 19.6477 49.9299 19.1155 50.536 18.733C51.142 18.3504 51.856 18.1591 52.678 18.1591C53.3409 18.1591 53.9318 18.2822 54.4507 18.5284C54.9697 18.7708 55.3882 19.1117 55.7064 19.5511C56.0284 19.9905 56.2197 20.5038 56.2803 21.0909H54.6269C54.536 20.6818 54.3276 20.3295 54.0019 20.0341C53.6799 19.7386 53.2481 19.5909 52.7064 19.5909C52.2329 19.5909 51.8182 19.7159 51.4621 19.9659C51.1098 20.2121 50.8352 20.5644 50.6382 21.0227C50.4413 21.4773 50.3428 22.0152 50.3428 22.6364C50.3428 23.2727 50.4394 23.822 50.6326 24.2841C50.8257 24.7462 51.0985 25.1042 51.4507 25.358C51.8068 25.6117 52.2254 25.7386 52.7064 25.7386C53.0284 25.7386 53.3201 25.6799 53.5814 25.5625C53.8466 25.4413 54.0682 25.2689 54.2462 25.0455C54.428 24.822 54.5549 24.553 54.6269 24.2386H56.2803C56.2197 24.803 56.036 25.3068 55.7291 25.75C55.4223 26.1932 55.0113 26.5417 54.4962 26.7955C53.9848 27.0492 53.3845 27.1761 52.6951 27.1761ZM59.0195 24.0398L59.0082 21.9659H59.3036L62.7809 18.2727H64.815L60.8491 22.4773H60.582L59.0195 24.0398ZM57.457 27V15.3636H59.1559V27H57.457ZM62.9684 27L59.8434 22.8523L61.0139 21.6648L65.0536 27H62.9684ZM73.3915 18.2727V19.6364H68.6245V18.2727H73.3915ZM69.9029 16.1818H71.6018V24.4375C71.6018 24.767 71.651 25.0152 71.7495 25.1818C71.848 25.3447 71.9749 25.4564 72.1302 25.517C72.2893 25.5739 72.4616 25.6023 72.6472 25.6023C72.7836 25.6023 72.9029 25.5928 73.0052 25.5739C73.1074 25.5549 73.187 25.5398 73.2438 25.5284L73.5506 26.9318C73.4521 26.9697 73.312 27.0076 73.1302 27.0455C72.9484 27.0871 72.7211 27.1098 72.4484 27.1136C72.0014 27.1212 71.5847 27.0417 71.1984 26.875C70.812 26.7083 70.4995 26.4508 70.2609 26.1023C70.0222 25.7538 69.9029 25.3163 69.9029 24.7898V16.1818ZM80.1592 23.3807V18.2727H81.8638V27H80.1933V25.4886H80.1024C79.9016 25.9545 79.5797 26.3428 79.1365 26.6534C78.6971 26.9602 78.1497 27.1136 77.4944 27.1136C76.9338 27.1136 76.4376 26.9905 76.0058 26.7443C75.5778 26.4943 75.2406 26.125 74.9944 25.6364C74.752 25.1477 74.6308 24.5436 74.6308 23.8239V18.2727H76.3297V23.6193C76.3297 24.214 76.4944 24.6875 76.824 25.0398C77.1535 25.392 77.5816 25.5682 78.1081 25.5682C78.4263 25.5682 78.7425 25.4886 79.0569 25.3295C79.3751 25.1705 79.6384 24.9299 79.8467 24.608C80.0588 24.286 80.163 23.8769 80.1592 23.3807ZM87.5803 18.2727V19.6364H82.8132V18.2727H87.5803ZM84.0916 16.1818H85.7905V24.4375C85.7905 24.767 85.8398 25.0152 85.9382 25.1818C86.0367 25.3447 86.1636 25.4564 86.3189 25.517C86.478 25.5739 86.6504 25.6023 86.836 25.6023C86.9723 25.6023 87.0916 25.5928 87.1939 25.5739C87.2962 25.5549 87.3757 25.5398 87.4326 25.5284L87.7394 26.9318C87.6409 26.9697 87.5007 27.0076 87.3189 27.0455C87.1371 27.0871 86.9098 27.1098 86.6371 27.1136C86.1901 27.1212 85.7735 27.0417 85.3871 26.875C85.0007 26.7083 84.6882 26.4508 84.4496 26.1023C84.211 25.7538 84.0916 25.3163 84.0916 24.7898V16.1818ZM92.4019 27.1761C91.5838 27.1761 90.8697 26.9886 90.2599 26.6136C89.65 26.2386 89.1766 25.714 88.8394 25.0398C88.5023 24.3655 88.3338 23.5777 88.3338 22.6761C88.3338 21.7708 88.5023 20.9792 88.8394 20.3011C89.1766 19.6231 89.65 19.0966 90.2599 18.7216C90.8697 18.3466 91.5838 18.1591 92.4019 18.1591C93.2201 18.1591 93.9341 18.3466 94.544 18.7216C95.1538 19.0966 95.6273 19.6231 95.9644 20.3011C96.3016 20.9792 96.4701 21.7708 96.4701 22.6761C96.4701 23.5777 96.3016 24.3655 95.9644 25.0398C95.6273 25.714 95.1538 26.2386 94.544 26.6136C93.9341 26.9886 93.2201 27.1761 92.4019 27.1761ZM92.4076 25.75C92.9379 25.75 93.3773 25.6098 93.7258 25.3295C94.0743 25.0492 94.3319 24.6761 94.4985 24.2102C94.669 23.7443 94.7542 23.2311 94.7542 22.6705C94.7542 22.1136 94.669 21.6023 94.4985 21.1364C94.3319 20.6667 94.0743 20.2898 93.7258 20.0057C93.3773 19.7216 92.9379 19.5795 92.4076 19.5795C91.8735 19.5795 91.4303 19.7216 91.0781 20.0057C90.7296 20.2898 90.4701 20.6667 90.2997 21.1364C90.133 21.6023 90.0497 22.1136 90.0497 22.6705C90.0497 23.2311 90.133 23.7443 90.2997 24.2102C90.4701 24.6761 90.7296 25.0492 91.0781 25.3295C91.4303 25.6098 91.8735 25.75 92.4076 25.75ZM97.7264 27V18.2727H99.3685V19.6591H99.4594C99.6185 19.1894 99.8988 18.8201 100.3 18.5511C100.706 18.2784 101.164 18.142 101.675 18.142C101.781 18.142 101.906 18.1458 102.05 18.1534C102.198 18.161 102.314 18.1705 102.397 18.1818V19.8068C102.329 19.7879 102.207 19.767 102.033 19.7443C101.859 19.7178 101.685 19.7045 101.511 19.7045C101.109 19.7045 100.751 19.7898 100.437 19.9602C100.126 20.1269 99.8798 20.3598 99.698 20.6591C99.5162 20.9545 99.4253 21.2917 99.4253 21.6705V27H97.7264ZM103.227 27V18.2727H104.926V27H103.227ZM104.085 16.9261C103.79 16.9261 103.536 16.8277 103.324 16.6307C103.115 16.4299 103.011 16.1913 103.011 15.9148C103.011 15.6345 103.115 15.3958 103.324 15.1989C103.536 14.9981 103.79 14.8977 104.085 14.8977C104.38 14.8977 104.632 14.9981 104.841 15.1989C105.053 15.3958 105.159 15.6345 105.159 15.9148C105.159 16.1913 105.053 16.4299 104.841 16.6307C104.632 16.8277 104.38 16.9261 104.085 16.9261ZM109.111 27.1932C108.558 27.1932 108.058 27.0909 107.611 26.8864C107.164 26.678 106.81 26.3769 106.549 25.983C106.291 25.589 106.162 25.1061 106.162 24.5341C106.162 24.0417 106.257 23.6364 106.446 23.3182C106.636 23 106.891 22.7481 107.213 22.5625C107.535 22.3769 107.895 22.2367 108.293 22.142C108.691 22.0473 109.096 21.9754 109.509 21.9261C110.032 21.8655 110.456 21.8163 110.782 21.7784C111.107 21.7367 111.344 21.6705 111.492 21.5795C111.64 21.4886 111.713 21.3409 111.713 21.1364V21.0966C111.713 20.6004 111.573 20.2159 111.293 19.9432C111.016 19.6705 110.604 19.5341 110.054 19.5341C109.482 19.5341 109.032 19.661 108.702 19.9148C108.376 20.1648 108.151 20.4432 108.026 20.75L106.429 20.3864C106.619 19.8561 106.895 19.428 107.259 19.1023C107.626 18.7727 108.049 18.5341 108.526 18.3864C109.003 18.2348 109.505 18.1591 110.032 18.1591C110.38 18.1591 110.749 18.2008 111.14 18.2841C111.534 18.3636 111.901 18.5114 112.242 18.7273C112.587 18.9432 112.869 19.2519 113.088 19.6534C113.308 20.0511 113.418 20.5682 113.418 21.2045V27H111.759V25.8068H111.691C111.581 26.0265 111.416 26.2424 111.196 26.4545C110.977 26.6667 110.695 26.8428 110.35 26.983C110.005 27.1231 109.592 27.1932 109.111 27.1932ZM109.481 25.8295C109.95 25.8295 110.352 25.7367 110.685 25.5511C111.022 25.3655 111.278 25.1231 111.452 24.8239C111.63 24.5208 111.719 24.197 111.719 23.8523V22.7273C111.659 22.7879 111.541 22.8447 111.367 22.8977C111.196 22.947 111.001 22.9905 110.782 23.0284C110.562 23.0625 110.348 23.0947 110.14 23.125C109.931 23.1515 109.757 23.1742 109.617 23.1932C109.287 23.2348 108.986 23.3049 108.713 23.4034C108.445 23.5019 108.229 23.6439 108.066 23.8295C107.907 24.0114 107.827 24.2538 107.827 24.5568C107.827 24.9773 107.982 25.2955 108.293 25.5114C108.604 25.7235 108.999 25.8295 109.481 25.8295ZM116.74 15.3636V27H115.041V15.3636H116.74Z" fill="white"/>
<g opacity="0.5">
<path d="M145.042 27.0417H133.958V15.9583H139.5V14.375H133.958C133.08 14.375 132.375 15.0875 132.375 15.9583V27.0417C132.375 27.9125 133.08 28.625 133.958 28.625H145.042C145.913 28.625 146.625 27.9125 146.625 27.0417V21.5H145.042V27.0417ZM141.083 14.375V15.9583H143.925L136.143 23.7404L137.26 24.8567L145.042 17.0746V19.9167H146.625V14.375H141.083Z" fill="white"/>
</g>
</svg>
