<svg width="281" height="43" viewBox="0 0 281 43" fill="none" xmlns="http://www.w3.org/2000/svg">
<rect width="281" height="43" rx="8" fill="#0D93CD"/>
<path d="M34.9432 19.1477H33.1705C33.1023 18.7689 32.9754 18.4356 32.7898 18.1477C32.6042 17.8598 32.3769 17.6155 32.108 17.4148C31.839 17.214 31.5379 17.0625 31.2045 16.9602C30.875 16.858 30.5246 16.8068 30.1534 16.8068C29.483 16.8068 28.8826 16.9754 28.3523 17.3125C27.8258 17.6496 27.4091 18.1439 27.1023 18.7955C26.7992 19.447 26.6477 20.2424 26.6477 21.1818C26.6477 22.1288 26.7992 22.928 27.1023 23.5795C27.4091 24.2311 27.8277 24.7235 28.358 25.0568C28.8883 25.3902 29.4848 25.5568 30.1477 25.5568C30.5152 25.5568 30.8636 25.5076 31.1932 25.4091C31.5265 25.3068 31.8277 25.1572 32.0966 24.9602C32.3655 24.7633 32.5928 24.5227 32.7784 24.2386C32.9678 23.9508 33.0985 23.6212 33.1705 23.25L34.9432 23.2557C34.8485 23.8277 34.6648 24.3542 34.392 24.8352C34.1231 25.3125 33.7765 25.7254 33.3523 26.0739C32.9318 26.4186 32.4508 26.6856 31.9091 26.875C31.3674 27.0644 30.7765 27.1591 30.1364 27.1591C29.1288 27.1591 28.2311 26.9205 27.4432 26.4432C26.6553 25.9621 26.0341 25.2746 25.5795 24.3807C25.1288 23.4867 24.9034 22.4205 24.9034 21.1818C24.9034 19.9394 25.1307 18.8731 25.5852 17.983C26.0398 17.089 26.661 16.4034 27.4489 15.9261C28.2367 15.4451 29.1326 15.2045 30.1364 15.2045C30.7538 15.2045 31.3295 15.2936 31.8636 15.4716C32.4015 15.6458 32.8845 15.9034 33.3125 16.2443C33.7405 16.5814 34.0947 16.9943 34.375 17.483C34.6553 17.9678 34.8447 18.5227 34.9432 19.1477ZM36.404 27V15.3636H40.5518C41.4533 15.3636 42.2014 15.5189 42.7961 15.8295C43.3946 16.1402 43.8415 16.5701 44.137 17.1193C44.4324 17.6648 44.5802 18.2955 44.5802 19.0114C44.5802 19.7235 44.4305 20.3504 44.1313 20.892C43.8359 21.4299 43.3889 21.8485 42.7904 22.1477C42.1957 22.447 41.4476 22.5966 40.5461 22.5966H37.404V21.0852H40.387C40.9552 21.0852 41.4173 21.0038 41.7734 20.8409C42.1332 20.678 42.3965 20.4413 42.5631 20.1307C42.7298 19.8201 42.8131 19.447 42.8131 19.0114C42.8131 18.572 42.7279 18.1913 42.5574 17.8693C42.3908 17.5473 42.1275 17.3011 41.7677 17.1307C41.4116 16.9564 40.9438 16.8693 40.3643 16.8693H38.1597V27H36.404ZM42.1484 21.75L45.0234 27H43.0234L40.2052 21.75H42.1484ZM53.5595 15.3636H55.3209V23.017C55.3209 23.8314 55.1296 24.553 54.747 25.1818C54.3644 25.8068 53.8265 26.2992 53.1334 26.6591C52.4402 27.0152 51.6277 27.1932 50.6959 27.1932C49.7678 27.1932 48.9572 27.0152 48.264 26.6591C47.5709 26.2992 47.033 25.8068 46.6504 25.1818C46.2678 24.553 46.0765 23.8314 46.0765 23.017V15.3636H47.8322V22.875C47.8322 23.4015 47.9477 23.8693 48.1788 24.2784C48.4137 24.6875 48.7451 25.0095 49.1731 25.2443C49.6012 25.4754 50.1087 25.5909 50.6959 25.5909C51.2868 25.5909 51.7962 25.4754 52.2243 25.2443C52.6561 25.0095 52.9856 24.6875 53.2129 24.2784C53.444 23.8693 53.5595 23.4015 53.5595 22.875V15.3636ZM61.0005 27H57.2334V15.3636H61.1198C62.2599 15.3636 63.2391 15.5966 64.0573 16.0625C64.8755 16.5246 65.5023 17.1894 65.938 18.0568C66.3773 18.9205 66.597 19.9564 66.597 21.1648C66.597 22.3769 66.3755 23.4186 65.9323 24.2898C65.4929 25.161 64.8565 25.8314 64.0232 26.3011C63.1898 26.767 62.1823 27 61.0005 27ZM58.9891 25.4659H60.9039C61.7902 25.4659 62.527 25.2992 63.1141 24.9659C63.7012 24.6288 64.1406 24.142 64.4323 23.5057C64.7239 22.8655 64.8698 22.0852 64.8698 21.1648C64.8698 20.2519 64.7239 19.4773 64.4323 18.8409C64.1444 18.2045 63.7145 17.7216 63.1425 17.392C62.5705 17.0625 61.8603 16.8977 61.0118 16.8977H58.9891V25.4659ZM71.7347 27V15.3636H75.8824C76.7839 15.3636 77.532 15.5189 78.1267 15.8295C78.7252 16.1402 79.1722 16.5701 79.4676 17.1193C79.7631 17.6648 79.9108 18.2955 79.9108 19.0114C79.9108 19.7235 79.7612 20.3504 79.4619 20.892C79.1665 21.4299 78.7195 21.8485 78.121 22.1477C77.5263 22.447 76.7782 22.5966 75.8767 22.5966H72.7347V21.0852H75.7176C76.2858 21.0852 76.7479 21.0038 77.104 20.8409C77.4638 20.678 77.7271 20.4413 77.8937 20.1307C78.0604 19.8201 78.1437 19.447 78.1437 19.0114C78.1437 18.572 78.0585 18.1913 77.8881 17.8693C77.7214 17.5473 77.4581 17.3011 77.0983 17.1307C76.7422 16.9564 76.2744 16.8693 75.6949 16.8693H73.4903V27H71.7347ZM77.479 21.75L80.354 27H78.354L75.5358 21.75H77.479ZM81.4072 27V15.3636H88.7026V16.875H83.1628V20.4205H88.3219V21.9261H83.1628V25.4886H88.7708V27H81.4072ZM96.7544 18.4205C96.6938 17.8826 96.4438 17.4659 96.0044 17.1705C95.565 16.8712 95.0119 16.7216 94.3453 16.7216C93.868 16.7216 93.4551 16.7973 93.1066 16.9489C92.7582 17.0966 92.4873 17.3011 92.2941 17.5625C92.1048 17.8201 92.0101 18.1136 92.0101 18.4432C92.0101 18.7197 92.0744 18.9583 92.2032 19.1591C92.3358 19.3598 92.5082 19.5284 92.7203 19.6648C92.9362 19.7973 93.1673 19.9091 93.4135 20C93.6597 20.0871 93.8964 20.1591 94.1237 20.2159L95.2601 20.5114C95.6313 20.6023 96.0119 20.7254 96.4021 20.8807C96.7923 21.036 97.154 21.2405 97.4873 21.4943C97.8207 21.7481 98.0896 22.0625 98.2941 22.4375C98.5025 22.8125 98.6066 23.2614 98.6066 23.7841C98.6066 24.4432 98.4362 25.0284 98.0953 25.5398C97.7582 26.0511 97.2676 26.4545 96.6237 26.75C95.9835 27.0455 95.2089 27.1932 94.2998 27.1932C93.4286 27.1932 92.6748 27.0549 92.0385 26.7784C91.4021 26.5019 90.904 26.1098 90.5441 25.6023C90.1843 25.0909 89.9854 24.4848 89.9476 23.7841H91.7089C91.743 24.2045 91.8794 24.5549 92.118 24.8352C92.3604 25.1117 92.6691 25.3182 93.0441 25.4545C93.4229 25.5871 93.8377 25.6534 94.2885 25.6534C94.7847 25.6534 95.226 25.5758 95.6123 25.4205C96.0025 25.2614 96.3093 25.0417 96.5328 24.7614C96.7563 24.4773 96.868 24.1458 96.868 23.767C96.868 23.4223 96.7695 23.1402 96.5726 22.9205C96.3794 22.7008 96.1161 22.5189 95.7828 22.375C95.4532 22.2311 95.0801 22.1042 94.6635 21.9943L93.2885 21.6193C92.3566 21.3655 91.618 20.9924 91.0726 20.5C90.5309 20.0076 90.2601 19.3561 90.2601 18.5455C90.2601 17.875 90.4419 17.2898 90.8055 16.7898C91.1691 16.2898 91.6616 15.9015 92.2828 15.625C92.904 15.3447 93.6048 15.2045 94.3851 15.2045C95.1729 15.2045 95.868 15.3428 96.4703 15.6193C97.0763 15.8958 97.5536 16.2765 97.9021 16.7614C98.2506 17.2424 98.4324 17.7955 98.4476 18.4205H96.7544ZM99.4908 16.875V15.3636H108.496V16.875H104.866V27H103.116V16.875H99.4908ZM114.424 27H112.56L116.748 15.3636H118.776L122.964 27H121.1L117.81 17.4773H117.719L114.424 27ZM114.736 22.4432H120.782V23.9205H114.736V22.4432ZM124.004 27V15.3636H128.152C129.057 15.3636 129.807 15.5284 130.402 15.858C130.996 16.1875 131.442 16.6383 131.737 17.2102C132.032 17.7784 132.18 18.4186 132.18 19.1307C132.18 19.8466 132.031 20.4905 131.731 21.0625C131.436 21.6307 130.989 22.0814 130.39 22.4148C129.796 22.7443 129.048 22.9091 128.146 22.9091H125.294V21.4205H127.987C128.559 21.4205 129.023 21.322 129.379 21.125C129.735 20.9242 129.996 20.6515 130.163 20.3068C130.33 19.9621 130.413 19.5701 130.413 19.1307C130.413 18.6913 130.33 18.3011 130.163 17.9602C129.996 17.6193 129.733 17.3523 129.373 17.1591C129.017 16.9659 128.548 16.8693 127.964 16.8693H125.76V27H124.004ZM135.354 15.3636V27H133.598V15.3636H135.354ZM140.729 27V18.2727H142.428V27H140.729ZM141.587 16.9261C141.291 16.9261 141.038 16.8277 140.826 16.6307C140.617 16.4299 140.513 16.1913 140.513 15.9148C140.513 15.6345 140.617 15.3958 140.826 15.1989C141.038 14.9981 141.291 14.8977 141.587 14.8977C141.882 14.8977 142.134 14.9981 142.343 15.1989C142.555 15.3958 142.661 15.6345 142.661 15.9148C142.661 16.1913 142.555 16.4299 142.343 16.6307C142.134 16.8277 141.882 16.9261 141.587 16.9261ZM145.772 21.8182V27H144.073V18.2727H145.704V19.6932H145.812C146.013 19.2311 146.327 18.8598 146.755 18.5795C147.187 18.2992 147.73 18.1591 148.386 18.1591C148.98 18.1591 149.501 18.2841 149.948 18.5341C150.395 18.7803 150.742 19.1477 150.988 19.6364C151.234 20.125 151.357 20.7292 151.357 21.4489V27H149.659V21.6534C149.659 21.0208 149.494 20.5265 149.164 20.1705C148.835 19.8106 148.382 19.6307 147.806 19.6307C147.412 19.6307 147.062 19.7159 146.755 19.8864C146.452 20.0568 146.212 20.3068 146.034 20.6364C145.859 20.9621 145.772 21.3561 145.772 21.8182ZM160.408 27.1591C159.696 27.1591 159.056 27.0227 158.488 26.75C157.923 26.4735 157.473 26.0947 157.136 25.6136C156.798 25.1326 156.619 24.5833 156.596 23.9659H158.3C158.342 24.4659 158.564 24.8769 158.965 25.1989C159.367 25.5208 159.848 25.6818 160.408 25.6818C160.855 25.6818 161.251 25.5795 161.596 25.375C161.944 25.1667 162.217 24.8807 162.414 24.517C162.615 24.1534 162.715 23.7386 162.715 23.2727C162.715 22.7992 162.613 22.3769 162.408 22.0057C162.204 21.6345 161.922 21.3428 161.562 21.1307C161.206 20.9186 160.797 20.8106 160.334 20.8068C159.982 20.8068 159.628 20.8674 159.272 20.9886C158.916 21.1098 158.628 21.2689 158.408 21.4659L156.8 21.2273L157.454 15.3636H163.852V16.8693H158.914L158.545 20.125H158.613C158.84 19.9053 159.141 19.7216 159.516 19.5739C159.895 19.4261 160.3 19.3523 160.732 19.3523C161.441 19.3523 162.071 19.5208 162.624 19.858C163.181 20.1951 163.619 20.6553 163.937 21.2386C164.259 21.8182 164.418 22.4848 164.414 23.2386C164.418 23.9924 164.247 24.6648 163.903 25.2557C163.562 25.8466 163.088 26.3125 162.482 26.6534C161.88 26.9905 161.189 27.1591 160.408 27.1591ZM169.466 27V18.2727H171.097V19.6932H171.205C171.387 19.2121 171.684 18.8371 172.097 18.5682C172.51 18.2955 173.004 18.1591 173.58 18.1591C174.163 18.1591 174.652 18.2955 175.046 18.5682C175.444 18.8409 175.737 19.2159 175.927 19.6932H176.018C176.226 19.2273 176.557 18.8561 177.012 18.5795C177.466 18.2992 178.008 18.1591 178.637 18.1591C179.429 18.1591 180.074 18.4072 180.574 18.9034C181.078 19.3996 181.33 20.1477 181.33 21.1477V27H179.631V21.3068C179.631 20.7159 179.47 20.2879 179.148 20.0227C178.826 19.7576 178.442 19.625 177.995 19.625C177.442 19.625 177.012 19.7955 176.705 20.1364C176.398 20.4735 176.245 20.9072 176.245 21.4375V27H174.552V21.1989C174.552 20.7254 174.404 20.3447 174.108 20.0568C173.813 19.7689 173.429 19.625 172.955 19.625C172.633 19.625 172.336 19.7102 172.063 19.8807C171.794 20.0473 171.576 20.2803 171.41 20.5795C171.247 20.8788 171.165 21.2254 171.165 21.6193V27H169.466ZM182.967 27V18.2727H184.666V27H182.967ZM183.825 16.9261C183.53 16.9261 183.276 16.8277 183.064 16.6307C182.855 16.4299 182.751 16.1913 182.751 15.9148C182.751 15.6345 182.855 15.3958 183.064 15.1989C183.276 14.9981 183.53 14.8977 183.825 14.8977C184.12 14.8977 184.372 14.9981 184.581 15.1989C184.793 15.3958 184.899 15.6345 184.899 15.9148C184.899 16.1913 184.793 16.4299 184.581 16.6307C184.372 16.8277 184.12 16.9261 183.825 16.9261ZM188.01 21.8182V27H186.311V18.2727H187.942V19.6932H188.05C188.251 19.2311 188.565 18.8598 188.993 18.5795C189.425 18.2992 189.969 18.1591 190.624 18.1591C191.219 18.1591 191.739 18.2841 192.186 18.5341C192.633 18.7803 192.98 19.1477 193.226 19.6364C193.472 20.125 193.596 20.7292 193.596 21.4489V27H191.897V21.6534C191.897 21.0208 191.732 20.5265 191.402 20.1705C191.073 19.8106 190.62 19.6307 190.044 19.6307C189.65 19.6307 189.3 19.7159 188.993 19.8864C188.69 20.0568 188.45 20.3068 188.272 20.6364C188.097 20.9621 188.01 21.3561 188.01 21.8182ZM200.762 23.3807V18.2727H202.467V27H200.796V25.4886H200.706C200.505 25.9545 200.183 26.3428 199.74 26.6534C199.3 26.9602 198.753 27.1136 198.098 27.1136C197.537 27.1136 197.041 26.9905 196.609 26.7443C196.181 26.4943 195.844 26.125 195.598 25.6364C195.355 25.1477 195.234 24.5436 195.234 23.8239V18.2727H196.933V23.6193C196.933 24.214 197.098 24.6875 197.427 25.0398C197.757 25.392 198.185 25.5682 198.711 25.5682C199.029 25.5682 199.346 25.4886 199.66 25.3295C199.978 25.1705 200.241 24.9299 200.45 24.608C200.662 24.286 200.766 23.8769 200.762 23.3807ZM208.183 18.2727V19.6364H203.416V18.2727H208.183ZM204.695 16.1818H206.394V24.4375C206.394 24.767 206.443 25.0152 206.541 25.1818C206.64 25.3447 206.767 25.4564 206.922 25.517C207.081 25.5739 207.253 25.6023 207.439 25.6023C207.575 25.6023 207.695 25.5928 207.797 25.5739C207.899 25.5549 207.979 25.5398 208.036 25.5284L208.342 26.9318C208.244 26.9697 208.104 27.0076 207.922 27.0455C207.74 27.0871 207.513 27.1098 207.24 27.1136C206.793 27.1212 206.377 27.0417 205.99 26.875C205.604 26.7083 205.291 26.4508 205.053 26.1023C204.814 25.7538 204.695 25.3163 204.695 24.7898V16.1818ZM213.09 27.1761C212.23 27.1761 211.49 26.9924 210.869 26.625C210.251 26.2538 209.774 25.733 209.437 25.0625C209.104 24.3883 208.937 23.5985 208.937 22.6932C208.937 21.7992 209.104 21.0114 209.437 20.3295C209.774 19.6477 210.244 19.1155 210.846 18.733C211.452 18.3504 212.16 18.1591 212.971 18.1591C213.463 18.1591 213.941 18.2405 214.403 18.4034C214.865 18.5663 215.28 18.822 215.647 19.1705C216.015 19.5189 216.304 19.9716 216.516 20.5284C216.729 21.0814 216.835 21.7538 216.835 22.5455V23.1477H209.897V21.875H215.17C215.17 21.428 215.079 21.0322 214.897 20.6875C214.715 20.339 214.46 20.0644 214.13 19.8636C213.804 19.6629 213.422 19.5625 212.982 19.5625C212.505 19.5625 212.088 19.6799 211.732 19.9148C211.38 20.1458 211.107 20.4489 210.914 20.8239C210.725 21.1951 210.63 21.5985 210.63 22.0341V23.0284C210.63 23.6117 210.732 24.108 210.937 24.517C211.145 24.9261 211.435 25.2386 211.806 25.4545C212.177 25.6667 212.611 25.7727 213.107 25.7727C213.429 25.7727 213.723 25.7273 213.988 25.6364C214.253 25.5417 214.482 25.4015 214.676 25.2159C214.869 25.0303 215.016 24.8011 215.119 24.5284L216.727 24.8182C216.598 25.2917 216.367 25.7064 216.033 26.0625C215.704 26.4148 215.289 26.6894 214.789 26.8864C214.293 27.0795 213.727 27.1761 213.09 27.1761ZM224.619 20.4034L223.08 20.6761C223.015 20.4792 222.913 20.2917 222.773 20.1136C222.636 19.9356 222.451 19.7898 222.216 19.6761C221.981 19.5625 221.688 19.5057 221.335 19.5057C220.854 19.5057 220.453 19.6136 220.131 19.8295C219.809 20.0417 219.648 20.3163 219.648 20.6534C219.648 20.9451 219.756 21.1799 219.972 21.358C220.188 21.536 220.536 21.6818 221.017 21.7955L222.403 22.1136C223.206 22.2992 223.805 22.5852 224.199 22.9716C224.593 23.358 224.79 23.8598 224.79 24.4773C224.79 25 224.638 25.4659 224.335 25.875C224.036 26.2803 223.617 26.5985 223.08 26.8295C222.545 27.0606 221.926 27.1761 221.222 27.1761C220.244 27.1761 219.447 26.9678 218.83 26.5511C218.212 26.1307 217.833 25.5341 217.693 24.7614L219.335 24.5114C219.438 24.9394 219.648 25.2633 219.966 25.483C220.284 25.6989 220.699 25.8068 221.21 25.8068C221.767 25.8068 222.212 25.6913 222.545 25.4602C222.879 25.2254 223.045 24.9394 223.045 24.6023C223.045 24.3295 222.943 24.1004 222.739 23.9148C222.538 23.7292 222.229 23.589 221.812 23.4943L220.335 23.1705C219.521 22.9848 218.919 22.6894 218.528 22.2841C218.142 21.8788 217.949 21.3655 217.949 20.7443C217.949 20.2292 218.093 19.7784 218.381 19.392C218.669 19.0057 219.066 18.7045 219.574 18.4886C220.081 18.2689 220.663 18.1591 221.318 18.1591C222.261 18.1591 223.004 18.3636 223.545 18.7727C224.087 19.178 224.445 19.7216 224.619 20.4034Z" fill="white"/>
<g opacity="0.5">
<path d="M253.042 27.0417H241.958V15.9583H247.5V14.375H241.958C241.08 14.375 240.375 15.0875 240.375 15.9583V27.0417C240.375 27.9125 241.08 28.625 241.958 28.625H253.042C253.913 28.625 254.625 27.9125 254.625 27.0417V21.5H253.042V27.0417ZM249.083 14.375V15.9583H251.925L244.143 23.7404L245.26 24.8567L253.042 17.0746V19.9167H254.625V14.375H249.083Z" fill="white"/>
</g>
</svg>
