<svg width="320" height="43" viewBox="0 0 320 43" fill="none" xmlns="http://www.w3.org/2000/svg">
<rect width="320" height="43" rx="8" fill="#0D93CD"/>
<path d="M29.8011 15.3636H31.5511V23.6136C31.5511 24.3598 31.4034 24.9981 31.108 25.5284C30.8163 26.0587 30.4053 26.464 29.875 26.7443C29.3447 27.0208 28.7235 27.1591 28.0114 27.1591C27.3561 27.1591 26.767 27.0398 26.2443 26.8011C25.7254 26.5625 25.3144 26.2159 25.0114 25.7614C24.7121 25.303 24.5625 24.7462 24.5625 24.0909H26.3068C26.3068 24.4129 26.3807 24.6913 26.5284 24.9261C26.6799 25.161 26.8864 25.3447 27.1477 25.4773C27.4129 25.6061 27.7159 25.6705 28.0568 25.6705C28.428 25.6705 28.7424 25.5928 29 25.4375C29.2614 25.2784 29.4602 25.0455 29.5966 24.7386C29.733 24.4318 29.8011 24.0568 29.8011 23.6136V15.3636ZM39.8131 18.4205C39.7525 17.8826 39.5025 17.4659 39.0631 17.1705C38.6237 16.8712 38.0707 16.7216 37.404 16.7216C36.9268 16.7216 36.5139 16.7973 36.1654 16.9489C35.8169 17.0966 35.5461 17.3011 35.3529 17.5625C35.1635 17.8201 35.0688 18.1136 35.0688 18.4432C35.0688 18.7197 35.1332 18.9583 35.262 19.1591C35.3946 19.3598 35.5669 19.5284 35.779 19.6648C35.9949 19.7973 36.226 19.9091 36.4722 20C36.7184 20.0871 36.9552 20.1591 37.1824 20.2159L38.3188 20.5114C38.69 20.6023 39.0707 20.7254 39.4609 20.8807C39.851 21.036 40.2127 21.2405 40.5461 21.4943C40.8794 21.7481 41.1484 22.0625 41.3529 22.4375C41.5612 22.8125 41.6654 23.2614 41.6654 23.7841C41.6654 24.4432 41.4949 25.0284 41.154 25.5398C40.8169 26.0511 40.3264 26.4545 39.6824 26.75C39.0423 27.0455 38.2677 27.1932 37.3586 27.1932C36.4874 27.1932 35.7336 27.0549 35.0972 26.7784C34.4609 26.5019 33.9627 26.1098 33.6029 25.6023C33.243 25.0909 33.0442 24.4848 33.0063 23.7841H34.7677C34.8018 24.2045 34.9381 24.5549 35.1768 24.8352C35.4192 25.1117 35.7279 25.3182 36.1029 25.4545C36.4817 25.5871 36.8965 25.6534 37.3472 25.6534C37.8434 25.6534 38.2847 25.5758 38.6711 25.4205C39.0612 25.2614 39.368 25.0417 39.5915 24.7614C39.815 24.4773 39.9268 24.1458 39.9268 23.767C39.9268 23.4223 39.8283 23.1402 39.6313 22.9205C39.4381 22.7008 39.1749 22.5189 38.8415 22.375C38.512 22.2311 38.1389 22.1042 37.7222 21.9943L36.3472 21.6193C35.4154 21.3655 34.6768 20.9924 34.1313 20.5C33.5896 20.0076 33.3188 19.3561 33.3188 18.5455C33.3188 17.875 33.5006 17.2898 33.8643 16.7898C34.2279 16.2898 34.7203 15.9015 35.3415 15.625C35.9627 15.3447 36.6635 15.2045 37.4438 15.2045C38.2317 15.2045 38.9268 15.3428 39.529 15.6193C40.1351 15.8958 40.6124 16.2765 40.9609 16.7614C41.3093 17.2424 41.4912 17.7955 41.5063 18.4205H39.8131ZM42.987 27V18.2727H44.6859V27H42.987ZM43.845 16.9261C43.5495 16.9261 43.2958 16.8277 43.0836 16.6307C42.8753 16.4299 42.7711 16.1913 42.7711 15.9148C42.7711 15.6345 42.8753 15.3958 43.0836 15.1989C43.2958 14.9981 43.5495 14.8977 43.845 14.8977C44.1405 14.8977 44.3923 14.9981 44.6007 15.1989C44.8128 15.3958 44.9189 15.6345 44.9189 15.9148C44.9189 16.1913 44.8128 16.4299 44.6007 16.6307C44.3923 16.8277 44.1405 16.9261 43.845 16.9261ZM49.9905 30.4545C49.2973 30.4545 48.7007 30.3636 48.2007 30.1818C47.7045 30 47.2992 29.7595 46.9848 29.4602C46.6704 29.161 46.4356 28.8333 46.2803 28.4773L47.7405 27.875C47.8428 28.0417 47.9791 28.2178 48.1496 28.4034C48.3238 28.5928 48.5587 28.7538 48.8541 28.8864C49.1534 29.0189 49.5379 29.0852 50.0076 29.0852C50.6515 29.0852 51.1837 28.928 51.6041 28.6136C52.0246 28.303 52.2348 27.8068 52.2348 27.125V25.4091H52.1269C52.0246 25.5947 51.8769 25.8011 51.6837 26.0284C51.4943 26.2557 51.2329 26.4527 50.8996 26.6193C50.5663 26.786 50.1326 26.8693 49.5985 26.8693C48.9091 26.8693 48.2879 26.7083 47.7348 26.3864C47.1856 26.0606 46.75 25.5814 46.428 24.9489C46.1098 24.3125 45.9507 23.5303 45.9507 22.6023C45.9507 21.6742 46.1079 20.8788 46.4223 20.2159C46.7405 19.553 47.1761 19.0455 47.7291 18.6932C48.2822 18.3371 48.9091 18.1591 49.6098 18.1591C50.1515 18.1591 50.589 18.25 50.9223 18.4318C51.2557 18.6098 51.5151 18.8182 51.7007 19.0568C51.8901 19.2955 52.036 19.5057 52.1382 19.6875H52.2632V18.2727H53.928V27.1932C53.928 27.9432 53.7538 28.5587 53.4053 29.0398C53.0568 29.5208 52.5852 29.8769 51.9905 30.108C51.3996 30.339 50.7329 30.4545 49.9905 30.4545ZM49.9735 25.4602C50.4621 25.4602 50.875 25.3466 51.2121 25.1193C51.553 24.8883 51.8106 24.5587 51.9848 24.1307C52.1629 23.6989 52.2519 23.1818 52.2519 22.5795C52.2519 21.9924 52.1648 21.4754 51.9905 21.0284C51.8163 20.5814 51.5606 20.233 51.2235 19.983C50.8863 19.7292 50.4697 19.6023 49.9735 19.6023C49.4621 19.6023 49.036 19.7348 48.6951 20C48.3541 20.2614 48.0966 20.6174 47.9223 21.0682C47.7519 21.5189 47.6666 22.0227 47.6666 22.5795C47.6666 23.1515 47.7538 23.6534 47.928 24.0852C48.1023 24.517 48.3598 24.8542 48.7007 25.0966C49.0454 25.339 49.4697 25.4602 49.9735 25.4602ZM57.2653 21.8182V27H55.5664V15.3636H57.2426V19.6932H57.3505C57.5551 19.2235 57.8676 18.8504 58.288 18.5739C58.7085 18.2973 59.2577 18.1591 59.9357 18.1591C60.5342 18.1591 61.057 18.2822 61.5039 18.5284C61.9547 18.7746 62.3032 19.142 62.5494 19.6307C62.7994 20.1155 62.9244 20.7216 62.9244 21.4489V27H61.2255V21.6534C61.2255 21.0133 61.0607 20.517 60.7312 20.1648C60.4016 19.8087 59.9433 19.6307 59.3562 19.6307C58.9547 19.6307 58.5948 19.7159 58.2766 19.8864C57.9623 20.0568 57.7141 20.3068 57.5323 20.6364C57.3543 20.9621 57.2653 21.3561 57.2653 21.8182ZM68.6253 18.2727V19.6364H63.8582V18.2727H68.6253ZM65.1366 16.1818H66.8355V24.4375C66.8355 24.767 66.8848 25.0152 66.9832 25.1818C67.0817 25.3447 67.2086 25.4564 67.3639 25.517C67.523 25.5739 67.6954 25.6023 67.881 25.6023C68.0173 25.6023 68.1366 25.5928 68.2389 25.5739C68.3412 25.5549 68.4207 25.5398 68.4776 25.5284L68.7844 26.9318C68.6859 26.9697 68.5457 27.0076 68.3639 27.0455C68.1821 27.0871 67.9548 27.1098 67.6821 27.1136C67.2351 27.1212 66.8185 27.0417 66.4321 26.875C66.0457 26.7083 65.7332 26.4508 65.4946 26.1023C65.256 25.7538 65.1366 25.3163 65.1366 24.7898V16.1818ZM74.5782 27H72.7146L76.9021 15.3636H78.9305L83.118 27H81.2544L77.9646 17.4773H77.8737L74.5782 27ZM74.8907 22.4432H80.9362V23.9205H74.8907V22.4432ZM84.1584 27V15.3636H88.3061C89.2114 15.3636 89.9614 15.5284 90.5561 15.858C91.1508 16.1875 91.5959 16.6383 91.8914 17.2102C92.1868 17.7784 92.3345 18.4186 92.3345 19.1307C92.3345 19.8466 92.1849 20.4905 91.8857 21.0625C91.5902 21.6307 91.1433 22.0814 90.5448 22.4148C89.9501 22.7443 89.202 22.9091 88.3005 22.9091H85.4482V21.4205H88.1414C88.7133 21.4205 89.1773 21.322 89.5334 21.125C89.8895 20.9242 90.1508 20.6515 90.3175 20.3068C90.4842 19.9621 90.5675 19.5701 90.5675 19.1307C90.5675 18.6913 90.4842 18.3011 90.3175 17.9602C90.1508 17.6193 89.8876 17.3523 89.5277 17.1591C89.1717 16.9659 88.702 16.8693 88.1186 16.8693H85.9141V27H84.1584ZM95.5085 15.3636V27H93.7528V15.3636H95.5085ZM101.02 27V15.3636H102.775V25.4886H108.048V27H101.02ZM111.814 27.1932C111.261 27.1932 110.761 27.0909 110.314 26.8864C109.867 26.678 109.513 26.3769 109.252 25.983C108.994 25.589 108.865 25.1061 108.865 24.5341C108.865 24.0417 108.96 23.6364 109.15 23.3182C109.339 23 109.595 22.7481 109.917 22.5625C110.239 22.3769 110.598 22.2367 110.996 22.142C111.394 22.0473 111.799 21.9754 112.212 21.9261C112.735 21.8655 113.159 21.8163 113.485 21.7784C113.811 21.7367 114.047 21.6705 114.195 21.5795C114.343 21.4886 114.417 21.3409 114.417 21.1364V21.0966C114.417 20.6004 114.276 20.2159 113.996 19.9432C113.72 19.6705 113.307 19.5341 112.757 19.5341C112.186 19.5341 111.735 19.661 111.405 19.9148C111.079 20.1648 110.854 20.4432 110.729 20.75L109.132 20.3864C109.322 19.8561 109.598 19.428 109.962 19.1023C110.329 18.7727 110.752 18.5341 111.229 18.3864C111.706 18.2348 112.208 18.1591 112.735 18.1591C113.083 18.1591 113.453 18.2008 113.843 18.2841C114.237 18.3636 114.604 18.5114 114.945 18.7273C115.29 18.9432 115.572 19.2519 115.792 19.6534C116.011 20.0511 116.121 20.5682 116.121 21.2045V27H114.462V25.8068H114.394C114.284 26.0265 114.119 26.2424 113.9 26.4545C113.68 26.6667 113.398 26.8428 113.053 26.983C112.708 27.1231 112.295 27.1932 111.814 27.1932ZM112.184 25.8295C112.653 25.8295 113.055 25.7367 113.388 25.5511C113.725 25.3655 113.981 25.1231 114.155 24.8239C114.333 24.5208 114.422 24.197 114.422 23.8523V22.7273C114.362 22.7879 114.244 22.8447 114.07 22.8977C113.9 22.947 113.704 22.9905 113.485 23.0284C113.265 23.0625 113.051 23.0947 112.843 23.125C112.634 23.1515 112.46 23.1742 112.32 23.1932C111.99 23.2348 111.689 23.3049 111.417 23.4034C111.148 23.5019 110.932 23.6439 110.769 23.8295C110.61 24.0114 110.53 24.2538 110.53 24.5568C110.53 24.9773 110.686 25.2955 110.996 25.5114C111.307 25.7235 111.703 25.8295 112.184 25.8295ZM119.443 21.8182V27H117.744V18.2727H119.375V19.6932H119.483C119.683 19.2311 119.998 18.8598 120.426 18.5795C120.858 18.2992 121.401 18.1591 122.056 18.1591C122.651 18.1591 123.172 18.2841 123.619 18.5341C124.066 18.7803 124.412 19.1477 124.659 19.6364C124.905 20.125 125.028 20.7292 125.028 21.4489V27H123.329V21.6534C123.329 21.0208 123.164 20.5265 122.835 20.1705C122.505 19.8106 122.053 19.6307 121.477 19.6307C121.083 19.6307 120.733 19.7159 120.426 19.8864C120.123 20.0568 119.882 20.3068 119.704 20.6364C119.53 20.9621 119.443 21.3561 119.443 21.8182ZM130.326 30.4545C129.632 30.4545 129.036 30.3636 128.536 30.1818C128.04 30 127.634 29.7595 127.32 29.4602C127.005 29.161 126.771 28.8333 126.615 28.4773L128.076 27.875C128.178 28.0417 128.314 28.2178 128.485 28.4034C128.659 28.5928 128.894 28.7538 129.189 28.8864C129.488 29.0189 129.873 29.0852 130.343 29.0852C130.986 29.0852 131.519 28.928 131.939 28.6136C132.36 28.303 132.57 27.8068 132.57 27.125V25.4091H132.462C132.36 25.5947 132.212 25.8011 132.019 26.0284C131.829 26.2557 131.568 26.4527 131.235 26.6193C130.901 26.786 130.468 26.8693 129.933 26.8693C129.244 26.8693 128.623 26.7083 128.07 26.3864C127.521 26.0606 127.085 25.5814 126.763 24.9489C126.445 24.3125 126.286 23.5303 126.286 22.6023C126.286 21.6742 126.443 20.8788 126.757 20.2159C127.076 19.553 127.511 19.0455 128.064 18.6932C128.617 18.3371 129.244 18.1591 129.945 18.1591C130.486 18.1591 130.924 18.25 131.257 18.4318C131.591 18.6098 131.85 18.8182 132.036 19.0568C132.225 19.2955 132.371 19.5057 132.473 19.6875H132.598V18.2727H134.263V27.1932C134.263 27.9432 134.089 28.5587 133.74 29.0398C133.392 29.5208 132.92 29.8769 132.326 30.108C131.735 30.339 131.068 30.4545 130.326 30.4545ZM130.308 25.4602C130.797 25.4602 131.21 25.3466 131.547 25.1193C131.888 24.8883 132.146 24.5587 132.32 24.1307C132.498 23.6989 132.587 23.1818 132.587 22.5795C132.587 21.9924 132.5 21.4754 132.326 21.0284C132.151 20.5814 131.896 20.233 131.558 19.983C131.221 19.7292 130.805 19.6023 130.308 19.6023C129.797 19.6023 129.371 19.7348 129.03 20C128.689 20.2614 128.432 20.6174 128.257 21.0682C128.087 21.5189 128.002 22.0227 128.002 22.5795C128.002 23.1515 128.089 23.6534 128.263 24.0852C128.437 24.517 128.695 24.8542 129.036 25.0966C129.38 25.339 129.805 25.4602 130.308 25.4602ZM141.43 23.3807V18.2727H143.134V27H141.464V25.4886H141.373C141.172 25.9545 140.85 26.3428 140.407 26.6534C139.968 26.9602 139.42 27.1136 138.765 27.1136C138.204 27.1136 137.708 26.9905 137.276 26.7443C136.848 26.4943 136.511 26.125 136.265 25.6364C136.023 25.1477 135.901 24.5436 135.901 23.8239V18.2727H137.6V23.6193C137.6 24.214 137.765 24.6875 138.095 25.0398C138.424 25.392 138.852 25.5682 139.379 25.5682C139.697 25.5682 140.013 25.4886 140.328 25.3295C140.646 25.1705 140.909 24.9299 141.117 24.608C141.329 24.286 141.434 23.8769 141.43 23.3807ZM147.317 27.1932C146.764 27.1932 146.264 27.0909 145.817 26.8864C145.37 26.678 145.016 26.3769 144.754 25.983C144.497 25.589 144.368 25.1061 144.368 24.5341C144.368 24.0417 144.463 23.6364 144.652 23.3182C144.841 23 145.097 22.7481 145.419 22.5625C145.741 22.3769 146.101 22.2367 146.499 22.142C146.896 22.0473 147.302 21.9754 147.715 21.9261C148.237 21.8655 148.662 21.8163 148.987 21.7784C149.313 21.7367 149.55 21.6705 149.698 21.5795C149.845 21.4886 149.919 21.3409 149.919 21.1364V21.0966C149.919 20.6004 149.779 20.2159 149.499 19.9432C149.222 19.6705 148.809 19.5341 148.26 19.5341C147.688 19.5341 147.237 19.661 146.908 19.9148C146.582 20.1648 146.357 20.4432 146.232 20.75L144.635 20.3864C144.824 19.8561 145.101 19.428 145.465 19.1023C145.832 18.7727 146.254 18.5341 146.732 18.3864C147.209 18.2348 147.711 18.1591 148.237 18.1591C148.586 18.1591 148.955 18.2008 149.345 18.2841C149.739 18.3636 150.107 18.5114 150.448 18.7273C150.792 18.9432 151.074 19.2519 151.294 19.6534C151.514 20.0511 151.624 20.5682 151.624 21.2045V27H149.965V25.8068H149.896C149.787 26.0265 149.622 26.2424 149.402 26.4545C149.182 26.6667 148.9 26.8428 148.555 26.983C148.211 27.1231 147.798 27.1932 147.317 27.1932ZM147.686 25.8295C148.156 25.8295 148.557 25.7367 148.891 25.5511C149.228 25.3655 149.483 25.1231 149.658 24.8239C149.836 24.5208 149.925 24.197 149.925 23.8523V22.7273C149.864 22.7879 149.747 22.8447 149.573 22.8977C149.402 22.947 149.207 22.9905 148.987 23.0284C148.768 23.0625 148.554 23.0947 148.345 23.125C148.137 23.1515 147.963 23.1742 147.823 23.1932C147.493 23.2348 147.192 23.3049 146.919 23.4034C146.65 23.5019 146.434 23.6439 146.271 23.8295C146.112 24.0114 146.033 24.2538 146.033 24.5568C146.033 24.9773 146.188 25.2955 146.499 25.5114C146.809 25.7235 147.205 25.8295 147.686 25.8295ZM156.906 30.4545C156.212 30.4545 155.616 30.3636 155.116 30.1818C154.62 30 154.214 29.7595 153.9 29.4602C153.585 29.161 153.351 28.8333 153.195 28.4773L154.656 27.875C154.758 28.0417 154.894 28.2178 155.065 28.4034C155.239 28.5928 155.474 28.7538 155.769 28.8864C156.068 29.0189 156.453 29.0852 156.923 29.0852C157.566 29.0852 158.099 28.928 158.519 28.6136C158.94 28.303 159.15 27.8068 159.15 27.125V25.4091H159.042C158.94 25.5947 158.792 25.8011 158.599 26.0284C158.409 26.2557 158.148 26.4527 157.815 26.6193C157.481 26.786 157.048 26.8693 156.513 26.8693C155.824 26.8693 155.203 26.7083 154.65 26.3864C154.101 26.0606 153.665 25.5814 153.343 24.9489C153.025 24.3125 152.866 23.5303 152.866 22.6023C152.866 21.6742 153.023 20.8788 153.337 20.2159C153.656 19.553 154.091 19.0455 154.644 18.6932C155.197 18.3371 155.824 18.1591 156.525 18.1591C157.066 18.1591 157.504 18.25 157.837 18.4318C158.171 18.6098 158.43 18.8182 158.616 19.0568C158.805 19.2955 158.951 19.5057 159.053 19.6875H159.178V18.2727H160.843V27.1932C160.843 27.9432 160.669 28.5587 160.32 29.0398C159.972 29.5208 159.5 29.8769 158.906 30.108C158.315 30.339 157.648 30.4545 156.906 30.4545ZM156.888 25.4602C157.377 25.4602 157.79 25.3466 158.127 25.1193C158.468 24.8883 158.726 24.5587 158.9 24.1307C159.078 23.6989 159.167 23.1818 159.167 22.5795C159.167 21.9924 159.08 21.4754 158.906 21.0284C158.731 20.5814 158.476 20.233 158.138 19.983C157.801 19.7292 157.385 19.6023 156.888 19.6023C156.377 19.6023 155.951 19.7348 155.61 20C155.269 20.2614 155.012 20.6174 154.837 21.0682C154.667 21.5189 154.582 22.0227 154.582 22.5795C154.582 23.1515 154.669 23.6534 154.843 24.0852C155.017 24.517 155.275 24.8542 155.616 25.0966C155.96 25.339 156.385 25.4602 156.888 25.4602ZM166.243 27.1761C165.383 27.1761 164.642 26.9924 164.021 26.625C163.404 26.2538 162.926 25.733 162.589 25.0625C162.256 24.3883 162.089 23.5985 162.089 22.6932C162.089 21.7992 162.256 21.0114 162.589 20.3295C162.926 19.6477 163.396 19.1155 163.998 18.733C164.605 18.3504 165.313 18.1591 166.123 18.1591C166.616 18.1591 167.093 18.2405 167.555 18.4034C168.017 18.5663 168.432 18.822 168.8 19.1705C169.167 19.5189 169.457 19.9716 169.669 20.5284C169.881 21.0814 169.987 21.7538 169.987 22.5455V23.1477H163.05V21.875H168.322C168.322 21.428 168.231 21.0322 168.05 20.6875C167.868 20.339 167.612 20.0644 167.283 19.8636C166.957 19.6629 166.574 19.5625 166.135 19.5625C165.658 19.5625 165.241 19.6799 164.885 19.9148C164.533 20.1458 164.26 20.4489 164.067 20.8239C163.877 21.1951 163.783 21.5985 163.783 22.0341V23.0284C163.783 23.6117 163.885 24.108 164.089 24.517C164.298 24.9261 164.587 25.2386 164.959 25.4545C165.33 25.6667 165.764 25.7727 166.26 25.7727C166.582 25.7727 166.875 25.7273 167.141 25.6364C167.406 25.5417 167.635 25.4015 167.828 25.2159C168.021 25.0303 168.169 24.8011 168.271 24.5284L169.879 24.8182C169.75 25.2917 169.519 25.7064 169.186 26.0625C168.856 26.4148 168.442 26.6894 167.942 26.8864C167.445 27.0795 166.879 27.1761 166.243 27.1761ZM181.366 20.4034L179.826 20.6761C179.762 20.4792 179.66 20.2917 179.52 20.1136C179.383 19.9356 179.198 19.7898 178.963 19.6761C178.728 19.5625 178.434 19.5057 178.082 19.5057C177.601 19.5057 177.2 19.6136 176.878 19.8295C176.556 20.0417 176.395 20.3163 176.395 20.6534C176.395 20.9451 176.503 21.1799 176.718 21.358C176.934 21.536 177.283 21.6818 177.764 21.7955L179.15 22.1136C179.953 22.2992 180.552 22.5852 180.946 22.9716C181.34 23.358 181.537 23.8598 181.537 24.4773C181.537 25 181.385 25.4659 181.082 25.875C180.783 26.2803 180.364 26.5985 179.826 26.8295C179.292 27.0606 178.673 27.1761 177.968 27.1761C176.991 27.1761 176.194 26.9678 175.576 26.5511C174.959 26.1307 174.58 25.5341 174.44 24.7614L176.082 24.5114C176.184 24.9394 176.395 25.2633 176.713 25.483C177.031 25.6989 177.446 25.8068 177.957 25.8068C178.514 25.8068 178.959 25.6913 179.292 25.4602C179.626 25.2254 179.792 24.9394 179.792 24.6023C179.792 24.3295 179.69 24.1004 179.486 23.9148C179.285 23.7292 178.976 23.589 178.559 23.4943L177.082 23.1705C176.268 22.9848 175.665 22.6894 175.275 22.2841C174.889 21.8788 174.696 21.3655 174.696 20.7443C174.696 20.2292 174.84 19.7784 175.128 19.392C175.415 19.0057 175.813 18.7045 176.321 18.4886C176.828 18.2689 177.41 18.1591 178.065 18.1591C179.008 18.1591 179.751 18.3636 180.292 18.7727C180.834 19.178 181.192 19.7216 181.366 20.4034ZM182.765 30.2727V18.2727H184.424V19.6875H184.566C184.664 19.5057 184.806 19.2955 184.992 19.0568C185.177 18.8182 185.435 18.6098 185.765 18.4318C186.094 18.25 186.53 18.1591 187.071 18.1591C187.776 18.1591 188.405 18.3371 188.958 18.6932C189.511 19.0492 189.944 19.5625 190.259 20.233C190.577 20.9034 190.736 21.7102 190.736 22.6534C190.736 23.5966 190.579 24.4053 190.265 25.0795C189.95 25.75 189.518 26.267 188.969 26.6307C188.42 26.9905 187.793 27.1705 187.088 27.1705C186.558 27.1705 186.124 27.0814 185.787 26.9034C185.454 26.7254 185.193 26.517 185.003 26.2784C184.814 26.0398 184.668 25.8277 184.566 25.642H184.463V30.2727H182.765ZM184.429 22.6364C184.429 23.25 184.518 23.7879 184.696 24.25C184.874 24.7121 185.132 25.0739 185.469 25.3352C185.806 25.5928 186.219 25.7216 186.708 25.7216C187.215 25.7216 187.64 25.5871 187.98 25.3182C188.321 25.0455 188.579 24.6761 188.753 24.2102C188.931 23.7443 189.02 23.2197 189.02 22.6364C189.02 22.0606 188.933 21.5436 188.759 21.0852C188.588 20.6269 188.331 20.2652 187.986 20C187.645 19.7348 187.219 19.6023 186.708 19.6023C186.215 19.6023 185.799 19.7292 185.458 19.983C185.121 20.2367 184.865 20.5909 184.691 21.0455C184.516 21.5 184.429 22.0303 184.429 22.6364ZM195.761 27.1761C194.901 27.1761 194.161 26.9924 193.539 26.625C192.922 26.2538 192.445 25.733 192.107 25.0625C191.774 24.3883 191.607 23.5985 191.607 22.6932C191.607 21.7992 191.774 21.0114 192.107 20.3295C192.445 19.6477 192.914 19.1155 193.517 18.733C194.123 18.3504 194.831 18.1591 195.642 18.1591C196.134 18.1591 196.611 18.2405 197.073 18.4034C197.536 18.5663 197.95 18.822 198.318 19.1705C198.685 19.5189 198.975 19.9716 199.187 20.5284C199.399 21.0814 199.505 21.7538 199.505 22.5455V23.1477H192.568V21.875H197.84C197.84 21.428 197.75 21.0322 197.568 20.6875C197.386 20.339 197.13 20.0644 196.801 19.8636C196.475 19.6629 196.092 19.5625 195.653 19.5625C195.176 19.5625 194.759 19.6799 194.403 19.9148C194.051 20.1458 193.778 20.4489 193.585 20.8239C193.395 21.1951 193.301 21.5985 193.301 22.0341V23.0284C193.301 23.6117 193.403 24.108 193.607 24.517C193.816 24.9261 194.106 25.2386 194.477 25.4545C194.848 25.6667 195.282 25.7727 195.778 25.7727C196.1 25.7727 196.393 25.7273 196.659 25.6364C196.924 25.5417 197.153 25.4015 197.346 25.2159C197.539 25.0303 197.687 24.8011 197.789 24.5284L199.397 24.8182C199.268 25.2917 199.037 25.7064 198.704 26.0625C198.375 26.4148 197.96 26.6894 197.46 26.8864C196.964 27.0795 196.397 27.1761 195.761 27.1761ZM204.426 27.1761C203.582 27.1761 202.854 26.9848 202.244 26.6023C201.638 26.2159 201.173 25.6837 200.847 25.0057C200.521 24.3277 200.358 23.5511 200.358 22.6761C200.358 21.7898 200.525 21.0076 200.858 20.3295C201.191 19.6477 201.661 19.1155 202.267 18.733C202.873 18.3504 203.587 18.1591 204.409 18.1591C205.072 18.1591 205.663 18.2822 206.182 18.5284C206.701 18.7708 207.119 19.1117 207.438 19.5511C207.76 19.9905 207.951 20.5038 208.012 21.0909H206.358C206.267 20.6818 206.059 20.3295 205.733 20.0341C205.411 19.7386 204.979 19.5909 204.438 19.5909C203.964 19.5909 203.549 19.7159 203.193 19.9659C202.841 20.2121 202.566 20.5644 202.369 21.0227C202.173 21.4773 202.074 22.0152 202.074 22.6364C202.074 23.2727 202.171 23.822 202.364 24.2841C202.557 24.7462 202.83 25.1042 203.182 25.358C203.538 25.6117 203.957 25.7386 204.438 25.7386C204.76 25.7386 205.051 25.6799 205.313 25.5625C205.578 25.4413 205.799 25.2689 205.977 25.0455C206.159 24.822 206.286 24.553 206.358 24.2386H208.012C207.951 24.803 207.767 25.3068 207.46 25.75C207.154 26.1932 206.743 26.5417 206.227 26.7955C205.716 27.0492 205.116 27.1761 204.426 27.1761ZM209.188 27V18.2727H210.887V27H209.188ZM210.046 16.9261C209.751 16.9261 209.497 16.8277 209.285 16.6307C209.077 16.4299 208.972 16.1913 208.972 15.9148C208.972 15.6345 209.077 15.3958 209.285 15.1989C209.497 14.9981 209.751 14.8977 210.046 14.8977C210.342 14.8977 210.594 14.9981 210.802 15.1989C211.014 15.3958 211.12 15.6345 211.12 15.9148C211.12 16.1913 211.014 16.4299 210.802 16.6307C210.594 16.8277 210.342 16.9261 210.046 16.9261ZM216.686 18.2727V19.6364H211.754V18.2727H216.686ZM213.107 27V17.2614C213.107 16.7159 213.226 16.2633 213.464 15.9034C213.703 15.5398 214.019 15.2689 214.413 15.0909C214.807 14.9091 215.235 14.8182 215.697 14.8182C216.038 14.8182 216.33 14.8466 216.572 14.9034C216.815 14.9564 216.995 15.0057 217.112 15.0511L216.714 16.4261C216.635 16.4034 216.533 16.3769 216.408 16.3466C216.283 16.3125 216.131 16.2955 215.953 16.2955C215.54 16.2955 215.245 16.3977 215.067 16.6023C214.893 16.8068 214.805 17.1023 214.805 17.4886V27H213.107ZM217.799 27V18.2727H219.498V27H217.799ZM218.657 16.9261C218.361 16.9261 218.108 16.8277 217.896 16.6307C217.687 16.4299 217.583 16.1913 217.583 15.9148C217.583 15.6345 217.687 15.3958 217.896 15.1989C218.108 14.9981 218.361 14.8977 218.657 14.8977C218.952 14.8977 219.204 14.9981 219.413 15.1989C219.625 15.3958 219.731 15.6345 219.731 15.9148C219.731 16.1913 219.625 16.4299 219.413 16.6307C219.204 16.8277 218.952 16.9261 218.657 16.9261ZM224.819 27.1761C223.975 27.1761 223.247 26.9848 222.638 26.6023C222.032 26.2159 221.566 25.6837 221.24 25.0057C220.914 24.3277 220.751 23.5511 220.751 22.6761C220.751 21.7898 220.918 21.0076 221.251 20.3295C221.585 19.6477 222.054 19.1155 222.66 18.733C223.266 18.3504 223.98 18.1591 224.802 18.1591C225.465 18.1591 226.056 18.2822 226.575 18.5284C227.094 18.7708 227.513 19.1117 227.831 19.5511C228.153 19.9905 228.344 20.5038 228.405 21.0909H226.751C226.66 20.6818 226.452 20.3295 226.126 20.0341C225.804 19.7386 225.372 19.5909 224.831 19.5909C224.357 19.5909 223.943 19.7159 223.586 19.9659C223.234 20.2121 222.96 20.5644 222.763 21.0227C222.566 21.4773 222.467 22.0152 222.467 22.6364C222.467 23.2727 222.564 23.822 222.757 24.2841C222.95 24.7462 223.223 25.1042 223.575 25.358C223.931 25.6117 224.35 25.7386 224.831 25.7386C225.153 25.7386 225.444 25.6799 225.706 25.5625C225.971 25.4413 226.193 25.2689 226.371 25.0455C226.552 24.822 226.679 24.553 226.751 24.2386H228.405C228.344 24.803 228.16 25.3068 227.854 25.75C227.547 26.1932 227.136 26.5417 226.621 26.7955C226.109 27.0492 225.509 27.1761 224.819 27.1761ZM232.121 27.1932C231.568 27.1932 231.068 27.0909 230.621 26.8864C230.174 26.678 229.82 26.3769 229.559 25.983C229.301 25.589 229.172 25.1061 229.172 24.5341C229.172 24.0417 229.267 23.6364 229.456 23.3182C229.646 23 229.901 22.7481 230.223 22.5625C230.545 22.3769 230.905 22.2367 231.303 22.142C231.701 22.0473 232.106 21.9754 232.519 21.9261C233.042 21.8655 233.466 21.8163 233.792 21.7784C234.117 21.7367 234.354 21.6705 234.502 21.5795C234.65 21.4886 234.723 21.3409 234.723 21.1364V21.0966C234.723 20.6004 234.583 20.2159 234.303 19.9432C234.026 19.6705 233.614 19.5341 233.064 19.5341C232.492 19.5341 232.042 19.661 231.712 19.9148C231.386 20.1648 231.161 20.4432 231.036 20.75L229.439 20.3864C229.629 19.8561 229.905 19.428 230.269 19.1023C230.636 18.7727 231.059 18.5341 231.536 18.3864C232.013 18.2348 232.515 18.1591 233.042 18.1591C233.39 18.1591 233.759 18.2008 234.15 18.2841C234.544 18.3636 234.911 18.5114 235.252 18.7273C235.597 18.9432 235.879 19.2519 236.098 19.6534C236.318 20.0511 236.428 20.5682 236.428 21.2045V27H234.769V25.8068H234.701C234.591 26.0265 234.426 26.2424 234.206 26.4545C233.987 26.6667 233.705 26.8428 233.36 26.983C233.015 27.1231 232.602 27.1932 232.121 27.1932ZM232.491 25.8295C232.96 25.8295 233.362 25.7367 233.695 25.5511C234.032 25.3655 234.288 25.1231 234.462 24.8239C234.64 24.5208 234.729 24.197 234.729 23.8523V22.7273C234.669 22.7879 234.551 22.8447 234.377 22.8977C234.206 22.947 234.011 22.9905 233.792 23.0284C233.572 23.0625 233.358 23.0947 233.15 23.125C232.941 23.1515 232.767 23.1742 232.627 23.1932C232.297 23.2348 231.996 23.3049 231.723 23.4034C231.455 23.5019 231.239 23.6439 231.076 23.8295C230.917 24.0114 230.837 24.2538 230.837 24.5568C230.837 24.9773 230.992 25.2955 231.303 25.5114C231.614 25.7235 232.009 25.8295 232.491 25.8295ZM242.125 18.2727V19.6364H237.358V18.2727H242.125ZM238.636 16.1818H240.335V24.4375C240.335 24.767 240.384 25.0152 240.483 25.1818C240.581 25.3447 240.708 25.4564 240.863 25.517C241.022 25.5739 241.195 25.6023 241.38 25.6023C241.517 25.6023 241.636 25.5928 241.738 25.5739C241.841 25.5549 241.92 25.5398 241.977 25.5284L242.284 26.9318C242.185 26.9697 242.045 27.0076 241.863 27.0455C241.681 27.0871 241.454 27.1098 241.181 27.1136C240.735 27.1212 240.318 27.0417 239.931 26.875C239.545 26.7083 239.233 26.4508 238.994 26.1023C238.755 25.7538 238.636 25.3163 238.636 24.7898V16.1818ZM243.364 27V18.2727H245.063V27H243.364ZM244.222 16.9261C243.926 16.9261 243.673 16.8277 243.461 16.6307C243.252 16.4299 243.148 16.1913 243.148 15.9148C243.148 15.6345 243.252 15.3958 243.461 15.1989C243.673 14.9981 243.926 14.8977 244.222 14.8977C244.517 14.8977 244.769 14.9981 244.978 15.1989C245.19 15.3958 245.296 15.6345 245.296 15.9148C245.296 16.1913 245.19 16.4299 244.978 16.6307C244.769 16.8277 244.517 16.9261 244.222 16.9261ZM250.384 27.1761C249.566 27.1761 248.852 26.9886 248.242 26.6136C247.633 26.2386 247.159 25.714 246.822 25.0398C246.485 24.3655 246.316 23.5777 246.316 22.6761C246.316 21.7708 246.485 20.9792 246.822 20.3011C247.159 19.6231 247.633 19.0966 248.242 18.7216C248.852 18.3466 249.566 18.1591 250.384 18.1591C251.203 18.1591 251.917 18.3466 252.526 18.7216C253.136 19.0966 253.61 19.6231 253.947 20.3011C254.284 20.9792 254.453 21.7708 254.453 22.6761C254.453 23.5777 254.284 24.3655 253.947 25.0398C253.61 25.714 253.136 26.2386 252.526 26.6136C251.917 26.9886 251.203 27.1761 250.384 27.1761ZM250.39 25.75C250.92 25.75 251.36 25.6098 251.708 25.3295C252.057 25.0492 252.314 24.6761 252.481 24.2102C252.651 23.7443 252.737 23.2311 252.737 22.6705C252.737 22.1136 252.651 21.6023 252.481 21.1364C252.314 20.6667 252.057 20.2898 251.708 20.0057C251.36 19.7216 250.92 19.5795 250.39 19.5795C249.856 19.5795 249.413 19.7216 249.061 20.0057C248.712 20.2898 248.453 20.6667 248.282 21.1364C248.115 21.6023 248.032 22.1136 248.032 22.6705C248.032 23.2311 248.115 23.7443 248.282 24.2102C248.453 24.6761 248.712 25.0492 249.061 25.3295C249.413 25.6098 249.856 25.75 250.39 25.75ZM257.408 21.8182V27H255.709V18.2727H257.34V19.6932H257.448C257.648 19.2311 257.963 18.8598 258.391 18.5795C258.823 18.2992 259.366 18.1591 260.021 18.1591C260.616 18.1591 261.137 18.2841 261.584 18.5341C262.031 18.7803 262.377 19.1477 262.624 19.6364C262.87 20.125 262.993 20.7292 262.993 21.4489V27H261.294V21.6534C261.294 21.0208 261.129 20.5265 260.8 20.1705C260.47 19.8106 260.018 19.6307 259.442 19.6307C259.048 19.6307 258.698 19.7159 258.391 19.8864C258.088 20.0568 257.847 20.3068 257.669 20.6364C257.495 20.9621 257.408 21.3561 257.408 21.8182Z" fill="white"/>
<g opacity="0.5">
<path d="M292.042 27.0417H280.958V15.9583H286.5V14.375H280.958C280.08 14.375 279.375 15.0875 279.375 15.9583V27.0417C279.375 27.9125 280.08 28.625 280.958 28.625H292.042C292.913 28.625 293.625 27.9125 293.625 27.0417V21.5H292.042V27.0417ZM288.083 14.375V15.9583H290.925L283.143 23.7404L284.26 24.8567L292.042 17.0746V19.9167H293.625V14.375H288.083Z" fill="white"/>
</g>
</svg>
