<svg width="364" height="57" viewBox="0 0 364 57" fill="none" xmlns="http://www.w3.org/2000/svg">
<rect width="364" height="57" rx="8" fill="url(#paint0_linear_560_5202)"/>
<path d="M48.9247 22.7109V20.7273H60.7447V22.7109H55.9794V36H53.6825V22.7109H48.9247ZM61.1482 36V24.5455H63.3034V26.3651H63.4227C63.6315 25.7486 63.9994 25.2638 64.5264 24.9109C65.0583 24.5529 65.6599 24.3739 66.3311 24.3739C66.4703 24.3739 66.6343 24.3789 66.8233 24.3888C67.0172 24.3988 67.1688 24.4112 67.2782 24.4261V26.5589C67.1887 26.5341 67.0296 26.5067 66.8009 26.4769C66.5722 26.4421 66.3435 26.4247 66.1148 26.4247C65.5878 26.4247 65.118 26.5366 64.7054 26.7603C64.2977 26.979 63.9745 27.2848 63.7359 27.6776C63.4973 28.0653 63.378 28.5078 63.378 29.005V36H61.1482ZM70.1258 40.2955C69.7927 40.2955 69.4895 40.2681 69.216 40.2134C68.9426 40.1637 68.7388 40.109 68.6045 40.0494L69.1415 38.2223C69.5491 38.3317 69.9121 38.3789 70.2302 38.364C70.5484 38.3491 70.8293 38.2298 71.0729 38.006C71.3215 37.7823 71.5403 37.4169 71.7292 36.9098L72.0051 36.1491L67.8141 24.5455H70.2004L73.1013 33.4347H73.2207L76.1216 24.5455H78.5154L73.7949 37.5288C73.5761 38.1254 73.2977 38.63 72.9596 39.0426C72.6216 39.4602 72.2189 39.7734 71.7516 39.9822C71.2842 40.1911 70.7423 40.2955 70.1258 40.2955ZM90.6036 20.7273H92.9005V31.5554C92.9005 32.5348 92.7066 33.3725 92.3188 34.0685C91.936 34.7646 91.3966 35.2965 90.7005 35.6644C90.0045 36.0273 89.1892 36.2088 88.2545 36.2088C87.3944 36.2088 86.6214 36.0522 85.9353 35.739C85.2542 35.4258 84.7148 34.9709 84.317 34.3743C83.9243 33.7727 83.7279 33.0419 83.7279 32.1818H86.0173C86.0173 32.6044 86.1143 32.9698 86.3081 33.2781C86.507 33.5863 86.778 33.8274 87.121 34.0014C87.469 34.1705 87.8667 34.255 88.3142 34.255C88.8014 34.255 89.214 34.1531 89.5521 33.9492C89.8951 33.7404 90.1562 33.4347 90.3351 33.032C90.5141 32.6293 90.6036 32.1371 90.6036 31.5554V20.7273ZM103.744 24.7393C103.665 24.0334 103.337 23.4865 102.76 23.0987C102.183 22.706 101.457 22.5096 100.582 22.5096C99.956 22.5096 99.4141 22.609 98.9567 22.8079C98.4993 23.0018 98.1438 23.2702 97.8903 23.6133C97.6417 23.9513 97.5174 24.3366 97.5174 24.7692C97.5174 25.1321 97.6019 25.4453 97.771 25.7088C97.945 25.9723 98.1712 26.1935 98.4496 26.3725C98.733 26.5465 99.0362 26.6932 99.3594 26.8125C99.6825 26.9268 99.9933 27.0213 100.292 27.0959L101.783 27.4837C102.27 27.603 102.77 27.7646 103.282 27.9684C103.794 28.1722 104.269 28.4407 104.706 28.7738C105.144 29.1069 105.497 29.5195 105.765 30.0117C106.039 30.5039 106.175 31.093 106.175 31.7791C106.175 32.6442 105.952 33.4123 105.504 34.0835C105.062 34.7546 104.418 35.2841 103.573 35.6719C102.733 36.0597 101.716 36.2536 100.523 36.2536C99.3793 36.2536 98.3899 36.0721 97.5547 35.7092C96.7195 35.3462 96.0657 34.8317 95.5934 34.1655C95.1211 33.4943 94.8601 32.6989 94.8104 31.7791H97.1222C97.1669 32.331 97.3459 32.7908 97.6591 33.1587C97.9773 33.5217 98.3825 33.7926 98.8747 33.9716C99.3718 34.1456 99.9162 34.2326 100.508 34.2326C101.159 34.2326 101.738 34.1307 102.245 33.9268C102.757 33.718 103.16 33.4297 103.453 33.0618C103.747 32.6889 103.893 32.2539 103.893 31.7567C103.893 31.3043 103.764 30.9339 103.506 30.6456C103.252 30.3572 102.907 30.1186 102.469 29.9297C102.037 29.7408 101.547 29.5742 101 29.43L99.1953 28.9379C97.9723 28.6048 97.0029 28.1151 96.2869 27.4688C95.576 26.8224 95.2205 25.9673 95.2205 24.9034C95.2205 24.0234 95.4592 23.2553 95.9365 22.5991C96.4137 21.9428 97.06 21.4332 97.8754 21.0703C98.6907 20.7024 99.6105 20.5185 100.635 20.5185C101.669 20.5185 102.581 20.6999 103.371 21.0629C104.167 21.4258 104.793 21.9254 105.251 22.5618C105.708 23.1932 105.947 23.919 105.967 24.7393H103.744ZM107.91 36V24.5455H110.14V36H107.91ZM109.036 22.7781C108.648 22.7781 108.315 22.6488 108.037 22.3903C107.763 22.1268 107.627 21.8136 107.627 21.4506C107.627 21.0827 107.763 20.7695 108.037 20.511C108.315 20.2475 108.648 20.1158 109.036 20.1158C109.424 20.1158 109.755 20.2475 110.028 20.511C110.306 20.7695 110.446 21.0827 110.446 21.4506C110.446 21.8136 110.306 22.1268 110.028 22.3903C109.755 22.6488 109.424 22.7781 109.036 22.7781ZM117.102 40.5341C116.192 40.5341 115.409 40.4148 114.753 40.1761C114.102 39.9375 113.57 39.6218 113.157 39.229C112.745 38.8363 112.436 38.4063 112.232 37.9389L114.149 37.1484C114.283 37.3672 114.462 37.5984 114.686 37.842C114.915 38.0906 115.223 38.3018 115.611 38.4759C116.003 38.6499 116.508 38.7369 117.125 38.7369C117.97 38.7369 118.668 38.5305 119.22 38.1179C119.772 37.7102 120.048 37.0589 120.048 36.1641V33.9119H119.906C119.772 34.1555 119.578 34.4265 119.324 34.7248C119.076 35.0231 118.733 35.2816 118.295 35.5004C117.858 35.7191 117.289 35.8285 116.588 35.8285C115.683 35.8285 114.867 35.6172 114.142 35.1946C113.421 34.767 112.849 34.1381 112.426 33.3079C112.009 32.4727 111.8 31.446 111.8 30.228C111.8 29.0099 112.006 27.9659 112.419 27.0959C112.837 26.2259 113.408 25.5597 114.134 25.0973C114.86 24.63 115.683 24.3963 116.603 24.3963C117.313 24.3963 117.888 24.5156 118.325 24.7543C118.763 24.9879 119.103 25.2614 119.347 25.5746C119.595 25.8878 119.787 26.1637 119.921 26.4023H120.085V24.5455H122.27V36.2536C122.27 37.2379 122.041 38.0458 121.584 38.6772C121.127 39.3086 120.508 39.7759 119.727 40.0792C118.952 40.3825 118.077 40.5341 117.102 40.5341ZM117.08 33.979C117.721 33.979 118.263 33.8299 118.705 33.5316C119.153 33.2283 119.491 32.7958 119.72 32.234C119.953 31.6673 120.07 30.9886 120.07 30.1982C120.07 29.4276 119.956 28.7489 119.727 28.1623C119.498 27.5756 119.163 27.1183 118.72 26.7901C118.278 26.457 117.731 26.2905 117.08 26.2905C116.409 26.2905 115.849 26.4645 115.402 26.8125C114.954 27.1555 114.616 27.6229 114.388 28.2145C114.164 28.8061 114.052 29.4673 114.052 30.1982C114.052 30.9489 114.166 31.6076 114.395 32.1744C114.624 32.7411 114.962 33.1836 115.409 33.5018C115.862 33.82 116.419 33.979 117.08 33.979ZM126.65 29.1989V36H124.421V20.7273H126.62V26.4098H126.762C127.031 25.7933 127.441 25.3036 127.993 24.9407C128.544 24.5778 129.265 24.3963 130.155 24.3963C130.941 24.3963 131.627 24.5579 132.214 24.881C132.805 25.2042 133.263 25.6864 133.586 26.3278C133.914 26.9641 134.078 27.7596 134.078 28.7141V36H131.848V28.9826C131.848 28.1424 131.632 27.4911 131.199 27.0288C130.767 26.5614 130.165 26.3278 129.395 26.3278C128.868 26.3278 128.395 26.4396 127.978 26.6634C127.565 26.8871 127.239 27.2152 127.001 27.6477C126.767 28.0753 126.65 28.5923 126.65 29.1989ZM141.56 24.5455V26.3352H135.304V24.5455H141.56ZM136.981 21.8011H139.211V32.6367C139.211 33.0692 139.276 33.3949 139.405 33.6136C139.534 33.8274 139.701 33.9741 139.905 34.0536C140.114 34.1282 140.34 34.1655 140.583 34.1655C140.762 34.1655 140.919 34.1531 141.053 34.1282C141.187 34.1033 141.292 34.0835 141.366 34.0685L141.769 35.9105C141.64 35.9602 141.456 36.0099 141.217 36.0597C140.979 36.1143 140.68 36.1442 140.322 36.1491C139.736 36.1591 139.189 36.0547 138.682 35.8359C138.175 35.6172 137.764 35.2791 137.451 34.8217C137.138 34.3643 136.981 33.7901 136.981 33.0991V21.8011ZM161.35 28.3636C161.35 29.9943 161.052 31.3963 160.455 32.5696C159.859 33.7379 159.041 34.6378 158.002 35.2692C156.968 35.8956 155.792 36.2088 154.474 36.2088C153.152 36.2088 151.971 35.8956 150.932 35.2692C149.898 34.6378 149.083 33.7354 148.486 32.5621C147.89 31.3888 147.591 29.9893 147.591 28.3636C147.591 26.733 147.89 25.3335 148.486 24.1651C149.083 22.9918 149.898 22.092 150.932 21.4656C151.971 20.8342 153.152 20.5185 154.474 20.5185C155.792 20.5185 156.968 20.8342 158.002 21.4656C159.041 22.092 159.859 22.9918 160.455 24.1651C161.052 25.3335 161.35 26.733 161.35 28.3636ZM159.068 28.3636C159.068 27.1207 158.867 26.0742 158.464 25.2241C158.066 24.369 157.52 23.7227 156.823 23.2852C156.132 22.8427 155.349 22.6214 154.474 22.6214C153.594 22.6214 152.809 22.8427 152.118 23.2852C151.427 23.7227 150.88 24.369 150.477 25.2241C150.08 26.0742 149.881 27.1207 149.881 28.3636C149.881 29.6065 150.08 30.6555 150.477 31.5107C150.88 32.3608 151.427 33.0071 152.118 33.4496C152.809 33.8871 153.594 34.1058 154.474 34.1058C155.349 34.1058 156.132 33.8871 156.823 33.4496C157.52 33.0071 158.066 32.3608 158.464 31.5107C158.867 30.6555 159.068 29.6065 159.068 28.3636ZM165.434 29.1989V36H163.204V24.5455H165.344V26.4098H165.486C165.75 25.8033 166.162 25.3161 166.724 24.9482C167.291 24.5803 168.004 24.3963 168.864 24.3963C169.645 24.3963 170.328 24.5604 170.915 24.8885C171.502 25.2116 171.957 25.6939 172.28 26.3352C172.603 26.9766 172.764 27.7695 172.764 28.7141V36H170.535V28.9826C170.535 28.1523 170.318 27.5036 169.886 27.0362C169.453 26.5639 168.859 26.3278 168.104 26.3278C167.587 26.3278 167.127 26.4396 166.724 26.6634C166.326 26.8871 166.011 27.2152 165.777 27.6477C165.548 28.0753 165.434 28.5923 165.434 29.1989ZM177.145 20.7273V36H174.915V20.7273H177.145ZM179.304 36V24.5455H181.534V36H179.304ZM180.43 22.7781C180.043 22.7781 179.71 22.6488 179.431 22.3903C179.158 22.1268 179.021 21.8136 179.021 21.4506C179.021 21.0827 179.158 20.7695 179.431 20.511C179.71 20.2475 180.043 20.1158 180.43 20.1158C180.818 20.1158 181.149 20.2475 181.422 20.511C181.701 20.7695 181.84 21.0827 181.84 21.4506C181.84 21.8136 181.701 22.1268 181.422 22.3903C181.149 22.6488 180.818 22.7781 180.43 22.7781ZM185.924 29.1989V36H183.694V24.5455H185.834V26.4098H185.976C186.239 25.8033 186.652 25.3161 187.214 24.9482C187.78 24.5803 188.494 24.3963 189.354 24.3963C190.135 24.3963 190.818 24.5604 191.405 24.8885C191.991 25.2116 192.446 25.6939 192.769 26.3352C193.093 26.9766 193.254 27.7695 193.254 28.7141V36H191.024V28.9826C191.024 28.1523 190.808 27.5036 190.376 27.0362C189.943 26.5639 189.349 26.3278 188.593 26.3278C188.076 26.3278 187.616 26.4396 187.214 26.6634C186.816 26.8871 186.5 27.2152 186.267 27.6477C186.038 28.0753 185.924 28.5923 185.924 29.1989ZM200.341 36.2312C199.213 36.2312 198.241 35.9901 197.426 35.5078C196.615 35.0206 195.989 34.337 195.546 33.457C195.109 32.5721 194.89 31.5355 194.89 30.3473C194.89 29.174 195.109 28.1399 195.546 27.245C195.989 26.3501 196.605 25.6516 197.396 25.1495C198.191 24.6474 199.121 24.3963 200.185 24.3963C200.831 24.3963 201.458 24.5032 202.064 24.717C202.671 24.9308 203.215 25.2663 203.697 25.7237C204.179 26.1811 204.56 26.7752 204.838 27.506C205.117 28.2319 205.256 29.1143 205.256 30.1534V30.9439H196.15V29.2734H203.071C203.071 28.6868 202.952 28.1673 202.713 27.7148C202.474 27.2575 202.139 26.897 201.706 26.6335C201.279 26.37 200.776 26.2383 200.2 26.2383C199.573 26.2383 199.026 26.3924 198.559 26.7006C198.097 27.0039 197.739 27.4016 197.485 27.8938C197.237 28.381 197.112 28.9105 197.112 29.4822V30.7873C197.112 31.5529 197.247 32.2042 197.515 32.7411C197.789 33.2781 198.169 33.6882 198.656 33.9716C199.143 34.25 199.713 34.3892 200.364 34.3892C200.786 34.3892 201.172 34.3295 201.52 34.2102C201.868 34.0859 202.168 33.902 202.422 33.6584C202.676 33.4148 202.869 33.114 203.004 32.756L205.114 33.1364C204.945 33.7578 204.642 34.3022 204.204 34.7695C203.772 35.2319 203.227 35.5923 202.571 35.8509C201.92 36.1044 201.177 36.2312 200.341 36.2312ZM211.786 36V20.7273H221.362V22.7109H214.091V27.3643H220.862V29.3406H214.091V34.0163H221.451V36H211.786ZM227.709 36.2237C226.784 36.2237 225.959 35.9876 225.233 35.5153C224.512 35.038 223.945 34.3594 223.533 33.4794C223.125 32.5945 222.921 31.533 222.921 30.2951C222.921 29.0572 223.127 27.9982 223.54 27.1183C223.958 26.2383 224.529 25.5646 225.255 25.0973C225.981 24.63 226.804 24.3963 227.724 24.3963C228.435 24.3963 229.006 24.5156 229.439 24.7543C229.876 24.9879 230.214 25.2614 230.453 25.5746C230.697 25.8878 230.886 26.1637 231.02 26.4023H231.154V20.7273H233.384V36H231.206V34.2177H231.02C230.886 34.4613 230.692 34.7397 230.438 35.0529C230.19 35.3661 229.847 35.6396 229.409 35.8732C228.972 36.1069 228.405 36.2237 227.709 36.2237ZM228.201 34.3221C228.842 34.3221 229.384 34.1531 229.827 33.815C230.274 33.4719 230.612 32.9972 230.841 32.3906C231.075 31.7841 231.191 31.0781 231.191 30.2727C231.191 29.4773 231.077 28.7812 230.848 28.1847C230.62 27.5881 230.284 27.1232 229.842 26.7901C229.399 26.457 228.852 26.2905 228.201 26.2905C227.53 26.2905 226.97 26.4645 226.523 26.8125C226.076 27.1605 225.738 27.6353 225.509 28.2369C225.285 28.8384 225.173 29.517 225.173 30.2727C225.173 31.0384 225.288 31.7269 225.516 32.3384C225.745 32.9499 226.083 33.4347 226.53 33.7926C226.983 34.1456 227.54 34.3221 228.201 34.3221ZM235.726 36V24.5455H237.956V36H235.726ZM236.852 22.7781C236.465 22.7781 236.131 22.6488 235.853 22.3903C235.58 22.1268 235.443 21.8136 235.443 21.4506C235.443 21.0827 235.58 20.7695 235.853 20.511C236.131 20.2475 236.465 20.1158 236.852 20.1158C237.24 20.1158 237.571 20.2475 237.844 20.511C238.123 20.7695 238.262 21.0827 238.262 21.4506C238.262 21.8136 238.123 22.1268 237.844 22.3903C237.571 22.6488 237.24 22.7781 236.852 22.7781ZM245.463 24.5455V26.3352H239.206V24.5455H245.463ZM240.884 21.8011H243.114V32.6367C243.114 33.0692 243.178 33.3949 243.308 33.6136C243.437 33.8274 243.603 33.9741 243.807 34.0536C244.016 34.1282 244.242 34.1655 244.486 34.1655C244.665 34.1655 244.821 34.1531 244.956 34.1282C245.09 34.1033 245.194 34.0835 245.269 34.0685L245.672 35.9105C245.542 35.9602 245.358 36.0099 245.12 36.0597C244.881 36.1143 244.583 36.1442 244.225 36.1491C243.638 36.1591 243.091 36.0547 242.584 35.8359C242.077 35.6172 241.667 35.2791 241.354 34.8217C241.04 34.3643 240.884 33.7901 240.884 33.0991V21.8011ZM251.791 36.2312C250.717 36.2312 249.78 35.9851 248.98 35.4929C248.179 35.0007 247.558 34.3121 247.115 33.4272C246.673 32.5423 246.452 31.5082 246.452 30.3249C246.452 29.1367 246.673 28.0977 247.115 27.2077C247.558 26.3178 248.179 25.6268 248.98 25.1346C249.78 24.6424 250.717 24.3963 251.791 24.3963C252.865 24.3963 253.802 24.6424 254.603 25.1346C255.403 25.6268 256.024 26.3178 256.467 27.2077C256.909 28.0977 257.131 29.1367 257.131 30.3249C257.131 31.5082 256.909 32.5423 256.467 33.4272C256.024 34.3121 255.403 35.0007 254.603 35.4929C253.802 35.9851 252.865 36.2312 251.791 36.2312ZM251.799 34.3594C252.495 34.3594 253.071 34.1754 253.529 33.8075C253.986 33.4396 254.324 32.9499 254.543 32.3384C254.767 31.7269 254.878 31.0533 254.878 30.3175C254.878 29.5866 254.767 28.9155 254.543 28.304C254.324 27.6875 253.986 27.1928 253.529 26.82C253.071 26.4471 252.495 26.2607 251.799 26.2607C251.098 26.2607 250.516 26.4471 250.054 26.82C249.596 27.1928 249.256 27.6875 249.032 28.304C248.813 28.9155 248.704 29.5866 248.704 30.3175C248.704 31.0533 248.813 31.7269 249.032 32.3384C249.256 32.9499 249.596 33.4396 250.054 33.8075C250.516 34.1754 251.098 34.3594 251.799 34.3594ZM258.78 36V24.5455H260.935V26.3651H261.054C261.263 25.7486 261.631 25.2638 262.158 24.9109C262.69 24.5529 263.291 24.3739 263.962 24.3739C264.102 24.3739 264.266 24.3789 264.455 24.3888C264.648 24.3988 264.8 24.4112 264.91 24.4261V26.5589C264.82 26.5341 264.661 26.5067 264.432 26.4769C264.204 26.4421 263.975 26.4247 263.746 26.4247C263.219 26.4247 262.749 26.5366 262.337 26.7603C261.929 26.979 261.606 27.2848 261.367 27.6776C261.129 28.0653 261.009 28.5078 261.009 29.005V36H258.78ZM272.946 29.1989V36H270.717V24.5455H272.857V26.4098H272.999C273.262 25.8033 273.675 25.3161 274.237 24.9482C274.803 24.5803 275.517 24.3963 276.377 24.3963C277.157 24.3963 277.841 24.5604 278.428 24.8885C279.014 25.2116 279.469 25.6939 279.792 26.3352C280.116 26.9766 280.277 27.7695 280.277 28.7141V36H278.047V28.9826C278.047 28.1523 277.831 27.5036 277.399 27.0362C276.966 26.5639 276.372 26.3278 275.616 26.3278C275.099 26.3278 274.639 26.4396 274.237 26.6634C273.839 26.8871 273.523 27.2152 273.29 27.6477C273.061 28.0753 272.946 28.5923 272.946 29.1989ZM287.252 36.2312C286.179 36.2312 285.241 35.9851 284.441 35.4929C283.641 35.0007 283.019 34.3121 282.577 33.4272C282.134 32.5423 281.913 31.5082 281.913 30.3249C281.913 29.1367 282.134 28.0977 282.577 27.2077C283.019 26.3178 283.641 25.6268 284.441 25.1346C285.241 24.6424 286.179 24.3963 287.252 24.3963C288.326 24.3963 289.263 24.6424 290.064 25.1346C290.864 25.6268 291.486 26.3178 291.928 27.2077C292.371 28.0977 292.592 29.1367 292.592 30.3249C292.592 31.5082 292.371 32.5423 291.928 33.4272C291.486 34.3121 290.864 35.0007 290.064 35.4929C289.263 35.9851 288.326 36.2312 287.252 36.2312ZM287.26 34.3594C287.956 34.3594 288.533 34.1754 288.99 33.8075C289.447 33.4396 289.785 32.9499 290.004 32.3384C290.228 31.7269 290.34 31.0533 290.34 30.3175C290.34 29.5866 290.228 28.9155 290.004 28.304C289.785 27.6875 289.447 27.1928 288.99 26.82C288.533 26.4471 287.956 26.2607 287.26 26.2607C286.559 26.2607 285.977 26.4471 285.515 26.82C285.057 27.1928 284.717 27.6875 284.493 28.304C284.274 28.9155 284.165 29.5866 284.165 30.3175C284.165 31.0533 284.274 31.7269 284.493 32.3384C284.717 32.9499 285.057 33.4396 285.515 33.8075C285.977 34.1754 286.559 34.3594 287.26 34.3594ZM296.375 36L293.005 24.5455H295.309L297.554 32.9574H297.666L299.918 24.5455H302.222L304.459 32.9201H304.571L306.801 24.5455H309.105L305.742 36H303.467L301.141 27.7298H300.969L298.643 36H296.375ZM313.193 20.7273L312.999 31.6076H310.933L310.739 20.7273H313.193ZM311.97 36.1417C311.557 36.1417 311.204 35.9975 310.911 35.7092C310.617 35.4158 310.473 35.0629 310.478 34.6502C310.473 34.2425 310.617 33.8945 310.911 33.6062C311.204 33.3129 311.557 33.1662 311.97 33.1662C312.372 33.1662 312.72 33.3129 313.014 33.6062C313.307 33.8945 313.456 34.2425 313.461 34.6502C313.456 34.9237 313.384 35.1747 313.245 35.4034C313.111 35.6271 312.932 35.8061 312.708 35.9403C312.484 36.0746 312.238 36.1417 311.97 36.1417Z" fill="white"/>
<defs>
<linearGradient id="paint0_linear_560_5202" x1="-116.119" y1="70.6716" x2="132.42" y2="-225.555" gradientUnits="userSpaceOnUse">
<stop stop-color="#30B0FB"/>
<stop offset="1" stop-color="#80D731"/>
</linearGradient>
</defs>
</svg>
